<svg width="216" height="216" viewBox="0 0 216 216" fill="none" xmlns="http://www.w3.org/2000/svg">
<g clip-path="url(#clip0_62_2401)">
<path d="M108 213.539C166.288 213.539 213.539 166.288 213.539 108C213.539 49.7124 166.288 2.46094 108 2.46094C49.7124 2.46094 2.46094 49.7124 2.46094 108C2.46094 166.288 49.7124 213.539 108 213.539Z" fill="white"/>
<path d="M108 4.92187C131.849 4.9206 154.961 13.189 173.398 28.3181C191.835 43.4473 204.455 64.5012 209.109 87.8923C213.763 111.283 210.162 135.565 198.92 156.598C187.678 177.632 169.49 194.117 147.456 203.244C125.422 212.372 100.905 213.577 78.0826 206.654C55.2598 199.731 35.5436 185.109 22.2934 165.279C9.0432 145.448 3.07881 121.637 5.41653 97.9027C7.75425 74.1679 18.2494 51.9781 35.1138 35.1141C44.6627 25.512 56.0214 17.8993 68.5323 12.7168C81.0433 7.53427 94.4579 4.88483 108 4.92187ZM108 0C86.6394 0 65.7587 6.3341 47.9982 18.2013C30.2377 30.0685 16.395 46.9358 8.22077 66.6702C0.0465046 86.4046 -2.09225 108.12 2.07495 129.07C6.24215 150.02 16.5282 169.263 31.6322 184.368C46.7363 199.472 65.98 209.758 86.93 213.925C107.88 218.092 129.595 215.953 149.33 207.779C169.064 199.605 185.931 185.762 197.798 168.002C209.666 150.241 216 129.36 216 108C216 93.8172 213.206 79.7734 207.779 66.6702C202.351 53.567 194.396 41.6612 184.367 31.6325C174.339 21.6038 162.433 13.6485 149.33 8.22101C136.226 2.79351 122.182 0 108 0Z" fill="#EF0000"/>
<path d="M108 205.685C161.95 205.685 205.685 161.95 205.685 108C205.685 54.0501 161.95 10.3149 108 10.3149C54.05 10.3149 10.3148 54.0501 10.3148 108C10.3148 161.95 54.05 205.685 108 205.685Z" fill="white"/>
<path d="M108 11.3696C161.283 11.3696 204.63 54.7173 204.63 108C204.63 161.283 161.283 204.63 108 204.63C54.7172 204.63 11.3695 161.283 11.3695 108C11.3695 54.7173 54.7172 11.3696 108 11.3696ZM108 9.26025C53.557 9.26025 9.26016 53.5571 9.26016 108C9.26016 162.443 53.557 206.74 108 206.74C162.443 206.74 206.74 162.443 206.74 108C206.74 53.5571 162.443 9.26025 108 9.26025Z" fill="#EF0000"/>
<path d="M72.9281 82.4414V82.5891L74.3344 83.9953C74.775 88.9219 74.9977 95.0344 75.0024 102.333C75.0024 103.242 73.9781 103.976 71.9297 104.534C70.827 104.869 69.6855 105.061 68.5336 105.103C66.636 105.157 64.7475 104.821 62.9844 104.118C61.2214 103.414 59.6211 102.357 58.282 101.011L57.7687 100.505C57.5557 100.35 57.3558 100.179 57.1711 99.9914C55.6604 98.5449 54.4623 96.8041 53.6508 94.8764C52.8393 92.9487 52.4317 90.875 52.4531 88.7836C52.4531 83.1586 53.7469 78.9399 56.3344 76.1274C59.0203 73.268 63.1594 71.836 68.7516 71.8313C69.5742 71.8313 71.1422 72.3727 73.4696 73.4555V73.5118C73.4574 73.541 73.4574 73.5739 73.4696 73.6032L74.911 75.0094C74.7769 77.3409 73.9737 79.5843 72.5977 81.4711C71.9236 81.4017 71.2588 81.2603 70.6148 81.0492C69.8996 80.8213 69.1385 80.7766 68.4015 80.9191C67.6644 81.0616 66.9749 81.3868 66.3961 81.8649C66.7969 81.8227 67.1484 81.7946 67.4508 81.7735L72.0774 81.5906L72.9281 82.4414ZM67.4297 82.7086C65.9234 82.7309 64.4267 82.9531 62.9789 83.3695C62.7945 84.059 62.6837 84.7661 62.6484 85.4789C62.5807 86.3094 62.7463 87.1423 63.1266 87.8836C64.3359 88.0031 65.2359 88.0805 65.8336 88.1227V95.7586C63.6914 95.1164 62.3297 94.4438 61.7484 93.7406C61.0453 92.8828 60.6938 91.3008 60.6938 88.9945C60.6321 86.5669 61.2247 84.1675 62.4094 82.0477C63.7406 79.7274 65.5781 78.5672 67.9219 78.5672C68.3994 78.5819 68.8726 78.6623 69.3281 78.8063L70.65 79.2C71.7503 77.692 72.3879 75.8963 72.4852 74.0321C70.6852 73.1883 69.4336 72.7664 68.7305 72.7664C63.3773 72.7664 59.4492 74.1094 56.9461 76.7954C54.5414 79.4016 53.3367 83.4 53.332 88.7907C53.2731 90.6323 53.5836 92.4671 54.2454 94.1868C54.9072 95.9065 55.9068 97.4761 57.1852 98.8031C58.8309 100.525 60.9216 101.757 63.2252 102.363C65.5289 102.969 67.9553 102.924 70.2352 102.234C71.8735 101.791 72.6961 101.32 72.6961 100.828C72.6961 93.5719 72.4758 87.4782 72.0352 82.5469L67.4297 82.7086ZM63.0703 89.0368C63.0298 89.269 63.0086 89.5042 63.007 89.7399V90.443C62.9639 91.5792 63.0968 92.7153 63.4008 93.8109C63.8954 94.0674 64.4076 94.2883 64.9336 94.4719V90.1969L64.1812 90.1125L63.0703 89.0368Z" fill="#EF0000"/>
<path d="M80.2336 100.181C80.0464 99.9939 79.8442 99.8222 79.6289 99.6679C76.582 96.9633 75.0586 93.2344 75.0586 88.4812C75.1242 85.6669 76.0033 82.9317 77.5898 80.6062C79.0859 78.2233 81.0497 76.1686 83.3625 74.5664C85.5567 72.8732 88.2283 71.9138 90.9984 71.8242C96.0656 71.8242 99.8531 73.4086 102.361 76.5773L102.874 77.0906C105.715 79.9406 107.137 84.2601 107.142 90.0492C107.179 91.9938 106.832 93.9265 106.12 95.7365C105.408 97.5464 104.346 99.1979 102.994 100.596C101.681 102.034 100.077 103.177 98.2893 103.95C96.5014 104.722 94.5699 105.105 92.6226 105.075C87.6305 105.075 83.6297 103.57 80.6203 100.561L80.2336 100.181ZM101.672 77.1609C99.3281 74.1937 95.7703 72.7102 90.9984 72.7102C88.4364 72.7887 85.964 73.6719 83.932 75.2344C81.7342 76.7653 79.8627 78.718 78.4266 80.9789C76.8945 83.1794 76.0391 85.7798 75.9656 88.4601C75.9656 92.9508 77.3719 96.4804 80.1844 99.0492C82.9031 101.51 86.5406 102.743 91.0969 102.748C92.931 102.779 94.7508 102.419 96.4349 101.691C98.1189 100.964 99.6286 99.8856 100.863 98.5289C102.146 97.2065 103.155 95.6437 103.832 93.9303C104.509 92.2168 104.84 90.3865 104.808 88.5445C104.822 83.6367 103.777 79.8422 101.672 77.1609ZM94.7812 90.7453C94.3052 91.4516 93.6604 92.0279 92.9053 92.422C92.1502 92.8161 91.3087 93.0156 90.457 93.0023C89.0016 93.0681 87.5742 92.5865 86.4562 91.6523C85.9376 91.1723 85.5314 90.5837 85.2664 89.9286C85.0015 89.2735 84.8844 88.568 84.9234 87.8625C84.9677 86.0465 85.6498 84.3041 86.85 82.9406C88.207 81.2742 89.7258 80.4445 91.3851 80.4445C92.0812 80.4106 92.7755 80.5397 93.4128 80.8217C94.05 81.1037 94.6125 81.5308 95.0554 82.0687C95.9116 83.1736 96.3477 84.5465 96.2859 85.9429C96.3293 87.6726 95.8004 89.3682 94.7812 90.7664V90.7453ZM94.725 83.1445C94.1481 82.8847 93.5225 82.7505 92.8898 82.7508C91.4836 82.7508 90.1851 83.4867 88.9945 84.9586C87.9223 86.1842 87.302 87.74 87.2367 89.3672C87.2176 90.0493 87.3522 90.7269 87.6305 91.35C88.4803 91.8562 89.4539 92.1167 90.443 92.1023C91.1773 92.1143 91.9025 91.9384 92.5498 91.5914C93.1971 91.2444 93.7449 90.7377 94.1414 90.1195C94.9793 88.8881 95.4097 87.4249 95.3719 85.9359C95.4 84.972 95.1771 84.0174 94.725 83.1656V83.1445Z" fill="#EF0000"/>
<path d="M112.823 100.181C112.637 99.9914 112.434 99.8174 112.219 99.6609C109.172 96.9562 107.648 93.2273 107.648 88.4742C107.714 85.6598 108.593 82.9247 110.18 80.5992C111.676 78.2163 113.64 76.1616 115.952 74.5593C118.147 72.8661 120.818 71.9067 123.588 71.8171C128.655 71.8171 132.443 73.4015 134.951 76.5703L135.464 77.0836C138.305 79.9335 139.727 84.2531 139.732 90.0421C139.769 91.9867 139.422 93.9195 138.71 95.7294C137.998 97.5394 136.936 99.1908 135.584 100.589C134.271 102.027 132.667 103.17 130.879 103.942C129.091 104.715 127.16 105.098 125.213 105.068C120.22 105.068 116.22 103.563 113.21 100.554L112.823 100.181ZM134.262 77.1609C131.918 74.1937 128.36 72.7101 123.588 72.7101C121.026 72.7887 118.554 73.6718 116.522 75.2343C114.324 76.7652 112.453 78.7179 111.016 80.9788C109.484 83.1794 108.629 85.7798 108.555 88.4601C108.555 92.9507 109.962 96.4804 112.774 99.0491C115.498 101.51 119.135 102.743 123.687 102.748C125.521 102.779 127.341 102.418 129.025 101.691C130.709 100.964 132.218 99.8856 133.453 98.5288C134.736 97.2064 135.745 95.6436 136.422 93.9302C137.098 92.2168 137.43 90.3865 137.398 88.5445C137.412 83.6367 136.366 79.8421 134.262 77.1609ZM127.371 90.7453C126.895 91.4515 126.25 92.0278 125.495 92.422C124.74 92.8161 123.899 93.0155 123.047 93.0023C121.591 93.0681 120.164 92.5864 119.046 91.6523C118.527 91.1722 118.121 90.5837 117.856 89.9286C117.591 89.2735 117.474 88.568 117.513 87.8624C117.558 86.0465 118.24 84.3041 119.44 82.9406C120.797 81.2742 122.316 80.4445 123.975 80.4445C124.671 80.4105 125.365 80.5397 126.003 80.8217C126.64 81.1037 127.202 81.5307 127.645 82.0687C128.501 83.1736 128.938 84.5465 128.876 85.9429C128.919 87.6726 128.39 89.3682 127.371 90.7663V90.7453ZM127.315 83.1445C126.738 82.8847 126.112 82.7505 125.48 82.7507C124.073 82.7507 122.775 83.4867 121.584 84.9585C120.512 86.1842 119.892 87.74 119.827 89.3671C119.807 90.0492 119.942 90.7269 120.22 91.3499C121.07 91.8562 122.044 92.1166 123.033 92.1023C123.767 92.1142 124.492 91.9384 125.14 91.5914C125.787 91.2444 126.335 90.7377 126.731 90.1195C127.569 88.8881 128 87.4248 127.962 85.9359C127.99 84.972 127.767 84.0173 127.315 83.1656V83.1445Z" fill="#EF0000"/>
<path d="M141.173 102.973H141.047H140.927V102.614C140.927 102.733 140.927 102.516 140.927 101.953L140.892 101.109V100.659C140.892 100.476 140.892 100.336 140.892 100.237V99.8436C140.892 99.6679 140.892 99.4007 140.892 99.0491C140.892 98.6975 140.892 98.4374 140.892 98.2546C140.892 95.9483 140.972 92.4796 141.131 87.8483C141.291 83.2171 141.37 79.7507 141.37 77.4491L141.279 73.2304C141.279 72.2671 141.279 71.8593 141.279 71.9999H142.298H142.629C142.713 71.9999 142.938 71.9999 143.332 71.9366C143.909 71.8804 144.344 71.8452 144.619 71.8452C150.033 71.8452 154.252 73.2398 157.275 76.0288C158.112 76.8726 158.681 77.435 158.955 77.7725L159.441 78.2507C162.178 81.0866 163.547 84.928 163.547 89.7749C163.519 93.826 161.898 97.7034 159.033 100.568C156.168 103.433 152.291 105.054 148.24 105.082C146.314 104.972 144.398 104.737 142.502 104.379L141.173 102.973ZM156.516 76.6686C153.53 74.039 149.51 72.7265 144.457 72.7312C144.281 72.7312 143.88 72.7311 143.255 72.8225C142.855 72.8702 142.452 72.8702 142.052 72.8225C142.118 74.2663 142.148 75.7897 142.144 77.3929C142.144 79.6991 142.064 83.1655 141.905 87.7921C141.745 92.4186 141.666 95.8874 141.666 98.1983C141.666 98.7397 141.666 99.3866 141.722 100.153C141.785 101.271 141.813 101.932 141.813 102.136C143.439 102.444 145.083 102.646 146.735 102.74C150.568 102.702 154.234 101.162 156.945 98.4515C159.655 95.7408 161.195 92.0754 161.234 88.2421C161.252 83.278 159.68 79.4202 156.516 76.6686ZM147.797 93.5436V87.9538C147.745 85.6034 147.876 83.2524 148.191 80.9226H149.21C150.555 80.9226 151.833 81.6093 153.042 82.9827C154.139 84.0774 154.788 85.5414 154.863 87.0889C154.863 88.1085 154.16 89.4444 152.838 91.0827C151.516 92.721 150.314 93.5507 149.323 93.5507L147.797 93.5436ZM150.11 92.3694C150.848 91.8274 151.512 91.1916 152.086 90.478C153.338 88.9733 153.963 87.8413 153.963 87.0819C153.854 85.8491 153.322 84.6919 152.459 83.8054C151.948 83.4427 151.341 83.2418 150.715 83.2288H150.384C150.175 85.2961 150.083 87.3737 150.11 89.4515V92.3694Z" fill="#EF0000"/>
<path d="M58.0219 109.019C59.933 108.695 61.8707 108.554 63.8086 108.598H66.2555V108.802L67.7953 110.208C67.7953 110.644 67.7953 111.277 67.7602 112.099L67.6969 114.539C67.6266 115.945 67.5774 116.873 67.5281 117.394L67.3313 120.487C67.1414 123.715 66.9938 126.211 66.9094 127.976H68.0203C68.1047 127.976 68.2734 127.976 68.5125 127.976H69.4266C69.4682 127.966 69.5115 127.966 69.5531 127.976L71.1914 127.919C72.4289 127.877 73.3008 128.25 73.7086 129.03L74.918 130.141C75.1206 130.352 75.2772 130.603 75.3776 130.878C75.4781 131.153 75.5203 131.445 75.5016 131.737V132.398C75.493 132.529 75.493 132.661 75.5016 132.792V132.996C75.5311 133.952 75.6346 134.904 75.8109 135.844C75.9826 136.772 76.086 137.712 76.1203 138.656C76.1203 140.283 73.9102 141.094 69.4899 141.089L65.1375 140.969C64.4836 140.969 63.3727 140.969 61.8047 141.089L59.4211 141.237C58.1836 141.321 57.3117 141.37 56.8407 141.391L55.3078 139.985C55.2754 139.978 55.2418 139.978 55.2094 139.985H55.111L57.2977 109.315L58.0219 109.019ZM56.1235 138.966C60.0281 138.684 62.4914 138.565 63.5133 138.607L65.2078 138.663C66.3422 138.705 67.2141 138.726 67.8234 138.726C71.6531 138.726 73.5703 138.187 73.575 137.109C73.5403 136.166 73.4369 135.226 73.2656 134.297C73.0915 133.368 72.988 132.428 72.9563 131.484V131.421C72.9518 131.351 72.9518 131.28 72.9563 131.21V130.254C72.9563 129.284 72.3727 128.812 71.1914 128.848H69.5602C68.4703 128.883 67.6688 128.904 67.1414 128.904C65.2922 128.904 64.3641 128.728 64.3641 128.362C64.3641 126.019 64.507 122.883 64.793 118.955C65.0977 114.736 65.25 111.598 65.25 109.54H63.7805C61.9093 109.508 60.0389 109.639 58.1906 109.934L56.1235 138.966Z" fill="#EF0000"/>
<path d="M88.7977 129.101C89.026 129.167 89.2631 129.198 89.5008 129.192C90.7664 129.192 91.7156 127.673 92.3695 124.622C92.8198 122.244 93.0248 119.827 92.9813 117.408C92.9476 116.086 92.8443 114.767 92.6719 113.456C92.501 112.143 92.4 110.822 92.3695 109.498C93.307 108.682 95.2477 108.263 98.1914 108.239H101.271H101.306C101.607 108.267 101.895 108.373 102.142 108.547C102.389 108.721 102.586 108.956 102.713 109.23L103.809 110.278C105.005 111.422 105.605 115.09 105.609 121.282C105.609 126.771 104.672 131.201 102.797 134.571C100.313 138.954 96.4383 141.145 91.1742 141.145C87.8414 141.145 85.1484 140.133 83.0953 138.108L82.5117 137.538C78.5133 134.571 76.5117 128.046 76.507 117.963V112.704C76.5269 112.079 76.5879 111.457 76.6898 110.841C76.7672 110.257 76.8094 109.884 76.8094 109.73C76.7671 109.283 76.6966 108.839 76.5984 108.401L84.5227 107.895L86.7516 108.134V108.316L88.1578 109.723V111.523C88.1578 112.845 88.1273 114.839 88.0664 117.506C88.0055 120.173 87.975 122.168 87.975 123.49C88.0031 126.077 88.2633 127.941 88.7977 129.101ZM101.264 109.111H98.1844C95.4422 109.111 93.8016 109.362 93.2625 109.863C93.2625 110.623 93.3961 112.141 93.6563 114.405C93.789 115.392 93.8618 116.385 93.8742 117.38C93.9067 119.86 93.6924 122.338 93.2344 124.777C92.5031 128.306 91.2516 130.071 89.4797 130.071C86.9203 130.071 85.6406 127.373 85.6406 121.978C85.6406 120.037 85.6406 117.858 85.732 115.453C85.8094 112.247 85.8445 110.074 85.8234 108.928L84.4805 108.78L77.6812 109.23C77.7408 109.802 77.7195 110.38 77.618 110.946C77.4773 111.888 77.407 112.472 77.407 112.69V117.949C77.407 123.841 78.0375 128.372 79.2984 131.541C81.225 136.392 84.6703 138.818 89.6344 138.818C94.5985 138.818 98.2266 136.753 100.519 132.623C102.347 129.342 103.263 125.044 103.268 119.728C103.277 112.631 102.609 109.092 101.264 109.111Z" fill="#EF0000"/>
<path d="M120.994 128.109C122.555 128.934 124.87 129.347 127.941 129.347H128.813C128.925 129.347 129.087 129.347 129.312 129.312H129.797L129.867 129.558L131.4 130.908L133.573 136.617L133.27 137.524C129.9 139.938 126.82 141.145 124.031 141.145C120.559 141.219 117.19 139.961 114.616 137.63L114.145 137.208C113.501 136.751 112.899 136.238 112.345 135.675C111.084 134.492 110.079 133.062 109.394 131.473C108.71 129.885 108.359 128.173 108.366 126.443C108.383 121.905 110.018 117.522 112.978 114.082C116.358 109.976 120.555 107.923 125.571 107.923C128.384 107.923 130.261 108.562 131.147 109.842L132.286 110.841C132.631 111.126 132.895 111.497 133.052 111.916L132.349 113.695C132.131 114.258 131.941 114.694 131.78 115.017L131.077 116.55C130.739 117.211 130.451 117.752 130.205 118.174C128.909 118.375 127.626 118.656 126.366 119.018C125.112 119.305 123.9 119.749 122.759 120.34C121.938 120.87 121.307 121.649 120.959 122.562C120.581 123.436 120.387 124.379 120.389 125.332C120.337 126.295 120.546 127.255 120.994 128.109ZM129.08 130.219C125.691 130.298 123.152 130.008 121.465 129.347C119.013 128.381 117.788 126.537 117.788 123.813C117.788 122.735 118.016 121.669 118.455 120.684C118.884 119.647 119.62 118.766 120.565 118.16C121.704 117.576 122.904 117.121 124.144 116.803C125.387 116.407 126.659 116.106 127.948 115.903C128.672 114.656 129.286 113.348 129.783 111.994L130.423 110.369C130.006 109.324 128.391 108.802 125.578 108.802C120.891 108.802 116.96 110.735 113.787 114.602C110.97 117.9 109.417 122.092 109.406 126.429C109.388 128.052 109.705 129.661 110.336 131.156C110.968 132.652 111.901 134.001 113.077 135.119C114.296 136.342 115.751 137.303 117.354 137.943C118.957 138.584 120.674 138.891 122.4 138.846C124.959 138.846 127.854 137.693 131.084 135.387L129.08 130.219Z" fill="#EF0000"/>
<path d="M138.684 108.956C140.449 108.837 142.137 108.661 143.74 108.415L147.347 107.817V108L148.753 109.406V112.169C150.755 109.404 152.337 108.021 153.499 108.021L159.546 110.067C159.521 110.111 159.49 110.151 159.455 110.187L160.896 111.593C157.193 117.368 154.718 121.877 153.471 125.121C154.976 127.329 156.359 129.384 157.62 131.287C159.851 134.677 161.034 137.182 161.17 138.804L155.995 139.648C154.338 139.913 152.695 140.263 151.073 140.695L149.632 139.254C149.612 139.262 149.589 139.262 149.569 139.254C149.548 139.247 149.526 139.247 149.505 139.254L148.366 137.088C147.945 136.287 147.593 135.591 147.312 135.014L147.431 136.484C147.431 136.723 147.431 137.088 147.431 137.566C147.436 138.799 147.18 140.019 146.679 141.145C145.159 141.027 143.633 140.987 142.109 141.026C140.447 141.032 138.792 140.819 137.187 140.393L135.78 138.987H135.689C135.649 138.98 135.609 138.98 135.57 138.987L137.102 125.515C137.6 121.314 137.86 117.089 137.883 112.859V111.326C137.857 110.54 137.789 109.756 137.679 108.977L138.684 108.956ZM138.839 112.901C138.818 117.171 138.558 121.436 138.059 125.677L136.61 138.396C137.921 138.703 139.265 138.844 140.611 138.818C143.22 138.818 144.57 138.818 144.668 138.818C145 137.965 145.153 137.053 145.118 136.139C145.118 135.738 145.118 135.401 145.118 135.119L144.907 132.173C144.872 131.611 144.851 131.273 144.851 131.147C144.831 130.211 144.962 129.278 145.237 128.384C146.559 131.491 148.144 134.773 149.991 138.227C151.214 137.904 152.686 137.602 154.406 137.32L158.829 136.617C158.749 135.68 157.627 133.554 155.461 130.24C153.792 127.694 152.339 125.519 151.102 123.715C152.344 120.312 154.699 115.922 158.168 110.545L153.33 108.893C152.163 108.893 149.967 111.56 146.742 116.894C146.742 116.248 146.742 115.748 146.742 115.39L146.623 113.28C146.538 111.874 146.503 110.679 146.503 109.673V108.872C143.123 109.411 140.587 109.741 138.895 109.863L138.839 112.901Z" fill="#EF0000"/>
<path d="M110.679 26.7259C110.873 26.5336 111.021 26.2991 111.11 26.0405C111.199 25.782 111.227 25.5064 111.192 25.2352C111.45 25.2678 111.713 25.2441 111.961 25.1659C112.209 25.0877 112.437 24.9568 112.63 24.7822C112.823 24.6075 112.976 24.3933 113.079 24.1541C113.181 23.9148 113.231 23.6563 113.224 23.3961C113.218 23.136 113.155 22.8803 113.04 22.6467C112.926 22.413 112.762 22.2068 112.56 22.0423C112.359 21.8778 112.124 21.7587 111.872 21.6933C111.62 21.6279 111.357 21.6177 111.101 21.6634C111.168 21.2854 111.113 20.8958 110.943 20.5515C110.773 20.2071 110.498 19.9261 110.157 19.7494C109.816 19.5727 109.428 19.5096 109.049 19.5693C108.669 19.629 108.319 19.8084 108.049 20.0813C107.854 20.2733 107.707 20.5078 107.618 20.7664C107.529 21.025 107.501 21.3007 107.536 21.572C107.278 21.5395 107.016 21.5631 106.767 21.6413C106.519 21.7195 106.291 21.8504 106.098 22.025C105.905 22.1997 105.752 22.4139 105.649 22.6532C105.547 22.8924 105.497 23.1509 105.504 23.4111C105.51 23.6713 105.573 23.9269 105.688 24.1606C105.802 24.3942 105.966 24.6004 106.168 24.7649C106.369 24.9295 106.604 25.0485 106.856 25.1139C107.108 25.1793 107.371 25.1895 107.627 25.1438C107.56 25.5218 107.615 25.9114 107.785 26.2558C107.955 26.6001 108.23 26.8812 108.571 27.0579C108.912 27.2346 109.3 27.2977 109.679 27.2379C110.059 27.1782 110.409 26.9988 110.679 26.7259ZM109.104 23.147C109.279 23.1717 109.456 23.1717 109.631 23.147C109.607 23.3219 109.607 23.4994 109.631 23.6743C109.459 23.6497 109.283 23.6497 109.111 23.6743C109.133 23.4991 109.131 23.3216 109.104 23.147Z" fill="black"/>
<path d="M82.807 31.1837C82.925 30.9367 82.9862 30.6664 82.9862 30.3927C82.9862 30.1189 82.925 29.8487 82.807 29.6016C83.0732 29.5409 83.3218 29.4199 83.5339 29.2481C83.746 29.0762 83.9159 28.858 84.0305 28.6103C84.1951 28.263 84.2444 27.8722 84.1709 27.495C84.0975 27.1178 83.9053 26.774 83.6224 26.5139C83.3395 26.2538 82.9808 26.091 82.5988 26.0495C82.2167 26.0079 81.8314 26.0897 81.4992 26.2829C81.4547 26.0265 81.3554 25.7827 81.208 25.5683C81.0606 25.3538 80.8687 25.1737 80.6453 25.0403C80.4218 24.9068 80.1722 24.8232 79.9135 24.7952C79.6548 24.7671 79.3931 24.7953 79.1462 24.8777C78.8994 24.9602 78.6733 25.095 78.4834 25.2729C78.2935 25.4508 78.1442 25.6676 78.0458 25.9085C77.9474 26.1494 77.9023 26.4088 77.9134 26.6688C77.9245 26.9288 77.9916 27.1833 78.1101 27.4149C77.8606 27.476 77.6271 27.5898 77.4252 27.7487C77.2234 27.9075 77.0578 28.1077 76.9397 28.3359C76.8217 28.564 76.7538 28.8148 76.7406 29.0713C76.7275 29.3278 76.7695 29.5842 76.8636 29.8232C76.9578 30.0622 77.1021 30.2783 77.2867 30.4569C77.4713 30.6355 77.692 30.7725 77.9339 30.8588C78.1759 30.945 78.4335 30.9785 78.6895 30.9569C78.9455 30.9353 79.1939 30.8592 79.418 30.7337C79.4847 31.1121 79.6704 31.4594 79.9479 31.7251C80.2255 31.9909 80.5806 32.1612 80.9616 32.2114C81.3426 32.2615 81.7296 32.1889 82.0665 32.0041C82.4035 31.8193 82.6727 31.5319 82.8351 31.1837H82.807ZM80.1 28.3712C80.2731 28.3308 80.439 28.2644 80.5922 28.1743C80.6196 28.3491 80.6767 28.518 80.7609 28.6735C80.5879 28.7139 80.4219 28.7803 80.2687 28.8704C80.2361 28.6924 80.1793 28.5198 80.1 28.3571V28.3712Z" fill="white"/>
<path d="M79.6922 24.7922C79.3486 24.7927 79.0122 24.8908 78.7222 25.075C78.4322 25.2593 78.2004 25.5221 78.0539 25.8329C77.9359 26.0799 77.8747 26.3501 77.8747 26.6239C77.8747 26.8976 77.9359 27.1679 78.0539 27.4149C77.6878 27.4988 77.357 27.6952 77.1081 27.9766C76.8592 28.2579 76.7045 28.61 76.6657 28.9837C76.627 29.3573 76.7061 29.7337 76.892 30.0601C77.0778 30.3866 77.3612 30.6467 77.7023 30.804C77.9394 30.9171 78.1991 30.9748 78.4617 30.9727C78.7773 30.9717 79.0873 30.8894 79.3617 30.7336C79.4121 31.019 79.5304 31.2881 79.7066 31.5182C79.8829 31.7482 80.1118 31.9325 80.3742 32.0555C80.6146 32.1662 80.876 32.2237 81.1406 32.2243C81.4499 32.2258 81.7544 32.1477 82.0247 31.9974C82.295 31.8471 82.5219 31.6296 82.6838 31.3661C82.8456 31.1025 82.9368 30.8017 82.9485 30.4926C82.9602 30.1836 82.8921 29.8767 82.7508 29.6016C83.0169 29.5408 83.2656 29.4199 83.4777 29.248C83.6898 29.0762 83.8596 28.858 83.9742 28.6102C84.0751 28.3951 84.1326 28.1622 84.1433 27.9249C84.1541 27.6875 84.1179 27.4504 84.037 27.2271C83.956 27.0037 83.8318 26.7985 83.6714 26.6232C83.511 26.448 83.3176 26.306 83.1024 26.2055C82.8642 26.0957 82.6053 26.0381 82.343 26.0368C82.0262 26.0359 81.7152 26.1209 81.443 26.2829C81.3674 25.8657 81.1481 25.4882 80.8231 25.2159C80.4981 24.9435 80.088 24.7937 79.6641 24.7922H79.6922ZM80.2688 28.8563C80.2349 28.6831 80.1781 28.5153 80.1 28.3571C80.2731 28.3167 80.439 28.2503 80.5922 28.1602C80.6196 28.335 80.6767 28.5038 80.761 28.6594C80.5879 28.6998 80.4219 28.7662 80.2688 28.8563Z" fill="#EF0000"/>
<path d="M58.1344 44.9015C58.1582 44.6283 58.1193 44.3532 58.0206 44.0973C57.9219 43.8414 57.766 43.6114 57.5648 43.425C57.7866 43.2854 57.9753 43.0993 58.118 42.8796C58.2607 42.6598 58.3538 42.4117 58.3911 42.1523C58.4283 41.893 58.4087 41.6286 58.3336 41.3776C58.2584 41.1266 58.1296 40.8949 57.9561 40.6986C57.7825 40.5024 57.5684 40.3462 57.3285 40.2409C57.0885 40.1356 56.8286 40.0838 56.5666 40.0889C56.3047 40.0941 56.047 40.1562 55.8114 40.2709C55.5758 40.3856 55.368 40.5501 55.2023 40.7531C55.0095 40.4221 54.7164 40.1609 54.3654 40.0073C54.0145 39.8537 53.6238 39.8156 53.2497 39.8986C52.8757 39.9815 52.5377 40.1812 52.2846 40.4688C52.0314 40.7563 51.8762 41.1169 51.8414 41.4984C51.8177 41.771 51.856 42.0455 51.9534 42.3012C52.0509 42.5569 52.2048 42.7872 52.4039 42.975C52.1846 43.116 51.9983 43.3028 51.858 43.5226C51.7177 43.7424 51.6266 43.99 51.591 44.2483C51.5554 44.5066 51.5761 44.7696 51.6518 45.0191C51.7274 45.2687 51.8561 45.4989 52.0291 45.694C52.2022 45.8891 52.4153 46.0444 52.6541 46.1493C52.8928 46.2542 53.1514 46.3062 53.4121 46.3018C53.6729 46.2973 53.9295 46.2364 54.1645 46.1234C54.3995 46.0103 54.6072 45.8478 54.7734 45.6469C54.9172 45.8992 55.1204 46.1125 55.3656 46.2681C55.6107 46.4238 55.8902 46.5171 56.1797 46.5398C56.6559 46.5808 57.129 46.4314 57.4954 46.1244C57.8617 45.8173 58.0915 45.3776 58.1344 44.9015ZM54.6187 43.1648C54.7672 43.0713 54.9001 42.9551 55.0125 42.8203C55.1006 42.9727 55.2121 43.1103 55.343 43.2281C55.1958 43.3262 55.0633 43.4445 54.9492 43.5797C54.8591 43.4284 54.7505 43.2891 54.6258 43.1648H54.6187Z" fill="white"/>
<path d="M53.6344 39.853C53.2732 39.8548 52.9209 39.9648 52.6228 40.1688C52.3248 40.3728 52.0947 40.6614 51.9623 40.9974C51.8299 41.3334 51.8012 41.7014 51.8799 42.0539C51.9586 42.4063 52.1411 42.7272 52.4039 42.9749C52.0898 43.1805 51.8476 43.4789 51.7109 43.8285C51.5741 44.1781 51.5497 44.5617 51.6409 44.9258C51.7321 45.29 51.9345 45.6167 52.2199 45.8606C52.5054 46.1044 52.8597 46.2533 53.2336 46.2866H53.3953C53.6627 46.2882 53.9273 46.2311 54.1703 46.1193C54.4132 46.0076 54.6287 45.8439 54.8015 45.6397C54.9453 45.892 55.1486 46.1053 55.3937 46.261C55.6388 46.4166 55.9183 46.5099 56.2078 46.5327H56.3695C56.7323 46.5345 57.0872 46.4266 57.3875 46.2231C57.6879 46.0197 57.9198 45.7303 58.0529 45.3928C58.1859 45.0552 58.2138 44.6854 58.133 44.3317C58.0522 43.9781 57.8664 43.6571 57.6 43.4108C57.9141 43.2052 58.1563 42.9068 58.293 42.5572C58.4298 42.2076 58.4542 41.824 58.363 41.4599C58.2717 41.0957 58.0694 40.769 57.7839 40.5252C57.4985 40.2813 57.1442 40.1324 56.7703 40.0991H56.6156C56.3476 40.094 56.0819 40.1496 55.8384 40.2616C55.5949 40.3736 55.3799 40.5392 55.2094 40.746C55.0647 40.4945 54.8612 40.2818 54.6162 40.1263C54.3713 39.9708 54.0923 39.877 53.8031 39.853H53.6344ZM54.9562 43.5796C54.864 43.4279 54.7529 43.2886 54.6258 43.1647C54.7743 43.0712 54.9071 42.955 55.0195 42.8202C55.1076 42.9726 55.2191 43.1102 55.35 43.228C55.2028 43.3261 55.0703 43.4444 54.9562 43.5796Z" fill="#EF0000"/>
<path d="M39.6422 66.2273C39.5691 65.9639 39.4376 65.7202 39.2574 65.5145C39.0773 65.3088 38.8531 65.1463 38.6016 65.0391C38.76 64.8319 38.8718 64.593 38.9291 64.3386C38.9865 64.0842 38.9881 63.8204 38.9339 63.5654C38.8797 63.3103 38.7709 63.07 38.6151 62.8609C38.4592 62.6519 38.2599 62.479 38.0309 62.3543C37.8019 62.2295 37.5487 62.1558 37.2885 62.1382C37.0283 62.1205 36.7674 62.1594 36.5237 62.2522C36.28 62.3449 36.0592 62.4893 35.8766 62.6754C35.6939 62.8616 35.5537 63.085 35.4656 63.3304C35.1709 63.084 34.8052 62.9379 34.4218 62.9135C34.0383 62.889 33.6571 62.9873 33.3333 63.1943C33.0096 63.4012 32.7603 63.7059 32.6215 64.0642C32.4827 64.4225 32.4618 64.8157 32.5617 65.1867C32.6334 65.4509 32.7644 65.6952 32.9447 65.9011C33.1251 66.107 33.35 66.2691 33.6023 66.375C33.4439 66.5821 33.3322 66.8211 33.2748 67.0754C33.2174 67.3298 33.2158 67.5936 33.27 67.8487C33.3242 68.1037 33.433 68.344 33.5889 68.5531C33.7447 68.7622 33.944 68.935 34.173 69.0598C34.402 69.1845 34.6553 69.2583 34.9154 69.2759C35.1756 69.2935 35.4365 69.2546 35.6802 69.1618C35.9239 69.0691 36.1447 68.9247 36.3273 68.7386C36.51 68.5525 36.6502 68.329 36.7383 68.0836C37.0331 68.33 37.3987 68.4761 37.7821 68.5006C38.1656 68.5251 38.5468 68.4267 38.8706 68.2198C39.1943 68.0128 39.4436 67.7081 39.5824 67.3498C39.7212 66.9915 39.7421 66.5983 39.6422 66.2273ZM35.7539 65.8055C35.8576 65.6633 35.9405 65.507 36 65.3414C36.1371 65.4525 36.2884 65.5447 36.45 65.6156C36.3434 65.756 36.2603 65.9127 36.2039 66.0797C36.0685 65.9662 35.9168 65.8737 35.7539 65.8055Z" fill="white"/>
<path d="M37.1601 62.1492C37.0033 62.1495 36.8472 62.1708 36.6961 62.2125C36.4165 62.2867 36.1588 62.427 35.9446 62.6216C35.7305 62.8161 35.5662 63.0592 35.4656 63.3304C35.2414 63.1485 34.9779 63.0213 34.6959 62.959C34.414 62.8968 34.1214 62.9012 33.8414 62.9719C33.4768 63.0669 33.1512 63.2739 32.9105 63.5637C32.6698 63.8536 32.5261 64.2117 32.4997 64.5875C32.4733 64.9634 32.5655 65.3381 32.7633 65.6587C32.9611 65.9794 33.2546 66.2299 33.6023 66.375C33.3988 66.6424 33.2743 66.9615 33.2428 67.2961C33.2113 67.6307 33.2741 67.9675 33.4241 68.2682C33.5741 68.569 33.8054 68.8217 34.0916 68.9979C34.3778 69.174 34.7077 69.2664 35.0437 69.2648C35.2003 69.267 35.3563 69.248 35.5078 69.2085C35.7879 69.1331 36.0458 68.9915 36.2599 68.7958C36.474 68.6 36.6381 68.3558 36.7383 68.0835C37.0641 68.355 37.4744 68.5042 37.8984 68.5054C38.0552 68.5051 38.2113 68.4838 38.3625 68.4421C38.7271 68.3471 39.0527 68.1401 39.2934 67.8503C39.5341 67.5604 39.6778 67.2023 39.7042 66.8264C39.7306 66.4506 39.6384 66.0759 39.4406 65.7552C39.2427 65.4346 38.9493 65.1841 38.6015 65.039C38.805 64.7716 38.9296 64.4524 38.9611 64.1178C38.9926 63.7832 38.9298 63.4465 38.7797 63.1457C38.6297 62.845 38.3985 62.5923 38.1123 62.4161C37.826 62.24 37.4962 62.1475 37.1601 62.1492ZM36.2039 66.0796C36.0685 65.9661 35.9168 65.8737 35.7539 65.8054C35.8576 65.6632 35.9405 65.507 36 65.3414C36.1371 65.4525 36.2884 65.5447 36.45 65.6156C36.3434 65.756 36.2603 65.9127 36.2039 66.0796Z" fill="#EF0000"/>
<path d="M29.5594 92.6297C29.4008 92.4013 29.1911 92.2131 28.947 92.08C28.7028 91.947 28.431 91.8727 28.1531 91.8633C28.2643 91.5043 28.2603 91.1196 28.1418 90.763C28.0233 90.4064 27.7961 90.0959 27.4922 89.8749C27.1883 89.6539 26.8228 89.5336 26.447 89.5308C26.0713 89.528 25.7041 89.6429 25.3969 89.8594C25.1572 90.0236 24.9613 90.244 24.8265 90.5014C24.6917 90.7588 24.622 91.0454 24.6234 91.3359C24.262 91.197 23.8654 91.1783 23.4926 91.2826C23.1197 91.3869 22.7904 91.6087 22.5535 91.915C22.3167 92.2213 22.1849 92.5959 22.1778 92.983C22.1707 93.3701 22.2886 93.7493 22.5141 94.0641C22.673 94.2921 22.8828 94.48 23.1269 94.613C23.3709 94.746 23.6425 94.8205 23.9203 94.8305C23.8345 95.081 23.8048 95.3474 23.8333 95.6108C23.8619 95.8741 23.948 96.1279 24.0855 96.3543C24.223 96.5807 24.4086 96.774 24.6292 96.9207C24.8498 97.0674 25.0998 97.1638 25.3618 97.203C25.6237 97.2423 25.8911 97.2236 26.145 97.1481C26.3989 97.0726 26.633 96.9422 26.8309 96.7661C27.0288 96.59 27.1856 96.3726 27.2902 96.1293C27.3947 95.8859 27.4445 95.6225 27.4359 95.3578C27.7968 95.4913 28.1909 95.5061 28.5608 95.4001C28.9307 95.2941 29.2571 95.0728 29.4925 94.7683C29.7278 94.4639 29.8599 94.0923 29.8694 93.7077C29.8789 93.323 29.7654 92.9453 29.5453 92.6297H29.5594ZM25.7344 93.5226C25.788 93.3545 25.8141 93.1788 25.8117 93.0023C25.9784 93.065 26.1541 93.1006 26.332 93.1078C26.2818 93.2767 26.2557 93.4519 26.2547 93.6281C26.0861 93.5722 25.9114 93.5367 25.7344 93.5226Z" fill="white"/>
<path d="M26.4375 89.5007C26.0667 89.4991 25.705 89.6148 25.4039 89.8312C25.1642 89.9955 24.9684 90.2159 24.8335 90.4733C24.6987 90.7307 24.629 91.0172 24.6305 91.3078C24.433 91.232 24.2232 91.1939 24.0117 91.1953C23.6433 91.1947 23.284 91.3103 22.9851 91.5258C22.6765 91.7399 22.4426 92.0453 22.3162 92.3991C22.1898 92.7529 22.1773 93.1374 22.2804 93.4986C22.3835 93.8599 22.5971 94.1799 22.8912 94.4137C23.1852 94.6474 23.5451 94.7833 23.9203 94.8023C23.8345 95.0529 23.8048 95.3193 23.8333 95.5826C23.8619 95.846 23.948 96.0998 24.0855 96.3262C24.223 96.5525 24.4086 96.7459 24.6292 96.8926C24.8497 97.0393 25.0998 97.1356 25.3618 97.1749C25.6237 97.2142 25.8911 97.1955 26.145 97.1199C26.3989 97.0444 26.633 96.914 26.8309 96.738C27.0288 96.5619 27.1856 96.3445 27.2901 96.1012C27.3947 95.8578 27.4445 95.5944 27.4359 95.3297C27.6342 95.4022 27.8435 95.4403 28.0547 95.4422C28.4253 95.4428 28.7868 95.3273 29.0883 95.1117C29.3973 94.8972 29.6313 94.5912 29.7575 94.2367C29.8836 93.8823 29.8955 93.4973 29.7916 93.1357C29.6876 92.7742 29.473 92.4543 29.1778 92.221C28.8827 91.9877 28.5219 91.8528 28.1461 91.8351C28.2284 91.5655 28.2464 91.2803 28.1988 91.0024C28.1511 90.7245 28.0391 90.4617 27.8717 90.2348C27.7043 90.0079 27.4861 89.8234 27.2347 89.696C26.9832 89.5685 26.7054 89.5016 26.4234 89.5007H26.4375ZM26.2617 93.6281C26.0931 93.5722 25.9184 93.5367 25.7414 93.5226C25.795 93.3545 25.8211 93.1788 25.8187 93.0023C25.9855 93.065 26.1611 93.1006 26.3391 93.1078C26.2888 93.2767 26.2628 93.4519 26.2617 93.6281Z" fill="#EF0000"/>
<path d="M29.1023 120.825C28.8778 120.669 28.6206 120.565 28.3502 120.522C28.0798 120.48 27.8032 120.499 27.5414 120.579C27.5147 120.33 27.4365 120.09 27.3118 119.873C27.1871 119.656 27.0185 119.468 26.8169 119.32C26.6153 119.172 26.3851 119.068 26.1409 119.014C25.8967 118.959 25.6439 118.957 25.3987 119.006C25.1534 119.055 24.9211 119.155 24.7165 119.298C24.5119 119.442 24.3395 119.627 24.2103 119.841C24.0812 120.055 23.998 120.294 23.9663 120.542C23.9345 120.79 23.9548 121.042 24.0258 121.282C23.7611 121.274 23.4977 121.323 23.2543 121.428C23.0109 121.532 22.7935 121.689 22.6175 121.887C22.4414 122.085 22.311 122.319 22.2355 122.573C22.16 122.827 22.1413 123.094 22.1805 123.356C22.2198 123.618 22.3162 123.868 22.4629 124.089C22.6096 124.309 22.8029 124.495 23.0293 124.633C23.2557 124.77 23.5095 124.856 23.7728 124.885C24.0362 124.913 24.3026 124.884 24.5531 124.798C24.5798 125.046 24.658 125.287 24.7827 125.504C24.9075 125.72 25.076 125.909 25.2776 126.057C25.4792 126.205 25.7095 126.309 25.9537 126.363C26.1978 126.417 26.4506 126.42 26.6959 126.371C26.9411 126.322 27.1735 126.222 27.3781 126.078C27.5827 125.935 27.755 125.75 27.8842 125.535C28.0134 125.321 28.0965 125.083 28.1283 124.834C28.1601 124.586 28.1398 124.334 28.0688 124.095C28.4518 124.093 28.8244 123.97 29.1328 123.742C29.4412 123.515 29.6693 123.196 29.7843 122.83C29.8993 122.465 29.8953 122.072 29.7727 121.709C29.6501 121.346 29.4154 121.032 29.1023 120.811V120.825ZM25.8469 122.998C25.8396 122.82 25.804 122.644 25.7414 122.477C25.92 122.477 26.0975 122.451 26.2687 122.4C26.276 122.578 26.3116 122.754 26.3742 122.92C26.1954 122.917 26.0173 122.944 25.8469 122.998Z" fill="white"/>
<path d="M25.7344 118.87C25.4444 118.87 25.1585 118.939 24.9011 119.073C24.6437 119.206 24.4223 119.4 24.2559 119.638C24.0895 119.875 23.983 120.149 23.9454 120.437C23.9077 120.724 23.9401 121.017 24.0398 121.289C23.7935 121.274 23.5467 121.309 23.3145 121.393C23.0823 121.476 22.8697 121.607 22.6899 121.776C22.51 121.945 22.3667 122.149 22.2687 122.375C22.1707 122.602 22.1201 122.846 22.1201 123.093C22.1201 123.339 22.1707 123.584 22.2687 123.81C22.3667 124.037 22.51 124.241 22.6899 124.41C22.8697 124.579 23.0823 124.709 23.3145 124.793C23.5467 124.876 23.7935 124.911 24.0398 124.896C24.2186 124.898 24.3965 124.872 24.5672 124.819C24.5939 125.067 24.6721 125.308 24.7968 125.525C24.9215 125.741 25.0901 125.93 25.2917 126.078C25.4933 126.226 25.7235 126.33 25.9677 126.384C26.2119 126.438 26.4647 126.441 26.7099 126.392C26.9552 126.343 27.1875 126.243 27.3921 126.099C27.5967 125.955 27.7691 125.771 27.8983 125.556C28.0274 125.342 28.1106 125.104 28.1423 124.855C28.1741 124.607 28.1538 124.355 28.0828 124.116C28.3291 124.131 28.576 124.096 28.8082 124.012C29.0403 123.928 29.2529 123.798 29.4328 123.629C29.6126 123.46 29.756 123.256 29.854 123.03C29.952 122.803 30.0025 122.559 30.0025 122.312C30.0025 122.065 29.952 121.821 29.854 121.595C29.756 121.368 29.6126 121.164 29.4328 120.995C29.2529 120.826 29.0403 120.696 28.8082 120.612C28.576 120.528 28.3291 120.493 28.0828 120.509C27.9041 120.507 27.7261 120.533 27.5555 120.586C27.532 120.125 27.3321 119.69 26.997 119.372C26.662 119.054 26.2174 118.877 25.7555 118.877L25.7344 118.87ZM25.8398 122.998C25.8326 122.82 25.797 122.644 25.7344 122.477C25.9129 122.477 26.0905 122.451 26.2617 122.4C26.269 122.578 26.3046 122.754 26.3672 122.92C26.1884 122.917 26.0103 122.944 25.8398 122.998Z" fill="#EF0000"/>
<path d="M38.3273 147.473C38.0634 147.404 37.7872 147.395 37.5193 147.448C37.2515 147.5 36.999 147.612 36.7805 147.776C36.411 147.254 35.9004 146.848 35.3086 146.605C34.7169 146.363 34.0682 146.294 33.4386 146.406C32.8091 146.519 32.2245 146.808 31.7535 147.241C31.2824 147.673 30.9442 148.231 30.7785 148.849C30.6128 149.467 30.6264 150.119 30.8177 150.729C31.009 151.339 31.3702 151.882 31.8589 152.295C32.3476 152.708 32.9437 152.973 33.5774 153.059C34.2111 153.145 34.8563 153.049 35.4375 152.782C36.1288 153.056 36.8965 153.067 37.5956 152.814C38.2947 152.56 38.8769 152.06 39.2324 151.407C39.5879 150.754 39.6922 149.993 39.5254 149.269C39.3587 148.544 38.9325 147.905 38.3273 147.473ZM36.014 150.63C35.964 150.622 35.9164 150.602 35.8742 150.574C35.832 150.546 35.7961 150.509 35.7688 150.467C35.7416 150.424 35.7235 150.376 35.7159 150.325C35.7082 150.275 35.7111 150.224 35.7243 150.175C35.7376 150.126 35.7609 150.08 35.7928 150.041C35.8246 150.001 35.8644 149.969 35.9095 149.945C35.9546 149.922 36.0041 149.908 36.0548 149.905C36.1055 149.902 36.1563 149.91 36.2039 149.927C36.2539 149.936 36.3015 149.955 36.3438 149.983C36.386 150.012 36.4219 150.048 36.4491 150.091C36.4764 150.134 36.4944 150.182 36.5021 150.232C36.5097 150.282 36.5069 150.334 36.4936 150.383C36.4804 150.432 36.4571 150.477 36.4252 150.517C36.3933 150.556 36.3535 150.589 36.3084 150.612C36.2633 150.636 36.2138 150.649 36.1631 150.652C36.1125 150.655 36.0617 150.648 36.014 150.63Z" fill="white"/>
<path d="M35.1211 146.707C34.7418 148.339 33.8646 149.814 32.6109 150.926C32.499 151.383 32.5702 151.866 32.8092 152.272C33.0482 152.678 33.4363 152.974 33.8906 153.098C34.0428 153.134 34.1984 153.153 34.3547 153.155C34.7449 153.155 35.1247 153.029 35.4375 152.796C35.545 153.048 35.7085 153.272 35.9157 153.451C36.1228 153.63 36.3681 153.76 36.6328 153.83C36.784 153.871 36.9401 153.893 37.0969 153.893C37.4425 153.897 37.782 153.802 38.0751 153.619C38.3682 153.436 38.6027 153.172 38.7507 152.86C38.8987 152.548 38.9541 152.199 38.9102 151.857C38.8663 151.514 38.725 151.191 38.5031 150.926C38.7755 150.828 39.02 150.665 39.216 150.452C39.4119 150.239 39.5533 149.982 39.6281 149.702C39.6898 149.473 39.7055 149.233 39.6746 148.998C39.6436 148.762 39.5665 148.535 39.4476 148.33C39.3287 148.124 39.1705 147.944 38.9819 147.799C38.7933 147.655 38.578 147.549 38.3484 147.487C38.1963 147.452 38.0407 147.433 37.8844 147.431C37.4942 147.431 37.1143 147.557 36.8016 147.79C36.6895 147.537 36.5209 147.314 36.3087 147.137C36.0966 146.961 35.8466 146.835 35.5781 146.77C35.427 146.729 35.2709 146.707 35.1141 146.707H35.1211ZM36.0141 150.659C35.964 150.65 35.9164 150.631 35.8742 150.602C35.832 150.574 35.7961 150.538 35.7688 150.495C35.7416 150.452 35.7235 150.404 35.7159 150.354C35.7082 150.303 35.7111 150.252 35.7243 150.203C35.7376 150.154 35.7609 150.108 35.7928 150.069C35.8246 150.029 35.8644 149.997 35.9095 149.974C35.9546 149.95 36.0041 149.937 36.0548 149.934C36.1055 149.93 36.1563 149.938 36.2039 149.955C36.2539 149.964 36.3016 149.983 36.3438 150.012C36.386 150.04 36.4219 150.076 36.4491 150.119C36.4764 150.162 36.4944 150.21 36.5021 150.26C36.5097 150.311 36.5069 150.362 36.4936 150.411C36.4804 150.46 36.4571 150.506 36.4252 150.545C36.3933 150.585 36.3536 150.617 36.3084 150.64C36.2633 150.664 36.2138 150.677 36.1632 150.68C36.1125 150.684 36.0617 150.676 36.0141 150.659Z" fill="#EF0000"/>
<path d="M56.1234 169.418C55.851 169.441 55.5876 169.527 55.3535 169.669C55.1195 169.81 54.921 170.003 54.7734 170.233C54.2493 169.874 53.6338 169.671 52.9986 169.647C52.3633 169.624 51.7346 169.782 51.1856 170.102C50.6366 170.423 50.1899 170.892 49.8976 171.457C49.6054 172.021 49.4795 172.657 49.5347 173.29C49.5899 173.924 49.8239 174.528 50.2095 175.033C50.5951 175.539 51.1163 175.924 51.7125 176.145C52.3086 176.365 52.9552 176.412 53.5768 176.279C54.1984 176.146 54.7695 175.839 55.2234 175.394C55.4029 175.578 55.6195 175.722 55.8588 175.815C56.098 175.908 56.3545 175.95 56.611 175.936C56.8675 175.923 57.1182 175.855 57.3463 175.737C57.5745 175.619 57.7748 175.453 57.9341 175.252C58.0933 175.05 58.2077 174.817 58.2697 174.568C58.3317 174.319 58.3399 174.059 58.2936 173.806C58.2474 173.554 58.1478 173.314 58.0015 173.103C57.8552 172.892 57.6656 172.714 57.4453 172.582C57.6673 172.397 57.841 172.161 57.9513 171.894C58.0615 171.627 58.1051 171.337 58.0781 171.049C58.0335 170.574 57.803 170.136 57.4368 169.831C57.0707 169.525 56.5986 169.377 56.1234 169.418ZM55.0266 173.173C54.907 173.046 54.7696 172.937 54.6187 172.849C54.7499 172.73 54.8657 172.596 54.9633 172.448C55.0836 172.579 55.2235 172.691 55.3781 172.779C55.243 172.893 55.1246 173.025 55.0266 173.173Z" fill="white"/>
<path d="M56.2851 169.411H56.1234C55.851 169.434 55.5876 169.52 55.3535 169.662C55.1194 169.803 54.921 169.996 54.7734 170.226C54.6029 170.047 54.3978 169.905 54.1707 169.807C53.9435 169.709 53.6989 169.658 53.4516 169.657H53.2969C53.1121 171.366 52.6365 173.03 51.8906 174.579C51.9293 175.028 52.135 175.446 52.467 175.75C52.7989 176.055 53.233 176.224 53.6836 176.224H53.8594C54.1319 176.2 54.3955 176.115 54.6305 175.975C54.8655 175.835 55.0658 175.644 55.2164 175.416C55.3851 175.595 55.5888 175.738 55.815 175.836C56.0411 175.934 56.2848 175.985 56.5312 175.985H56.6719C57.0534 175.95 57.414 175.795 57.7015 175.542C57.9891 175.289 58.1888 174.951 58.2717 174.577C58.3547 174.203 58.3166 173.812 58.163 173.461C58.0094 173.11 57.7482 172.817 57.4172 172.624C57.6392 172.439 57.8129 172.203 57.9231 171.936C58.0334 171.669 58.0769 171.379 58.05 171.091C58.0129 170.641 57.808 170.221 57.4759 169.915C57.1437 169.609 56.7087 169.439 56.257 169.439L56.2851 169.411ZM55.0266 173.173C54.907 173.046 54.7696 172.937 54.6187 172.849C54.7499 172.731 54.8657 172.596 54.9633 172.448C55.0836 172.579 55.2235 172.691 55.3781 172.779C55.243 172.893 55.1246 173.025 55.0266 173.173Z" fill="#EF0000"/>
<path d="M80.3391 183.93C80.0913 184.045 79.8731 184.215 79.7012 184.427C79.5294 184.639 79.4084 184.888 79.3477 185.154C79.1007 185.036 78.8304 184.975 78.5566 184.975C78.2829 184.975 78.0126 185.036 77.7656 185.154C78.1851 186.811 78.3136 188.529 78.1453 190.23C78.3026 190.572 78.5627 190.855 78.8891 191.041C79.2156 191.227 79.592 191.306 79.9656 191.267C80.3393 191.228 80.6914 191.074 80.9727 190.825C81.2541 190.576 81.4504 190.245 81.5344 189.879C82.2484 189.653 82.8536 189.17 83.2338 188.525C83.6139 187.88 83.7422 187.116 83.594 186.382C83.4457 185.648 83.0314 184.994 82.4307 184.547C81.8299 184.1 81.085 183.89 80.3391 183.959V183.93ZM80.5922 187.833C80.4366 187.748 80.2678 187.691 80.093 187.664C80.1831 187.511 80.2495 187.345 80.2898 187.172C80.448 187.25 80.6159 187.307 80.7891 187.341C80.694 187.493 80.6229 187.659 80.5781 187.833H80.5922Z" fill="white"/>
<path d="M81.1055 183.755C80.6973 183.758 80.302 183.899 79.9833 184.154C79.6645 184.409 79.4406 184.763 79.3477 185.161C79.1012 185.041 78.8307 184.979 78.5566 184.979C78.2826 184.979 78.0121 185.041 77.7656 185.161C78.1851 186.818 78.3136 188.536 78.1453 190.237C78.2899 190.548 78.5202 190.811 78.8092 190.996C79.0982 191.18 79.4338 191.278 79.7766 191.278C80.0569 191.273 80.3319 191.201 80.5781 191.067C80.8259 190.952 81.0441 190.783 81.216 190.571C81.3878 190.358 81.5088 190.11 81.5695 189.844C81.8248 189.972 82.1064 190.04 82.3922 190.041C82.6554 190.04 82.915 189.98 83.1516 189.865C82.7271 188.21 82.6009 186.494 82.7789 184.795C82.6334 184.483 82.4021 184.219 82.112 184.033C81.8219 183.848 81.485 183.749 81.1406 183.748L81.1055 183.755ZM80.5922 187.833C80.4366 187.748 80.2678 187.691 80.093 187.664C80.1831 187.511 80.2495 187.345 80.2898 187.172C80.448 187.25 80.6159 187.307 80.7891 187.341C80.6989 187.494 80.6326 187.66 80.5922 187.833Z" fill="#EF0000"/>
<path d="M108.063 189.274C108.096 189.546 108.067 189.822 107.977 190.081C107.888 190.34 107.741 190.575 107.547 190.769C107.353 190.963 107.118 191.11 106.859 191.199C106.6 191.289 106.324 191.318 106.052 191.285C107.023 192.696 107.737 194.267 108.162 195.926C109.598 195.078 111.13 194.403 112.725 193.915C111.754 192.504 111.04 190.933 110.616 189.274C110.277 188.936 109.818 188.747 109.339 188.747C108.861 188.747 108.402 188.936 108.063 189.274ZM109.631 192.86C109.599 192.901 109.559 192.934 109.513 192.959C109.468 192.983 109.417 192.997 109.366 193C109.314 193.003 109.262 192.995 109.214 192.977C109.165 192.958 109.121 192.93 109.085 192.893C109.048 192.857 109.02 192.813 109.002 192.764C108.983 192.716 108.975 192.664 108.978 192.613C108.982 192.561 108.996 192.511 109.02 192.465C109.044 192.419 109.077 192.379 109.118 192.347C109.15 192.306 109.19 192.273 109.236 192.249C109.282 192.225 109.332 192.211 109.384 192.207C109.435 192.204 109.487 192.212 109.536 192.23C109.584 192.249 109.628 192.277 109.664 192.314C109.701 192.35 109.729 192.394 109.748 192.443C109.766 192.491 109.774 192.543 109.771 192.594C109.768 192.646 109.754 192.696 109.73 192.742C109.706 192.788 109.672 192.828 109.631 192.86Z" fill="white"/>
<path d="M109.336 188.747C109.099 188.746 108.865 188.792 108.647 188.883C108.428 188.973 108.23 189.106 108.063 189.274C107.869 189.468 107.721 189.704 107.631 189.963C107.541 190.223 107.511 190.499 107.543 190.772C107.47 190.765 107.397 190.765 107.325 190.772C106.866 190.8 106.435 191.003 106.121 191.338C105.806 191.673 105.631 192.116 105.631 192.575C105.631 193.035 105.806 193.478 106.121 193.813C106.435 194.148 106.866 194.35 107.325 194.379C107.43 194.389 107.536 194.389 107.641 194.379C107.599 194.633 107.612 194.892 107.679 195.141C107.745 195.389 107.864 195.62 108.028 195.819C108.191 196.017 108.396 196.178 108.627 196.291C108.858 196.404 109.11 196.466 109.367 196.473C109.624 196.48 109.88 196.432 110.117 196.332C110.354 196.232 110.567 196.083 110.741 195.894C110.915 195.705 111.047 195.48 111.127 195.236C111.207 194.992 111.234 194.733 111.206 194.477H111.424C111.671 194.493 111.917 194.457 112.15 194.374C112.382 194.29 112.594 194.16 112.774 193.991C112.954 193.822 113.097 193.618 113.195 193.391C113.293 193.165 113.344 192.921 113.344 192.674C113.344 192.427 113.293 192.183 113.195 191.956C113.097 191.73 112.954 191.526 112.774 191.357C112.594 191.188 112.382 191.057 112.15 190.974C111.917 190.89 111.671 190.855 111.424 190.87C111.321 190.86 111.218 190.86 111.115 190.87C111.16 190.611 111.148 190.345 111.079 190.091C111.011 189.837 110.887 189.602 110.718 189.4C110.548 189.199 110.336 189.038 110.098 188.927C109.859 188.817 109.599 188.76 109.336 188.761V188.747ZM109.336 192.354C109.439 192.361 109.542 192.361 109.645 192.354C109.621 192.529 109.621 192.706 109.645 192.881C109.573 192.874 109.5 192.874 109.427 192.881C109.324 192.871 109.221 192.871 109.118 192.881C109.146 192.707 109.146 192.529 109.118 192.354H109.336Z" fill="#EF0000"/>
<path d="M135.935 184.823C135.817 185.07 135.756 185.341 135.756 185.614C135.756 185.888 135.817 186.158 135.935 186.405C135.686 186.466 135.452 186.58 135.25 186.739C135.048 186.898 134.883 187.098 134.765 187.326C134.647 187.554 134.579 187.805 134.566 188.062C134.553 188.318 134.594 188.575 134.689 188.814C134.783 189.053 134.927 189.269 135.112 189.447C135.296 189.626 135.517 189.763 135.759 189.849C136.001 189.935 136.259 189.969 136.514 189.947C136.77 189.926 137.019 189.85 137.243 189.724C137.287 189.98 137.387 190.224 137.534 190.439C137.682 190.653 137.873 190.833 138.097 190.967C138.32 191.1 138.57 191.184 138.829 191.212C139.087 191.24 139.349 191.212 139.596 191.129C139.843 191.047 140.069 190.912 140.259 190.734C140.449 190.556 140.598 190.339 140.696 190.098C140.795 189.858 140.84 189.598 140.829 189.338C140.818 189.078 140.751 188.824 140.632 188.592C140.899 188.531 141.148 188.409 141.361 188.236C141.573 188.063 141.742 187.843 141.855 187.594C142.02 187.246 142.069 186.856 141.996 186.478C141.923 186.101 141.73 185.757 141.447 185.497C141.165 185.237 140.806 185.074 140.424 185.033C140.042 184.991 139.656 185.073 139.324 185.266C139.256 184.888 139.07 184.542 138.792 184.277C138.514 184.012 138.159 183.843 137.778 183.793C137.397 183.744 137.01 183.817 136.674 184.002C136.338 184.188 136.069 184.475 135.907 184.823H135.935ZM138.642 187.636C138.47 187.677 138.305 187.741 138.15 187.826C138.114 187.653 138.057 187.486 137.981 187.326C138.154 187.289 138.32 187.225 138.473 187.137C138.499 187.316 138.556 187.49 138.642 187.65V187.636Z" fill="white"/>
<path d="M137.573 183.783C137.23 183.783 136.893 183.881 136.603 184.066C136.313 184.25 136.082 184.513 135.935 184.823C135.817 185.07 135.756 185.341 135.756 185.614C135.756 185.888 135.817 186.158 135.935 186.405C135.569 186.489 135.238 186.686 134.989 186.967C134.74 187.248 134.586 187.601 134.547 187.974C134.508 188.348 134.587 188.724 134.773 189.051C134.959 189.377 135.242 189.637 135.584 189.795C135.821 189.908 136.08 189.965 136.343 189.963C136.659 189.962 136.969 189.88 137.243 189.724C137.287 189.981 137.387 190.224 137.534 190.439C137.682 190.653 137.873 190.833 138.097 190.967C138.32 191.1 138.57 191.184 138.829 191.212C139.087 191.24 139.349 191.212 139.596 191.129C139.843 191.047 140.069 190.912 140.259 190.734C140.449 190.556 140.598 190.339 140.696 190.099C140.795 189.858 140.84 189.598 140.829 189.338C140.818 189.078 140.751 188.824 140.632 188.592C140.899 188.531 141.148 188.409 141.361 188.236C141.573 188.063 141.742 187.843 141.855 187.594C141.956 187.379 142.014 187.147 142.024 186.91C142.035 186.673 141.999 186.437 141.918 186.214C141.837 185.991 141.712 185.786 141.552 185.612C141.392 185.437 141.199 185.296 140.984 185.196C140.745 185.086 140.486 185.029 140.224 185.027C139.908 185.027 139.598 185.11 139.324 185.266C139.272 184.982 139.152 184.713 138.975 184.485C138.797 184.256 138.568 184.073 138.305 183.952C138.068 183.838 137.808 183.781 137.545 183.783H137.573ZM138.15 187.84C138.114 187.667 138.057 187.5 137.981 187.341C138.154 187.303 138.32 187.239 138.473 187.151C138.501 187.326 138.558 187.494 138.642 187.65C138.47 187.691 138.305 187.755 138.15 187.84Z" fill="#EF0000"/>
<path d="M160.608 171.105C160.585 171.379 160.624 171.653 160.723 171.909C160.822 172.165 160.977 172.395 161.177 172.582C160.947 172.729 160.753 172.928 160.612 173.162C160.47 173.396 160.385 173.659 160.362 173.932C160.321 174.408 160.47 174.881 160.777 175.248C161.084 175.614 161.524 175.844 162 175.887C162.289 175.914 162.58 175.871 162.848 175.761C163.116 175.65 163.354 175.476 163.54 175.254C164.057 175.21 164.554 175.031 164.979 174.734C165.405 174.437 165.744 174.032 165.963 173.562C166.183 173.091 166.273 172.571 166.227 172.054C166.18 171.537 165.998 171.042 165.699 170.618C165.399 170.194 164.993 169.857 164.521 169.64C164.049 169.424 163.528 169.336 163.012 169.385C162.495 169.435 162.001 169.62 161.578 169.922C161.156 170.224 160.821 170.632 160.608 171.105ZM164.123 172.835C163.976 172.933 163.844 173.052 163.73 173.187C163.639 173.034 163.528 172.894 163.399 172.772C163.548 172.676 163.681 172.557 163.793 172.42C163.881 172.573 163.99 172.712 164.116 172.835H164.123Z" fill="white"/>
<path d="M162.408 169.453C162.045 169.453 161.691 169.563 161.391 169.767C161.092 169.972 160.86 170.261 160.728 170.599C160.595 170.936 160.567 171.306 160.647 171.66C160.727 172.013 160.912 172.335 161.177 172.582C160.947 172.729 160.753 172.928 160.612 173.162C160.47 173.396 160.385 173.659 160.362 173.932C160.321 174.408 160.47 174.881 160.777 175.248C161.084 175.614 161.524 175.844 162 175.887H162.141C162.408 175.891 162.673 175.836 162.916 175.725C163.159 175.615 163.375 175.451 163.547 175.247C163.692 175.498 163.896 175.71 164.141 175.865C164.386 176.02 164.664 176.115 164.953 176.14H165.108C165.537 174.544 166.229 173.03 167.154 171.661C167.195 171.185 167.045 170.712 166.738 170.345C166.431 169.979 165.992 169.749 165.516 169.706H165.354C165.087 169.702 164.822 169.757 164.579 169.868C164.335 169.978 164.12 170.142 163.948 170.346C163.801 170.096 163.597 169.885 163.352 169.73C163.108 169.575 162.83 169.48 162.541 169.453H162.408ZM163.723 173.187C163.632 173.034 163.521 172.894 163.392 172.772C163.541 172.676 163.674 172.557 163.786 172.42C163.876 172.573 163.987 172.713 164.116 172.835C163.969 172.933 163.837 173.052 163.723 173.187Z" fill="#EF0000"/>
<path d="M179.1 149.773C179.351 149.88 179.575 150.043 179.754 150.25C179.934 150.456 180.064 150.7 180.135 150.964C180.206 151.228 180.216 151.505 180.165 151.774C180.113 152.042 180.002 152.296 179.838 152.515C181.543 152.393 183.255 152.567 184.901 153.028C184.88 151.371 185.062 149.719 185.442 148.106C185.387 147.872 185.286 147.652 185.145 147.457C185.003 147.263 184.824 147.099 184.619 146.975C184.413 146.85 184.185 146.768 183.947 146.733C183.709 146.698 183.467 146.711 183.234 146.77C183.136 147.042 182.973 147.287 182.76 147.482C182.547 147.678 182.29 147.819 182.01 147.895C181.731 147.97 181.437 147.977 181.155 147.914C180.872 147.852 180.609 147.722 180.387 147.537C180.154 147.596 179.935 147.702 179.743 147.847C179.552 147.992 179.391 148.175 179.271 148.383C179.152 148.591 179.075 148.822 179.045 149.06C179.016 149.299 179.034 149.541 179.1 149.773ZM182.988 150.202C183.006 150.249 183.013 150.3 183.01 150.351C183.007 150.401 182.993 150.451 182.97 150.496C182.947 150.541 182.914 150.581 182.875 150.613C182.835 150.645 182.79 150.668 182.741 150.681C182.692 150.694 182.64 150.697 182.59 150.69C182.54 150.682 182.492 150.664 182.449 150.637C182.406 150.609 182.37 150.573 182.341 150.531C182.313 150.489 182.294 150.441 182.285 150.391C182.394 150.251 182.479 150.095 182.538 149.927C182.674 150.04 182.826 150.132 182.988 150.202Z" fill="white"/>
<path d="M183.698 146.77C183.539 146.771 183.381 146.792 183.227 146.834C182.948 146.909 182.691 147.051 182.478 147.246C182.265 147.442 182.102 147.687 182.004 147.959C181.678 147.687 181.268 147.538 180.844 147.537C180.687 147.537 180.531 147.558 180.38 147.6C180.39 149.256 180.208 150.908 179.838 152.522C179.939 152.907 180.165 153.248 180.481 153.491C180.797 153.734 181.184 153.865 181.582 153.865C181.739 153.864 181.895 153.843 182.046 153.801C182.326 153.726 182.584 153.584 182.798 153.389C183.012 153.193 183.176 152.949 183.277 152.676C183.599 152.948 184.008 153.098 184.43 153.098C184.983 152.738 185.425 152.231 185.707 151.634C185.989 151.037 186.1 150.374 186.027 149.718C185.954 149.062 185.7 148.439 185.294 147.918C184.888 147.398 184.345 147 183.727 146.77H183.698ZM182.735 150.701C182.599 150.588 182.448 150.496 182.285 150.426C182.394 150.286 182.479 150.13 182.538 149.962C182.636 149.936 182.74 149.95 182.828 150.001C182.916 150.052 182.98 150.135 183.006 150.233C183.032 150.331 183.018 150.435 182.967 150.523C182.917 150.611 182.833 150.675 182.735 150.701Z" fill="#EF0000"/>
<path d="M189.183 123.405C189.456 123.42 189.722 123.497 189.962 123.63C190.201 123.763 190.407 123.948 190.564 124.173C190.721 124.397 190.825 124.654 190.869 124.924C190.912 125.194 190.893 125.471 190.814 125.733C190.95 125.927 191.122 126.092 191.322 126.22C191.521 126.347 191.744 126.434 191.977 126.475C192.21 126.516 192.449 126.511 192.681 126.46C192.912 126.408 193.13 126.312 193.324 126.176C193.561 126.009 193.755 125.788 193.89 125.531C194.024 125.274 194.096 124.989 194.098 124.699C194.46 124.835 194.855 124.851 195.227 124.745C195.598 124.639 195.926 124.416 196.162 124.11C196.398 123.804 196.53 123.431 196.538 123.045C196.546 122.658 196.43 122.28 196.207 121.964C196.047 121.737 195.837 121.55 195.593 121.417C195.349 121.284 195.078 121.209 194.801 121.198C194.88 120.949 194.903 120.687 194.871 120.429C194.839 120.17 194.75 119.922 194.613 119.701C194.475 119.48 194.291 119.292 194.073 119.149C193.856 119.006 193.61 118.912 193.352 118.873C193.095 118.835 192.832 118.852 192.582 118.925C192.332 118.998 192.101 119.124 191.904 119.295C191.708 119.466 191.55 119.677 191.444 119.915C191.337 120.152 191.283 120.41 191.285 120.67C191.012 120.574 190.72 120.543 190.433 120.581C190.146 120.619 189.871 120.724 189.633 120.888C189.241 121.163 188.973 121.582 188.889 122.054C188.805 122.526 188.91 123.011 189.183 123.405ZM192.98 122.477C192.929 122.646 192.903 122.821 192.902 122.998C192.733 122.931 192.556 122.886 192.375 122.864C192.425 122.695 192.451 122.52 192.452 122.344C192.619 122.417 192.798 122.463 192.98 122.477Z" fill="white"/>
<path d="M193.078 118.87C192.601 118.872 192.144 119.062 191.807 119.4C191.47 119.737 191.28 120.194 191.278 120.67C191.079 120.6 190.87 120.564 190.659 120.565C190.036 120.596 189.434 120.8 188.92 121.155C188.406 121.509 188.001 122 187.75 122.571C187.499 123.143 187.413 123.773 187.5 124.391C187.587 125.009 187.845 125.591 188.244 126.071C188.643 126.55 189.168 126.91 189.76 127.108C190.351 127.307 190.987 127.336 191.594 127.194C192.202 127.052 192.758 126.743 193.2 126.302C193.642 125.861 193.953 125.306 194.098 124.699C194.634 124.361 195.057 123.87 195.314 123.291C195.571 122.711 195.65 122.068 195.54 121.443C195.431 120.819 195.139 120.241 194.7 119.783C194.262 119.324 193.697 119.007 193.078 118.87ZM192.902 122.998C192.733 122.931 192.556 122.886 192.375 122.864C192.425 122.695 192.451 122.52 192.452 122.344C192.617 122.406 192.79 122.442 192.966 122.449C192.915 122.618 192.889 122.793 192.888 122.97L192.902 122.998Z" fill="#EF0000"/>
<path d="M189.64 95.1819C189.864 95.3385 190.122 95.442 190.392 95.4846C190.662 95.5273 190.939 95.5079 191.201 95.428C191.209 95.7061 191.283 95.9784 191.416 96.2227C191.549 96.467 191.738 96.6765 191.967 96.8343C192.282 97.0597 192.661 97.1776 193.048 97.1705C193.435 97.1634 193.81 97.0317 194.116 96.7948C194.423 96.558 194.644 96.2287 194.749 95.8558C194.853 95.4829 194.834 95.0863 194.695 94.7249C194.985 94.7228 195.271 94.6516 195.527 94.517C195.784 94.3825 196.005 94.1886 196.172 93.9515C195.086 92.6868 194.156 91.2964 193.402 89.8101C192.172 91.0013 190.744 91.9697 189.183 92.6718C188.911 93.0655 188.807 93.5508 188.893 94.0213C188.978 94.4918 189.247 94.9092 189.64 95.1819ZM192.888 93.0093C192.902 93.1841 192.937 93.3565 192.994 93.5226C192.818 93.5236 192.642 93.5497 192.473 93.5999C192.466 93.4242 192.431 93.2509 192.368 93.0866C192.544 93.0856 192.719 93.0595 192.888 93.0093Z" fill="white"/>
<path d="M192.375 89.4727C192.138 90.2186 191.727 90.8972 191.176 91.4524C190.624 92.0075 189.948 92.4232 189.204 92.6649C189.02 92.9346 188.914 93.2492 188.895 93.5749C188.876 93.9006 188.947 94.2253 189.098 94.5141C189.25 94.803 189.477 95.0452 189.756 95.2149C190.035 95.3845 190.354 95.4753 190.68 95.4774C190.859 95.4758 191.036 95.4498 191.208 95.4001C191.216 95.6782 191.29 95.9504 191.423 96.1947C191.556 96.439 191.745 96.6485 191.974 96.8063C192.275 97.0227 192.637 97.1384 193.008 97.1368C193.298 97.1359 193.584 97.0651 193.841 96.9305C194.098 96.7959 194.318 96.6013 194.484 96.3633C194.652 96.1275 194.759 95.8544 194.797 95.5677C194.835 95.281 194.803 94.9893 194.702 94.718C194.992 94.7159 195.278 94.6447 195.534 94.5102C195.791 94.3756 196.012 94.1817 196.179 93.9446C196.315 93.7508 196.411 93.5321 196.463 93.3009C196.514 93.0698 196.519 92.8308 196.478 92.5976C196.437 92.3644 196.35 92.1417 196.223 91.9421C196.096 91.7425 195.93 91.5699 195.736 91.4344C195.434 91.2189 195.073 91.1033 194.702 91.1039C194.524 91.105 194.346 91.131 194.175 91.1813C194.165 90.9035 194.091 90.6319 193.958 90.3878C193.825 90.1438 193.637 89.934 193.409 89.7751C193.106 89.5624 192.745 89.4471 192.375 89.4446V89.4727ZM192.48 93.6001C192.473 93.4244 192.438 93.2511 192.375 93.0868C192.551 93.0857 192.726 93.0597 192.895 93.0094C192.909 93.1842 192.944 93.3567 193.001 93.5227C192.825 93.5237 192.649 93.5498 192.48 93.6001Z" fill="#EF0000"/>
<path d="M180.422 68.4985C180.641 68.3336 180.895 68.2209 181.164 68.1688C181.434 68.1166 181.711 68.1265 181.976 68.1977C182.241 68.2688 182.487 68.3994 182.694 68.5794C182.901 68.7594 183.064 68.9842 183.171 69.2368C183.634 69.3591 184.126 69.2931 184.539 69.0532C184.953 68.8134 185.255 68.4192 185.379 67.9571C185.455 67.6776 185.463 67.3837 185.4 67.1007C185.338 66.8177 185.207 66.5542 185.02 66.3329C185.379 66.1998 185.687 65.9561 185.898 65.637C186.11 65.3179 186.215 64.9398 186.197 64.5573C186.18 64.1748 186.042 63.8076 185.803 63.5088C185.563 63.21 185.235 62.9949 184.866 62.8946C184.602 62.8238 184.325 62.8143 184.057 62.8667C183.789 62.9191 183.536 63.032 183.319 63.1969C183.21 62.9449 183.047 62.7205 182.84 62.5404C182.633 62.3602 182.388 62.229 182.123 62.1563C181.661 62.034 181.169 62.0999 180.755 62.3398C180.341 62.5797 180.039 62.9739 179.916 63.436C179.839 63.7155 179.832 64.0094 179.894 64.2924C179.957 64.5754 180.087 64.8389 180.274 65.0602C179.915 65.1926 179.607 65.4357 179.395 65.7543C179.183 66.073 179.078 66.4508 179.094 66.8332C179.11 67.2156 179.248 67.583 179.487 67.8823C179.725 68.1816 180.053 68.3973 180.422 68.4985ZM182.742 65.3485C182.813 65.5101 182.905 65.6614 183.016 65.7985C182.849 65.8549 182.693 65.938 182.552 66.0446C182.481 65.883 182.389 65.7317 182.278 65.5946C182.439 65.5353 182.591 65.4524 182.728 65.3485H182.742Z" fill="white"/>
<path d="M181.638 62.0999C181.293 62.0941 180.953 62.1879 180.659 62.37C180.365 62.5522 180.13 62.8151 179.982 63.1272C179.834 63.4394 179.779 63.7876 179.823 64.1304C179.867 64.4731 180.009 64.7958 180.232 65.06C179.873 65.1925 179.565 65.4355 179.353 65.7541C179.141 66.0728 179.035 66.4506 179.052 66.833C179.068 67.2155 179.206 67.5828 179.444 67.8821C179.683 68.1814 180.01 68.3972 180.38 68.4983C180.533 68.5396 180.692 68.5608 180.851 68.5616C181.031 68.4058 181.248 68.2984 181.482 68.2496C181.715 68.2007 181.957 68.2119 182.185 68.2822C182.412 68.3525 182.618 68.4796 182.784 68.6514C182.949 68.8233 183.068 69.0343 183.129 69.2647C183.28 69.3042 183.436 69.3231 183.593 69.321C183.938 69.3268 184.278 69.233 184.572 69.0508C184.866 68.8686 185.101 68.6058 185.249 68.2936C185.397 67.9814 185.453 67.6332 185.408 67.2905C185.364 66.9477 185.222 66.625 184.999 66.3608C185.358 66.2277 185.666 65.9841 185.877 65.6649C186.089 65.3458 186.193 64.9677 186.176 64.5852C186.159 64.2027 186.021 63.8356 185.781 63.5368C185.542 63.2379 185.214 63.0228 184.844 62.9225C184.693 62.8808 184.537 62.8595 184.38 62.8593C183.989 62.8587 183.609 62.9872 183.298 63.2249C183.189 62.9728 183.026 62.7484 182.819 62.5683C182.612 62.3882 182.367 62.2569 182.102 62.1843C181.948 62.1483 181.79 62.1294 181.631 62.128L181.638 62.0999ZM182.538 66.0444C182.467 65.8828 182.375 65.7315 182.264 65.5944C182.43 65.5364 182.587 65.4534 182.728 65.3483C182.799 65.5099 182.891 65.6612 183.002 65.7983C182.835 65.8547 182.679 65.9378 182.538 66.0444Z" fill="#EF0000"/>
<path d="M162.619 46.582C162.769 46.3562 162.968 46.1671 163.201 46.0287C163.434 45.8903 163.696 45.8062 163.966 45.7826C164.236 45.759 164.508 45.7964 164.762 45.8922C165.015 45.988 165.244 46.1396 165.431 46.3359C165.813 46.301 166.173 46.1458 166.461 45.8927C166.748 45.6396 166.948 45.3016 167.031 44.9275C167.114 44.5535 167.076 44.1628 166.922 43.8118C166.769 43.4608 166.508 43.1678 166.177 42.9749C166.231 42.2423 166.01 41.5156 165.557 40.9374C165.103 40.3593 164.45 39.9714 163.726 39.8499C163.001 39.7284 162.257 39.882 161.64 40.2807C161.023 40.6793 160.577 41.2942 160.39 42.0046C160.413 42.2941 160.506 42.5736 160.662 42.8187C160.817 43.0638 161.03 43.2671 161.283 43.4109C160.986 43.6566 160.776 43.991 160.683 44.365C160.591 44.7391 160.621 45.1329 160.769 45.4887C160.917 45.8445 161.175 46.1433 161.505 46.3414C161.836 46.5395 162.221 46.6262 162.605 46.589L162.619 46.582ZM163.716 42.8273C163.835 42.9565 163.972 43.0678 164.123 43.1577C163.989 43.2701 163.872 43.403 163.779 43.5515C163.655 43.4243 163.516 43.3133 163.364 43.221C163.499 43.107 163.618 42.9744 163.716 42.8273Z" fill="white"/>
<path d="M165.03 39.7898H164.876C164.743 40.0166 164.559 40.2084 164.337 40.3491C164.115 40.4899 163.863 40.5756 163.601 40.599C163.34 40.6224 163.077 40.5828 162.833 40.4837C162.59 40.3845 162.374 40.2285 162.204 40.0289H162.042C161.565 40.0735 161.126 40.3047 160.819 40.6722C160.512 41.0397 160.363 41.5136 160.404 41.9906C160.427 42.2801 160.52 42.5596 160.676 42.8047C160.831 43.0498 161.044 43.2531 161.297 43.3968C161.011 43.6338 160.806 43.9533 160.709 44.3116C160.612 44.6698 160.628 45.0493 160.755 45.398C160.882 45.7468 161.114 46.0477 161.418 46.2597C161.723 46.4716 162.086 46.5842 162.457 46.582H162.619C162.751 46.3566 162.936 46.166 163.157 46.0261C163.378 45.8862 163.629 45.8011 163.89 45.7777C164.15 45.7543 164.413 45.7934 164.655 45.8917C164.897 45.99 165.113 46.1447 165.284 46.3429H165.445C165.827 46.3081 166.187 46.1529 166.475 45.8997C166.763 45.6466 166.962 45.3086 167.045 44.9346C167.128 44.5606 167.09 44.1699 166.936 43.8189C166.783 43.4679 166.522 43.1748 166.191 42.982C166.476 42.745 166.682 42.4255 166.779 42.0672C166.876 41.709 166.859 41.3295 166.732 40.9808C166.605 40.632 166.374 40.3311 166.069 40.1191C165.764 39.9072 165.402 39.7946 165.03 39.7968V39.7898ZM163.779 43.5515C163.655 43.4244 163.516 43.3133 163.364 43.2211C163.499 43.107 163.618 42.9745 163.716 42.8273C163.835 42.9565 163.972 43.0678 164.123 43.1578C163.989 43.2701 163.872 43.403 163.779 43.5515Z" fill="#EF0000"/>
<path d="M138.396 32.0766C138.46 31.811 138.582 31.5632 138.755 31.3516C138.927 31.14 139.145 30.97 139.393 30.8544C139.64 30.7389 139.91 30.6806 140.183 30.684C140.456 30.6875 140.725 30.7525 140.97 30.8743C141.319 30.7142 141.608 30.4465 141.794 30.1103C141.981 29.7741 142.054 29.3871 142.005 29.0059C141.955 28.6248 141.785 28.2695 141.519 27.9921C141.253 27.7146 140.905 27.5296 140.527 27.4641C140.66 27.2391 140.744 26.9876 140.771 26.7272C140.798 26.4667 140.768 26.2035 140.684 25.9557C140.599 25.7079 140.461 25.4815 140.28 25.2922C140.1 25.1028 139.88 24.955 139.636 24.859C139.392 24.763 139.131 24.7211 138.869 24.7362C138.608 24.7512 138.353 24.823 138.122 24.9464C137.891 25.0697 137.69 25.2419 137.532 25.4508C137.374 25.6597 137.263 25.9004 137.208 26.1563C136.873 25.9832 136.493 25.9193 136.12 25.9738C135.747 26.0283 135.401 26.1984 135.13 26.46C134.859 26.7217 134.677 27.0618 134.61 27.4324C134.542 27.803 134.593 28.1854 134.754 28.5258C134.874 28.7888 135.057 29.0184 135.286 29.1948C135.515 29.3712 135.784 29.4891 136.069 29.5383C135.926 29.7906 135.845 30.0733 135.832 30.3631C135.82 30.6528 135.877 30.9413 135.998 31.2048C136.201 31.6378 136.568 31.9727 137.017 32.1361C137.467 32.2995 137.962 32.2781 138.396 32.0766ZM138.143 28.1743C138.302 28.2503 138.47 28.307 138.642 28.343C138.558 28.496 138.495 28.659 138.452 28.8282C138.295 28.7492 138.127 28.6947 137.953 28.6665C138.04 28.5124 138.104 28.3467 138.143 28.1743Z" fill="white"/>
<path d="M138.938 24.7571C138.675 24.7584 138.416 24.816 138.178 24.9258C137.93 25.0424 137.713 25.2138 137.541 25.4269C137.369 25.6401 137.248 25.8895 137.187 26.1563C136.94 26.0363 136.67 25.974 136.396 25.974C136.122 25.974 135.851 26.0363 135.605 26.1563C135.39 26.2561 135.196 26.3973 135.036 26.572C134.876 26.7466 134.752 26.9512 134.671 27.174C134.59 27.3968 134.553 27.6334 134.564 27.8702C134.575 28.107 134.632 28.3394 134.733 28.5539C134.853 28.8169 135.036 29.0465 135.265 29.2229C135.494 29.3993 135.763 29.5173 136.048 29.5665C135.857 29.8991 135.777 30.2838 135.819 30.6649C135.862 31.046 136.024 31.4037 136.283 31.6863C136.543 31.969 136.885 32.1618 137.261 32.2371C137.637 32.3123 138.027 32.2659 138.375 32.1047C138.624 31.9906 138.843 31.8209 139.016 31.6089C139.189 31.3968 139.311 31.1479 139.373 30.8813C139.627 31.0068 139.906 31.0718 140.189 31.0711C140.452 31.074 140.712 31.0163 140.948 30.9024C141.298 30.7423 141.587 30.4746 141.773 30.1384C141.96 29.8022 142.033 29.4152 141.984 29.034C141.934 28.6529 141.764 28.2976 141.498 28.0201C141.232 27.7427 140.884 27.5577 140.505 27.4922C140.663 27.2174 140.746 26.9059 140.746 26.5889C140.745 26.272 140.661 25.9608 140.502 25.6865C140.343 25.4123 140.115 25.1846 139.841 25.0264C139.566 24.8682 139.254 24.785 138.938 24.7852V24.7571ZM138.431 28.8282C138.274 28.7492 138.106 28.6947 137.932 28.6665C138.019 28.5124 138.083 28.3466 138.122 28.1743C138.281 28.2503 138.449 28.307 138.621 28.343C138.537 28.496 138.474 28.659 138.431 28.8282Z" fill="#EF0000"/>
<path d="M110.679 26.7259C110.873 26.5336 111.021 26.2991 111.11 26.0405C111.199 25.782 111.227 25.5064 111.192 25.2352C111.45 25.2678 111.713 25.2441 111.961 25.1659C112.209 25.0877 112.437 24.9568 112.63 24.7822C112.823 24.6075 112.976 24.3933 113.079 24.1541C113.181 23.9148 113.231 23.6563 113.224 23.3961C113.218 23.136 113.155 22.8803 113.04 22.6467C112.926 22.413 112.762 22.2068 112.56 22.0423C112.359 21.8778 112.124 21.7587 111.872 21.6933C111.62 21.6279 111.357 21.6177 111.101 21.6634C111.168 21.2854 111.113 20.8958 110.943 20.5515C110.773 20.2071 110.498 19.9261 110.157 19.7494C109.816 19.5727 109.428 19.5096 109.049 19.5693C108.669 19.629 108.319 19.8084 108.049 20.0813C107.854 20.2733 107.707 20.5078 107.618 20.7664C107.529 21.025 107.501 21.3007 107.536 21.572C107.278 21.5395 107.016 21.5631 106.767 21.6413C106.519 21.7195 106.291 21.8504 106.098 22.025C105.905 22.1997 105.752 22.4139 105.649 22.6532C105.547 22.8924 105.497 23.1509 105.504 23.4111C105.51 23.6713 105.573 23.9269 105.688 24.1606C105.802 24.3942 105.966 24.6004 106.168 24.7649C106.369 24.9295 106.604 25.0485 106.856 25.1139C107.108 25.1793 107.371 25.1895 107.627 25.1438C107.56 25.5218 107.615 25.9114 107.785 26.2558C107.955 26.6001 108.23 26.8812 108.571 27.0579C108.912 27.2346 109.3 27.2977 109.679 27.2379C110.059 27.1782 110.409 26.9988 110.679 26.7259ZM109.104 23.147C109.279 23.1717 109.456 23.1717 109.631 23.147C109.607 23.3219 109.607 23.4994 109.631 23.6743C109.459 23.6497 109.283 23.6497 109.111 23.6743C109.133 23.4991 109.131 23.3216 109.104 23.147Z" fill="white"/>
<path d="M109.322 19.5469C109.067 19.548 108.815 19.6031 108.583 19.7085C108.35 19.814 108.143 19.9674 107.975 20.1586C107.806 20.3499 107.68 20.5747 107.604 20.8183C107.528 21.0619 107.505 21.3187 107.536 21.5719H107.318C107.072 21.5565 106.825 21.5917 106.593 21.6754C106.36 21.7591 106.148 21.8894 105.968 22.0584C105.788 22.2274 105.645 22.4314 105.547 22.6579C105.449 22.8844 105.398 23.1286 105.398 23.3754C105.398 23.6222 105.449 23.8664 105.547 24.0929C105.645 24.3194 105.788 24.5234 105.968 24.6924C106.148 24.8614 106.36 24.9917 106.593 25.0754C106.825 25.1591 107.072 25.1943 107.318 25.1789H107.627C107.56 25.5569 107.615 25.9465 107.785 26.2908C107.955 26.6352 108.23 26.9162 108.571 27.0929C108.912 27.2696 109.3 27.3327 109.679 27.273C110.059 27.2133 110.409 27.0338 110.679 26.7609C110.873 26.5686 111.021 26.3341 111.11 26.0756C111.199 25.8171 111.227 25.5415 111.192 25.2703H111.41C111.767 25.2697 112.115 25.1636 112.411 24.9654C112.708 24.7673 112.939 24.4859 113.076 24.1567C113.213 23.8274 113.249 23.4651 113.18 23.1153C113.112 22.7654 112.941 22.4437 112.69 22.1906C112.523 22.0207 112.324 21.8859 112.104 21.7942C111.884 21.7024 111.648 21.6555 111.41 21.6562C111.307 21.6496 111.204 21.6496 111.101 21.6562C111.145 21.3973 111.132 21.1319 111.063 20.8785C110.993 20.625 110.87 20.3897 110.701 20.1889C110.531 19.9881 110.32 19.8267 110.082 19.7158C109.844 19.6049 109.585 19.5473 109.322 19.5469ZM109.631 23.1328C109.607 23.3077 109.607 23.4852 109.631 23.6602H109.42C109.317 23.6494 109.214 23.6494 109.111 23.6602C109.136 23.4852 109.136 23.3077 109.111 23.1328H109.329C109.432 23.1435 109.535 23.1435 109.638 23.1328H109.631Z" fill="#EF0000"/>
</g>
<defs>
<clipPath id="clip0_62_2401">
<rect width="216" height="216" fill="white"/>
</clipPath>
</defs>
</svg>
