<svg width="64" height="62" viewBox="0 0 64 62" fill="none" xmlns="http://www.w3.org/2000/svg">
<path d="M63 31C63 47.5389 49.151 61 32 61C14.849 61 1 47.5389 1 31C1 14.4611 14.849 1 32 1C49.151 1 63 14.4611 63 31Z" fill="white" stroke="black" stroke-width="2"/>
<circle cx="35" cy="31" r="28" fill="white" stroke="black" stroke-width="2"/>
<g clip-path="url(#clip0_80_363)">
<path d="M35 56.4075C49.0322 56.4075 60.4075 45.0322 60.4075 31C60.4075 16.9678 49.0322 5.59241 35 5.59241C20.9678 5.59241 9.59244 16.9678 9.59244 31C9.59244 45.0322 20.9678 56.4075 35 56.4075Z" fill="white"/>
<path d="M34.9999 6.1849C40.7415 6.18459 46.3055 8.17512 50.744 11.8173C55.1825 15.4595 58.2207 20.5281 59.341 26.1593C60.4614 31.7905 59.5945 37.6359 56.8881 42.6996C54.1817 47.7633 49.8032 51.7319 44.4987 53.9292C39.1943 56.1265 33.292 56.4166 27.7977 54.75C22.3033 53.0834 17.5568 49.5632 14.3669 44.7893C11.1771 40.0154 9.7412 34.2831 10.304 28.5692C10.8668 22.8552 13.3934 17.5132 17.4533 13.4534C19.7521 11.1418 22.4866 9.30909 25.4985 8.06145C28.5104 6.8138 31.7399 6.17598 34.9999 6.1849ZM34.9999 5C29.8576 5 24.8308 6.52487 20.5551 9.38179C16.2794 12.2387 12.947 16.2994 10.9791 21.0502C9.0112 25.8011 8.49632 31.0288 9.49953 36.0723C10.5027 41.1159 12.979 45.7486 16.6152 49.3848C20.2513 53.0209 24.8841 55.4972 29.9276 56.5004C34.9711 57.5036 40.1988 56.9887 44.9497 55.0209C49.7006 53.053 53.7612 49.7205 56.6182 45.4448C59.4751 41.1691 60.9999 36.1423 60.9999 31C60.9999 27.5856 60.3274 24.2047 59.0208 21.0502C57.7142 17.8958 55.799 15.0296 53.3847 12.6152C50.9704 10.2009 48.1042 8.28576 44.9497 6.97913C41.7952 5.67251 38.4143 5 34.9999 5V5Z" fill="#EF0000"/>
<path d="M35 54.5167C47.988 54.5167 58.5168 43.9879 58.5168 30.9999C58.5168 18.012 47.988 7.48315 35 7.48315C22.012 7.48315 11.4832 18.012 11.4832 30.9999C11.4832 43.9879 22.012 54.5167 35 54.5167Z" fill="white"/>
<path d="M35 7.73706C47.8273 7.73706 58.2629 18.1726 58.2629 30.9999C58.2629 43.8273 47.8273 54.2628 35 54.2628C22.1727 54.2628 11.7371 43.8273 11.7371 30.9999C11.7371 18.1726 22.1727 7.73706 35 7.73706ZM35 7.22925C21.8934 7.22925 11.2293 17.8933 11.2293 30.9999C11.2293 44.1066 21.8934 54.7706 35 54.7706C48.1066 54.7706 58.7707 44.1066 58.7707 30.9999C58.7707 17.8933 48.1066 7.22925 35 7.22925Z" fill="#EF0000"/>
<path d="M26.5568 24.847V24.8826L26.8953 25.2211C27.0014 26.4071 27.055 27.8787 27.0561 29.6357C27.0561 29.8546 26.8096 30.0312 26.3164 30.1655C26.0509 30.2463 25.7761 30.2924 25.4988 30.3026C25.042 30.3155 24.5874 30.2348 24.1629 30.0654C23.7385 29.8959 23.3532 29.6414 23.0309 29.3175L22.9073 29.1956C22.856 29.1584 22.8079 29.1171 22.7634 29.072C22.3997 28.7238 22.1113 28.3047 21.9159 27.8406C21.7206 27.3765 21.6224 26.8773 21.6276 26.3738C21.6276 25.0197 21.9391 24.004 22.562 23.327C23.2086 22.6386 24.205 22.2939 25.5513 22.2927C25.7494 22.2927 26.1268 22.4231 26.6871 22.6837V22.6973C26.6842 22.7043 26.6842 22.7122 26.6871 22.7193L27.0341 23.0578C27.0018 23.6191 26.8085 24.1592 26.4772 24.6134C26.3149 24.5967 26.1549 24.5627 25.9999 24.5119C25.8277 24.457 25.6445 24.4462 25.467 24.4805C25.2896 24.5148 25.1236 24.5931 24.9842 24.7082C25.0807 24.6981 25.1654 24.6913 25.2382 24.6862L26.352 24.6422L26.5568 24.847ZM25.2331 24.9113C24.8704 24.9167 24.5101 24.9702 24.1616 25.0705C24.1172 25.2364 24.0905 25.4067 24.082 25.5783C24.0657 25.7782 24.1056 25.9787 24.1971 26.1572C24.4883 26.1859 24.705 26.2046 24.8488 26.2147V28.053C24.3331 27.8984 24.0053 27.7365 23.8654 27.5672C23.6961 27.3607 23.6115 26.9798 23.6115 26.4246C23.5966 25.8402 23.7393 25.2625 24.0245 24.7522C24.345 24.1936 24.7873 23.9143 25.3516 23.9143C25.4665 23.9179 25.5804 23.9372 25.6901 23.9719L26.0083 24.0667C26.2732 23.7036 26.4267 23.2713 26.4501 22.8225C26.0168 22.6194 25.7155 22.5179 25.5462 22.5179C24.2575 22.5179 23.3119 22.8412 22.7092 23.4878C22.1303 24.1152 21.8403 25.0778 21.8392 26.3755C21.825 26.8189 21.8998 27.2606 22.0591 27.6746C22.2184 28.0886 22.459 28.4665 22.7668 28.7859C23.163 29.2005 23.6663 29.4971 24.2209 29.643C24.7755 29.7888 25.3596 29.7781 25.9085 29.612C26.3029 29.5053 26.5009 29.3919 26.5009 29.2734C26.5009 27.5266 26.4479 26.0596 26.3418 24.8724L25.2331 24.9113ZM24.1836 26.4348C24.1738 26.4907 24.1688 26.5473 24.1684 26.604V26.7733C24.158 27.0469 24.19 27.3204 24.2632 27.5841C24.3822 27.6459 24.5055 27.699 24.6322 27.7432V26.7141L24.451 26.6938L24.1836 26.4348Z" fill="#EF0000"/>
<path d="M28.3155 29.1177C28.2704 29.0726 28.2218 29.0313 28.1699 28.9941C27.4364 28.343 27.0697 27.4453 27.0697 26.301C27.0855 25.6235 27.2971 24.965 27.679 24.4052C28.0392 23.8315 28.512 23.3369 29.0688 22.9512C29.597 22.5436 30.2402 22.3126 30.907 22.291C32.1269 22.291 33.0387 22.6724 33.6425 23.4353L33.766 23.5589C34.4499 24.245 34.7924 25.2848 34.7935 26.6785C34.8025 27.1466 34.7188 27.6119 34.5474 28.0477C34.3761 28.4834 34.1203 28.881 33.7948 29.2176C33.4787 29.5638 33.0927 29.839 32.6622 30.0249C32.2318 30.2108 31.7668 30.3031 31.2981 30.2958C30.0962 30.2958 29.1331 29.9336 28.4086 29.2091L28.3155 29.1177ZM33.4766 23.5758C32.9123 22.8615 32.0558 22.5043 30.907 22.5043C30.2902 22.5232 29.6951 22.7358 29.2059 23.112C28.6768 23.4805 28.2262 23.9506 27.8805 24.4949C27.5117 25.0247 27.3057 25.6507 27.288 26.296C27.288 27.377 27.6266 28.2268 28.3037 28.8452C28.9582 29.4376 29.8339 29.7344 30.9307 29.7355C31.3723 29.743 31.8104 29.6563 32.2158 29.4812C32.6212 29.3061 32.9847 29.0465 33.2819 28.7199C33.5907 28.4016 33.8336 28.0253 33.9965 27.6128C34.1595 27.2003 34.2393 26.7597 34.2315 26.3163C34.2349 25.1348 33.9833 24.2213 33.4766 23.5758ZM31.8177 26.8461C31.7031 27.0161 31.5479 27.1549 31.3661 27.2497C31.1843 27.3446 30.9817 27.3926 30.7767 27.3894C30.4263 27.4053 30.0827 27.2893 29.8135 27.0644C29.6887 26.9489 29.5909 26.8072 29.5271 26.6495C29.4633 26.4918 29.4351 26.3219 29.4445 26.1521C29.4552 25.7149 29.6194 25.2954 29.9083 24.9672C30.235 24.566 30.6007 24.3663 31.0001 24.3663C31.1677 24.3581 31.3349 24.3892 31.4883 24.4571C31.6417 24.525 31.7771 24.6278 31.8837 24.7573C32.0898 25.0233 32.1948 25.3538 32.18 25.69C32.1904 26.1064 32.0631 26.5146 31.8177 26.8512V26.8461ZM31.8042 25.0163C31.6653 24.9537 31.5147 24.9214 31.3624 24.9215C31.0238 24.9215 30.7112 25.0986 30.4246 25.453C30.1665 25.7481 30.0172 26.1226 30.0014 26.5143C29.9968 26.6785 30.0292 26.8417 30.0962 26.9917C30.3008 27.1135 30.5352 27.1762 30.7733 27.1728C30.9501 27.1757 31.1247 27.1333 31.2805 27.0498C31.4363 26.9662 31.5682 26.8443 31.6637 26.6954C31.8654 26.399 31.969 26.0467 31.9599 25.6883C31.9667 25.4562 31.913 25.2264 31.8042 25.0214V25.0163Z" fill="#EF0000"/>
<path d="M36.1612 29.1177C36.1162 29.072 36.0675 29.0301 36.0156 28.9924C35.2821 28.3413 34.9154 27.4436 34.9154 26.2993C34.9312 25.6218 35.1428 24.9633 35.5248 24.4035C35.8849 23.8298 36.3577 23.3352 36.9145 22.9495C37.4427 22.5418 38.0859 22.3109 38.7527 22.2893C39.9726 22.2893 40.8844 22.6707 41.4882 23.4336L41.6117 23.5571C42.2956 24.2433 42.6381 25.2831 42.6392 26.6768C42.6482 27.1449 42.5645 27.6102 42.3932 28.046C42.2218 28.4817 41.966 28.8793 41.6405 29.2159C41.3244 29.5621 40.9384 29.8373 40.5079 30.0232C40.0775 30.2091 39.6125 30.3014 39.1438 30.2941C37.9419 30.2941 36.9788 29.9319 36.2543 29.2074L36.1612 29.1177ZM41.3223 23.5758C40.758 22.8614 39.9015 22.5043 38.7527 22.5043C38.1359 22.5232 37.5408 22.7358 37.0516 23.112C36.5225 23.4805 36.0719 23.9506 35.7262 24.4949C35.3574 25.0247 35.1514 25.6507 35.1337 26.2959C35.1337 27.377 35.4723 28.2268 36.1494 28.8452C36.805 29.4376 37.6807 29.7344 38.7764 29.7355C39.218 29.743 39.6561 29.6563 40.0615 29.4812C40.4669 29.306 40.8304 29.0465 41.1276 28.7199C41.4364 28.4015 41.6793 28.0253 41.8422 27.6128C42.0052 27.2003 42.0851 26.7597 42.0772 26.3163C42.0806 25.1347 41.829 24.2212 41.3223 23.5758ZM39.6634 26.8461C39.5488 27.0161 39.3936 27.1548 39.2118 27.2497C39.03 27.3446 38.8274 27.3926 38.6224 27.3894C38.272 27.4053 37.9284 27.2893 37.6593 27.0644C37.5344 26.9489 37.4366 26.8072 37.3728 26.6495C37.309 26.4918 37.2808 26.3219 37.2902 26.1521C37.3009 25.7149 37.4651 25.2954 37.754 24.9672C38.0807 24.566 38.4464 24.3663 38.8458 24.3663C39.0134 24.3581 39.1806 24.3892 39.334 24.4571C39.4874 24.525 39.6228 24.6278 39.7294 24.7573C39.9356 25.0233 40.0405 25.3538 40.0257 25.69C40.0361 26.1064 39.9088 26.5146 39.6634 26.8512V26.8461ZM39.6499 25.0163C39.511 24.9537 39.3604 24.9214 39.2081 24.9215C38.8695 24.9215 38.557 25.0986 38.2703 25.453C38.0122 25.748 37.8629 26.1226 37.8471 26.5143C37.8425 26.6785 37.8749 26.8417 37.9419 26.9916C38.1465 27.1135 38.3809 27.1762 38.619 27.1728C38.7958 27.1756 38.9704 27.1333 39.1262 27.0498C39.282 26.9662 39.4139 26.8443 39.5094 26.6954C39.7111 26.399 39.8147 26.0467 39.8056 25.6883C39.8124 25.4562 39.7587 25.2264 39.6499 25.0213V25.0163Z" fill="#EF0000"/>
<path d="M42.9862 29.7898H42.9557H42.9269V29.7034C42.9269 29.7322 42.9269 29.6797 42.9269 29.5443L42.9185 29.3412V29.2329C42.9185 29.1888 42.9185 29.155 42.9185 29.1313V29.0365C42.9185 28.9942 42.9185 28.9299 42.9185 28.8452C42.9185 28.7606 42.9185 28.698 42.9185 28.6539C42.9185 28.0987 42.9377 27.2637 42.976 26.1487C43.0144 25.0338 43.0336 24.1993 43.0336 23.6452L43.0116 22.6296C43.0116 22.3977 43.0116 22.2995 43.0116 22.3334H43.257H43.3366C43.3569 22.3334 43.4111 22.3334 43.5059 22.3181C43.6447 22.3046 43.7496 22.2961 43.8156 22.2961C45.119 22.2961 46.1346 22.6319 46.8625 23.3033C47.0639 23.5064 47.201 23.6418 47.2671 23.7231L47.3839 23.8382C48.0429 24.5209 48.3724 25.4457 48.3724 26.6125C48.3658 27.5878 47.9754 28.5213 47.2857 29.2109C46.5961 29.9005 45.6626 30.2909 44.6874 30.2976C44.2238 30.2711 43.7624 30.2145 43.3061 30.1283L42.9862 29.7898ZM46.6797 23.4573C45.9609 22.8243 44.9932 22.5083 43.7767 22.5094C43.7344 22.5094 43.6379 22.5094 43.4872 22.5314C43.3911 22.5429 43.2939 22.5429 43.1978 22.5314C43.2136 22.879 43.2209 23.2457 43.2198 23.6317C43.2198 24.1869 43.2006 25.0214 43.1622 26.1352C43.1239 27.249 43.1047 28.0841 43.1047 28.6404C43.1047 28.7707 43.1047 28.9265 43.1182 29.111C43.1335 29.3801 43.1402 29.5392 43.1402 29.5883C43.5316 29.6624 43.9274 29.711 44.3251 29.7339C45.248 29.7246 46.1304 29.3539 46.783 28.7014C47.4355 28.0488 47.8062 27.1664 47.8155 26.2435C47.82 25.0485 47.4414 24.1197 46.6797 23.4573ZM44.5807 27.5198V26.1741C44.5681 25.6083 44.5998 25.0423 44.6755 24.4814H44.921C45.2448 24.4814 45.5523 24.6467 45.8435 24.9774C46.1075 25.2409 46.2638 25.5934 46.2819 25.9659C46.2819 26.2114 46.1126 26.533 45.7944 26.9274C45.4762 27.3218 45.1867 27.5215 44.948 27.5215L44.5807 27.5198ZM45.1376 27.2372C45.3153 27.1067 45.4752 26.9536 45.6133 26.7818C45.9146 26.4196 46.0652 26.147 46.0652 25.9642C46.0388 25.6675 45.9109 25.3889 45.703 25.1754C45.5802 25.0881 45.4339 25.0398 45.2832 25.0366H45.2036C45.1531 25.5343 45.1311 26.0345 45.1376 26.5347V27.2372Z" fill="#EF0000"/>
<path d="M22.9682 31.2454C23.4283 31.1673 23.8948 31.1333 24.3613 31.1438H24.9504V31.1929L25.3211 31.5315C25.3211 31.6364 25.3211 31.7888 25.3126 31.9868L25.2974 32.5742C25.2805 32.9127 25.2686 33.1362 25.2568 33.2614L25.2094 34.0062C25.1637 34.7832 25.1281 35.3841 25.1078 35.8089H25.3753C25.3956 35.8089 25.4362 35.8089 25.4938 35.8089H25.7138C25.7238 35.8067 25.7342 35.8067 25.7443 35.8089L26.1387 35.7954C26.4366 35.7852 26.6465 35.8749 26.7447 36.0628L27.0358 36.3303C27.0846 36.3811 27.1223 36.4415 27.1465 36.5076C27.1707 36.5738 27.1808 36.6442 27.1763 36.7145V36.8736C27.1742 36.9052 27.1742 36.9369 27.1763 36.9684V37.0175C27.1834 37.2476 27.2083 37.4768 27.2508 37.7031C27.2921 37.9266 27.317 38.1529 27.3253 38.3801C27.3253 38.7717 26.7932 38.967 25.729 38.9658L24.6813 38.9371C24.5238 38.9371 24.2564 38.9371 23.8789 38.9658L23.3051 39.0014C23.0072 39.0217 22.7973 39.0335 22.6839 39.0386L22.3149 38.7001C22.307 38.6984 22.299 38.6984 22.2912 38.7001H22.2675L22.7939 31.3165L22.9682 31.2454ZM22.5112 38.4546C23.4512 38.3869 24.0442 38.3581 24.2902 38.3683L24.6982 38.3818C24.9713 38.392 25.1812 38.3971 25.3279 38.3971C26.2498 38.3971 26.7114 38.2673 26.7125 38.0078C26.7041 37.7806 26.6793 37.5543 26.638 37.3307C26.5961 37.1072 26.5712 36.8808 26.5635 36.6536V36.6384C26.5625 36.6215 26.5625 36.6045 26.5635 36.5876V36.3574C26.5635 36.1238 26.423 36.0104 26.1387 36.0188H25.746C25.4836 36.0273 25.2906 36.0324 25.1637 36.0324C24.7185 36.0324 24.4951 35.9901 24.4951 35.902C24.4951 35.3378 24.5295 34.5829 24.5983 33.6372C24.6717 32.6216 24.7083 31.8661 24.7083 31.3707H24.3546C23.9041 31.3629 23.4538 31.3946 23.0089 31.4655L22.5112 38.4546Z" fill="#EF0000"/>
<path d="M30.3772 36.0798C30.4322 36.0958 30.4893 36.1032 30.5465 36.1018C30.8512 36.1018 31.0797 35.7362 31.2371 35.0016C31.3455 34.4292 31.3949 33.8473 31.3844 33.2648C31.3763 32.9467 31.3514 32.6291 31.3099 32.3135C31.2688 31.9974 31.2445 31.6793 31.2371 31.3605C31.4628 31.1642 31.93 31.0632 32.6387 31.0576H33.3801H33.3886C33.461 31.0642 33.5303 31.0897 33.5898 31.1316C33.6492 31.1735 33.6965 31.2303 33.7271 31.2962L33.9912 31.5484C34.2789 31.8238 34.4234 32.7068 34.4245 34.1975C34.4245 35.519 34.1988 36.5854 33.7474 37.3967C33.1493 38.4519 32.2166 38.9794 30.9494 38.9794C30.147 38.9794 29.4987 38.7357 29.0044 38.2482L28.8639 38.1111C27.9014 37.3967 27.4195 35.8259 27.4184 33.3986V32.1324C27.4231 31.9821 27.4378 31.8322 27.4624 31.6839C27.481 31.5434 27.4912 31.4536 27.4912 31.4164C27.481 31.3088 27.464 31.202 27.4404 31.0965L29.3481 30.9746L29.8846 31.0322V31.0762L30.2232 31.4147V31.848C30.2232 32.1663 30.2159 32.6464 30.2012 33.2885C30.1865 33.9306 30.1792 34.4108 30.1792 34.729C30.1859 35.352 30.2486 35.8005 30.3772 36.0798ZM33.3784 31.2674H32.637C31.9768 31.2674 31.5819 31.3278 31.4521 31.4486C31.4521 31.6314 31.4843 31.997 31.5469 32.5421C31.5788 32.7794 31.5964 33.0186 31.5994 33.2581C31.6072 33.8553 31.5556 34.4518 31.4453 35.0388C31.2693 35.8885 30.968 36.3134 30.5414 36.3134C29.9253 36.3134 29.6172 35.664 29.6172 34.3651C29.6172 33.8979 29.6172 33.3732 29.6392 32.7943C29.6578 32.0224 29.6663 31.4993 29.6612 31.2234L29.3379 31.1879L27.7011 31.2962C27.7154 31.4339 27.7103 31.573 27.6858 31.7092C27.652 31.9361 27.635 32.0766 27.635 32.129V33.3952C27.635 34.8137 27.7868 35.9043 28.0904 36.6672C28.5542 37.8352 29.3836 38.4191 30.5787 38.4191C31.7737 38.4191 32.6471 37.922 33.199 36.9279C33.6391 36.1379 33.8597 35.1031 33.8608 33.8234C33.8631 32.1149 33.7023 31.2629 33.3784 31.2674Z" fill="#EF0000"/>
<path d="M38.1281 35.8411C38.5039 36.0397 39.0614 36.139 39.8005 36.139H40.0104C40.0375 36.139 40.0765 36.139 40.1306 36.1305H40.2474L40.2643 36.1898L40.6334 36.5148L41.1564 37.8893L41.0836 38.1076C40.2722 38.6888 39.5308 38.9794 38.8594 38.9794C38.0235 38.9972 37.2125 38.6943 36.5929 38.133L36.4794 38.0314C36.3244 37.9215 36.1794 37.798 36.0461 37.6624C35.7423 37.3776 35.5005 37.0333 35.3357 36.6509C35.1708 36.2685 35.0865 35.8563 35.088 35.4399C35.0921 34.3474 35.4859 33.2923 36.1985 32.4641C37.0121 31.4756 38.0226 30.9813 39.2301 30.9813C39.9072 30.9813 40.3591 31.1354 40.5724 31.4434L40.8466 31.6838C40.9296 31.7526 40.9932 31.8419 41.0311 31.9428L40.8619 32.371C40.8094 32.5064 40.7637 32.6114 40.7248 32.6893L40.5555 33.0583C40.4742 33.2174 40.4048 33.3477 40.3456 33.4493C40.0336 33.4975 39.7249 33.5654 39.4214 33.6524C39.1197 33.7215 38.8279 33.8284 38.553 33.9706C38.3554 34.0984 38.2036 34.2857 38.1197 34.5055C38.0288 34.7161 37.9821 34.9431 37.9826 35.1725C37.9701 35.4044 38.0204 35.6353 38.1281 35.8411V35.8411ZM40.0748 36.3489C39.2589 36.3681 38.6478 36.2981 38.2416 36.139C37.6514 35.9065 37.3563 35.4625 37.3563 34.8068C37.3564 34.5472 37.4112 34.2906 37.5171 34.0536C37.6203 33.8039 37.7975 33.5918 38.0249 33.4459C38.2991 33.3054 38.588 33.1958 38.8865 33.1192C39.1858 33.0238 39.4919 32.9513 39.8022 32.9025C39.9766 32.6023 40.1244 32.2874 40.244 31.9614L40.3981 31.5704C40.2976 31.3187 39.9089 31.1929 39.2318 31.1929C38.1033 31.1929 37.1571 31.6584 36.3931 32.5894C35.715 33.3833 35.3412 34.3924 35.3386 35.4365C35.3342 35.8273 35.4104 36.2147 35.5624 36.5747C35.7145 36.9346 35.939 37.2594 36.2222 37.5287C36.5156 37.823 36.8661 38.0543 37.252 38.2085C37.6379 38.3628 38.0512 38.4367 38.4667 38.4258C39.0828 38.4258 39.7797 38.1482 40.5572 37.593L40.0748 36.3489Z" fill="#EF0000"/>
<path d="M42.387 31.2302C42.8119 31.2014 43.2181 31.1591 43.604 31.0998L44.4724 30.9559V30.9999L44.8109 31.3385V32.0037C45.2928 31.3379 45.6737 31.005 45.9535 31.005L47.4093 31.4976C47.4031 31.5081 47.3957 31.5177 47.3872 31.5264L47.7343 31.8649C46.8428 33.2552 46.2469 34.3408 45.9468 35.1217C46.309 35.6532 46.6419 36.148 46.9455 36.6062C47.4826 37.4221 47.7675 38.0252 47.8003 38.4157L46.5544 38.6188C46.1554 38.6827 45.76 38.7669 45.3695 38.871L45.0225 38.524C45.0176 38.526 45.0122 38.526 45.0073 38.524C45.0024 38.5223 44.997 38.5223 44.9921 38.524L44.7178 38.0027C44.6163 37.8097 44.5316 37.6421 44.4639 37.5033L44.4927 37.8571C44.4927 37.9147 44.4927 38.0027 44.4927 38.1178C44.494 38.4146 44.4323 38.7082 44.3116 38.9794C43.9456 38.9509 43.5783 38.9413 43.2113 38.9506C42.8114 38.952 42.413 38.9008 42.0264 38.7982L41.6879 38.4597H41.6659C41.6564 38.4582 41.6466 38.4582 41.6371 38.4597L42.0061 35.2165C42.1259 34.2052 42.1886 33.1879 42.194 32.1696V31.8006C42.1878 31.6114 42.1714 31.4227 42.1449 31.2352L42.387 31.2302ZM42.4242 32.1798C42.4192 33.2077 42.3565 34.2345 42.2363 35.2554L41.8876 38.3175C42.2032 38.3913 42.5268 38.4254 42.8508 38.4191C43.4788 38.4191 43.8038 38.4191 43.8275 38.4191C43.9073 38.2138 43.9442 37.9943 43.9358 37.7742C43.9358 37.6777 43.9358 37.5964 43.9358 37.5287L43.885 36.8195C43.8766 36.6841 43.8715 36.6028 43.8715 36.5723C43.8668 36.347 43.8982 36.1225 43.9646 35.9071C44.2828 36.6553 44.6642 37.4452 45.1089 38.2769C45.4034 38.199 45.7577 38.1262 46.1719 38.0585L47.2366 37.8893C47.2174 37.6636 46.9471 37.1518 46.4258 36.354C46.0241 35.7412 45.6742 35.2176 45.3763 34.7831C45.6754 33.9639 46.2424 32.9071 47.0775 31.6127L45.9129 31.2149C45.6319 31.2149 45.1032 31.857 44.3268 33.1412C44.3268 32.9855 44.3268 32.8653 44.3268 32.779L44.2981 32.2712C44.2777 31.9326 44.2693 31.6449 44.2693 31.4028V31.2098C43.4557 31.3396 42.8451 31.4192 42.4378 31.4485L42.4242 32.1798Z" fill="#EF0000"/>
<path d="M35.6449 11.434C35.6917 11.3877 35.7272 11.3312 35.7486 11.269C35.7701 11.2067 35.7769 11.1404 35.7685 11.0751C35.8307 11.0829 35.8938 11.0772 35.9535 11.0584C36.0133 11.0396 36.0683 11.0081 36.1147 10.966C36.1612 10.924 36.198 10.8724 36.2227 10.8148C36.2474 10.7572 36.2593 10.695 36.2577 10.6324C36.2561 10.5697 36.241 10.5082 36.2134 10.4519C36.1858 10.3957 36.1464 10.3461 36.0979 10.3064C36.0493 10.2668 35.9928 10.2382 35.9321 10.2224C35.8715 10.2067 35.8082 10.2042 35.7465 10.2152C35.7627 10.1242 35.7494 10.0304 35.7086 9.94754C35.6677 9.86464 35.6014 9.79698 35.5193 9.75444C35.4373 9.7119 35.3438 9.69671 35.2525 9.71109C35.1612 9.72547 35.0769 9.76866 35.0119 9.83436C34.965 9.88058 34.9294 9.93703 34.908 9.99929C34.8865 10.0615 34.8798 10.1279 34.8883 10.1932C34.8261 10.1854 34.763 10.1911 34.7032 10.2099C34.6435 10.2287 34.5885 10.2602 34.542 10.3023C34.4956 10.3443 34.4588 10.3959 34.4341 10.4535C34.4094 10.5111 34.3975 10.5733 34.3991 10.636C34.4007 10.6986 34.4158 10.7601 34.4434 10.8164C34.471 10.8727 34.5104 10.9223 34.5589 10.9619C34.6075 11.0015 34.664 11.0302 34.7246 11.0459C34.7853 11.0616 34.8486 11.0641 34.9103 11.0531C34.8941 11.1441 34.9074 11.2379 34.9482 11.3208C34.9891 11.4037 35.0554 11.4714 35.1374 11.5139C35.2195 11.5564 35.313 11.5716 35.4043 11.5572C35.4956 11.5429 35.5799 11.4997 35.6449 11.434V11.434ZM35.2658 10.5724C35.3079 10.5783 35.3506 10.5783 35.3927 10.5724C35.3868 10.6145 35.3868 10.6572 35.3927 10.6993C35.3512 10.6934 35.309 10.6934 35.2674 10.6993C35.2728 10.6571 35.2723 10.6144 35.2658 10.5724Z" fill="black"/>
<path d="M28.935 12.5072C28.9634 12.4477 28.9782 12.3826 28.9782 12.3167C28.9782 12.2508 28.9634 12.1858 28.935 12.1263C28.9991 12.1117 29.059 12.0826 29.11 12.0412C29.1611 11.9998 29.202 11.9473 29.2296 11.8877C29.2692 11.8041 29.281 11.71 29.2634 11.6192C29.2457 11.5284 29.1994 11.4456 29.1313 11.383C29.0632 11.3203 28.9769 11.2812 28.8849 11.2712C28.7929 11.2612 28.7001 11.2809 28.6202 11.3274C28.6095 11.2656 28.5856 11.2069 28.5501 11.1553C28.5146 11.1037 28.4684 11.0603 28.4146 11.0282C28.3608 10.9961 28.3007 10.976 28.2384 10.9692C28.1761 10.9625 28.1131 10.9692 28.0537 10.9891C27.9943 11.0089 27.9399 11.0414 27.8941 11.0842C27.8484 11.127 27.8125 11.1792 27.7888 11.2372C27.7651 11.2952 27.7542 11.3577 27.7569 11.4203C27.7596 11.4828 27.7757 11.5441 27.8043 11.5999C27.7442 11.6146 27.688 11.642 27.6394 11.6802C27.5908 11.7185 27.5509 11.7667 27.5225 11.8216C27.4941 11.8765 27.4778 11.9369 27.4746 11.9986C27.4714 12.0604 27.4815 12.1221 27.5042 12.1797C27.5269 12.2372 27.5616 12.2892 27.606 12.3322C27.6505 12.3752 27.7036 12.4082 27.7619 12.429C27.8201 12.4497 27.8821 12.4578 27.9438 12.4526C28.0054 12.4474 28.0652 12.4291 28.1191 12.3988C28.1352 12.49 28.1799 12.5736 28.2467 12.6375C28.3136 12.7015 28.399 12.7425 28.4907 12.7546C28.5825 12.7667 28.6756 12.7492 28.7568 12.7047C28.8379 12.6602 28.9027 12.591 28.9418 12.5072H28.935ZM28.2833 11.8301C28.325 11.8204 28.3649 11.8044 28.4018 11.7827C28.4084 11.8248 28.4222 11.8654 28.4424 11.9029C28.4008 11.9126 28.3608 11.9286 28.324 11.9503C28.3161 11.9074 28.3024 11.8659 28.2833 11.8267V11.8301Z" fill="white"/>
<path d="M28.1852 10.9685C28.1024 10.9686 28.0215 10.9922 27.9516 11.0366C27.8818 11.0809 27.826 11.1442 27.7908 11.219C27.7624 11.2785 27.7476 11.3436 27.7476 11.4095C27.7476 11.4754 27.7624 11.5404 27.7908 11.5999C27.7026 11.6201 27.623 11.6674 27.5631 11.7351C27.5031 11.8028 27.4659 11.8876 27.4566 11.9776C27.4472 12.0675 27.4663 12.1581 27.511 12.2367C27.5558 12.3153 27.624 12.3779 27.7061 12.4158C27.7632 12.443 27.8257 12.4569 27.8889 12.4564C27.9649 12.4562 28.0395 12.4363 28.1056 12.3988C28.1177 12.4675 28.1462 12.5323 28.1886 12.5877C28.2311 12.6431 28.2862 12.6875 28.3494 12.7171C28.4072 12.7437 28.4702 12.7576 28.5339 12.7577C28.6083 12.7581 28.6816 12.7393 28.7467 12.7031C28.8118 12.6669 28.8664 12.6145 28.9054 12.5511C28.9443 12.4876 28.9663 12.4152 28.9691 12.3408C28.9719 12.2664 28.9555 12.1925 28.9215 12.1263C28.9856 12.1117 29.0454 12.0826 29.0965 12.0412C29.1475 11.9998 29.1884 11.9473 29.216 11.8876C29.2403 11.8359 29.2541 11.7798 29.2567 11.7227C29.2593 11.6655 29.2506 11.6084 29.2311 11.5547C29.2116 11.5009 29.1817 11.4515 29.1431 11.4093C29.1045 11.3671 29.058 11.3329 29.0061 11.3087C28.9488 11.2823 28.8865 11.2684 28.8233 11.2681C28.7471 11.2679 28.6722 11.2884 28.6066 11.3274C28.5885 11.2269 28.5356 11.136 28.4574 11.0705C28.3792 11.0049 28.2805 10.9688 28.1784 10.9685H28.1852ZM28.324 11.9469C28.3158 11.9052 28.3022 11.8648 28.2833 11.8267C28.325 11.817 28.365 11.801 28.4018 11.7793C28.4084 11.8214 28.4222 11.862 28.4425 11.8995C28.4008 11.9092 28.3608 11.9252 28.324 11.9469Z" fill="#EF0000"/>
<path d="M22.9953 15.8096C23.0011 15.7438 22.9917 15.6776 22.9679 15.616C22.9442 15.5544 22.9066 15.499 22.8582 15.4541C22.9116 15.4205 22.957 15.3757 22.9914 15.3228C23.0257 15.2699 23.0482 15.2102 23.0571 15.1477C23.0661 15.0853 23.0613 15.0217 23.0433 14.9612C23.0252 14.9008 22.9942 14.845 22.9524 14.7978C22.9106 14.7505 22.8591 14.7129 22.8013 14.6876C22.7435 14.6622 22.681 14.6497 22.6179 14.651C22.5548 14.6522 22.4928 14.6672 22.4361 14.6948C22.3794 14.7224 22.3293 14.762 22.2895 14.8109C22.243 14.7312 22.1725 14.6683 22.088 14.6313C22.0035 14.5944 21.9094 14.5852 21.8194 14.6052C21.7293 14.6251 21.648 14.6732 21.587 14.7424C21.5261 14.8117 21.4887 14.8985 21.4803 14.9903C21.4746 15.0559 21.4839 15.122 21.5073 15.1836C21.5308 15.2451 21.5678 15.3006 21.6158 15.3458C21.563 15.3797 21.5181 15.4247 21.4843 15.4776C21.4506 15.5305 21.4286 15.5901 21.4201 15.6523C21.4115 15.7145 21.4165 15.7778 21.4347 15.8379C21.4529 15.898 21.4839 15.9534 21.5255 16.0004C21.5672 16.0473 21.6185 16.0847 21.676 16.11C21.7335 16.1352 21.7957 16.1478 21.8585 16.1467C21.9212 16.1456 21.983 16.1309 22.0396 16.1037C22.0962 16.0765 22.1462 16.0374 22.1862 15.989C22.2208 16.0498 22.2697 16.1011 22.3288 16.1386C22.3878 16.1761 22.4551 16.1985 22.5247 16.204C22.6394 16.2139 22.7533 16.1779 22.8415 16.104C22.9297 16.0301 22.985 15.9242 22.9953 15.8096V15.8096ZM22.149 15.3915C22.1847 15.369 22.2167 15.341 22.2438 15.3085C22.265 15.3452 22.2918 15.3784 22.3233 15.4067C22.2879 15.4303 22.256 15.4588 22.2285 15.4914C22.2068 15.4549 22.1807 15.4214 22.1507 15.3915H22.149Z" fill="white"/>
<path d="M21.912 14.5942C21.825 14.5947 21.7402 14.6212 21.6685 14.6703C21.5967 14.7194 21.5413 14.7888 21.5095 14.8697C21.4776 14.9506 21.4707 15.0392 21.4896 15.1241C21.5086 15.2089 21.5525 15.2862 21.6158 15.3458C21.5402 15.3953 21.4818 15.4671 21.4489 15.5513C21.416 15.6355 21.4101 15.7278 21.4321 15.8155C21.454 15.9031 21.5028 15.9818 21.5715 16.0405C21.6402 16.0992 21.7255 16.1351 21.8155 16.1431H21.8544C21.9188 16.1434 21.9825 16.1297 22.041 16.1028C22.0995 16.0759 22.1514 16.0365 22.193 15.9873C22.2276 16.0481 22.2765 16.0994 22.3355 16.1369C22.3945 16.1744 22.4618 16.1968 22.5315 16.2023H22.5704C22.6578 16.2027 22.7432 16.1768 22.8155 16.1278C22.8878 16.0788 22.9437 16.0091 22.9757 15.9279C23.0077 15.8466 23.0145 15.7576 22.995 15.6724C22.9755 15.5873 22.9308 15.51 22.8667 15.4507C22.9423 15.4012 23.0006 15.3294 23.0335 15.2452C23.0664 15.1611 23.0723 15.0687 23.0504 14.9811C23.0284 14.8934 22.9797 14.8148 22.911 14.756C22.8422 14.6973 22.757 14.6615 22.6669 14.6535H22.6297C22.5652 14.6523 22.5012 14.6656 22.4426 14.6926C22.384 14.7196 22.3322 14.7594 22.2912 14.8092C22.2563 14.7487 22.2073 14.6975 22.1484 14.66C22.0894 14.6226 22.0222 14.6 21.9526 14.5942H21.912ZM22.2302 15.4914C22.208 15.4549 22.1813 15.4213 22.1507 15.3915C22.1864 15.369 22.2184 15.341 22.2454 15.3086C22.2667 15.3453 22.2935 15.3784 22.325 15.4067C22.2896 15.4303 22.2577 15.4588 22.2302 15.4914Z" fill="#EF0000"/>
<path d="M18.5435 20.9437C18.5259 20.8802 18.4942 20.8216 18.4509 20.7721C18.4075 20.7225 18.3535 20.6834 18.293 20.6576C18.3311 20.6077 18.358 20.5502 18.3718 20.489C18.3856 20.4277 18.386 20.3642 18.373 20.3028C18.3599 20.2414 18.3337 20.1836 18.2962 20.1332C18.2587 20.0829 18.2107 20.0413 18.1556 20.0113C18.1005 19.9812 18.0395 19.9635 17.9769 19.9592C17.9142 19.955 17.8514 19.9644 17.7927 19.9867C17.7341 20.009 17.6809 20.0438 17.637 20.0886C17.593 20.1334 17.5592 20.1872 17.538 20.2463C17.4671 20.1869 17.379 20.1518 17.2867 20.1459C17.1944 20.14 17.1026 20.1637 17.0247 20.2135C16.9468 20.2633 16.8867 20.3367 16.8533 20.4229C16.8199 20.5092 16.8149 20.6038 16.8389 20.6932C16.8562 20.7567 16.8877 20.8156 16.9311 20.8651C16.9746 20.9147 17.0287 20.9537 17.0895 20.9792C17.0513 21.0291 17.0244 21.0866 17.0106 21.1478C16.9968 21.2091 16.9964 21.2726 17.0095 21.334C17.0225 21.3954 17.0487 21.4533 17.0862 21.5036C17.1237 21.5539 17.1717 21.5955 17.2268 21.6256C17.282 21.6556 17.3429 21.6733 17.4056 21.6776C17.4682 21.6818 17.531 21.6725 17.5897 21.6501C17.6484 21.6278 17.7015 21.593 17.7455 21.5482C17.7894 21.5034 17.8232 21.4496 17.8444 21.3906C17.9154 21.4499 18.0034 21.485 18.0957 21.4909C18.188 21.4968 18.2798 21.4732 18.3577 21.4233C18.4357 21.3735 18.4957 21.3002 18.5291 21.2139C18.5625 21.1276 18.5676 21.033 18.5435 20.9437V20.9437ZM17.6074 20.8421C17.6324 20.8079 17.6523 20.7703 17.6667 20.7304C17.6997 20.7571 17.7361 20.7793 17.775 20.7964C17.7494 20.8302 17.7293 20.8679 17.7158 20.9081C17.6832 20.8808 17.6467 20.8586 17.6074 20.8421V20.8421Z" fill="white"/>
<path d="M17.946 19.9618C17.9082 19.9619 17.8706 19.967 17.8342 19.977C17.7669 19.9949 17.7049 20.0287 17.6533 20.0755C17.6018 20.1223 17.5622 20.1809 17.538 20.2462C17.4841 20.2024 17.4206 20.1717 17.3527 20.1568C17.2848 20.1418 17.2144 20.1428 17.147 20.1598C17.0592 20.1827 16.9808 20.2326 16.9229 20.3023C16.8649 20.3721 16.8304 20.4583 16.824 20.5488C16.8176 20.6393 16.8398 20.7295 16.8875 20.8067C16.9351 20.8839 17.0057 20.9442 17.0895 20.9791C17.0405 21.0435 17.0105 21.1203 17.0029 21.2009C16.9953 21.2814 17.0104 21.3625 17.0466 21.4349C17.0827 21.5073 17.1383 21.5681 17.2072 21.6105C17.2761 21.6529 17.3556 21.6752 17.4365 21.6748C17.4741 21.6753 17.5117 21.6708 17.5482 21.6613C17.6156 21.6431 17.6777 21.609 17.7292 21.5619C17.7808 21.5148 17.8203 21.456 17.8444 21.3904C17.9228 21.4558 18.0216 21.4917 18.1237 21.492C18.1615 21.4919 18.199 21.4868 18.2354 21.4768C18.3232 21.4539 18.4016 21.4041 18.4595 21.3343C18.5175 21.2645 18.5521 21.1783 18.5584 21.0878C18.5648 20.9973 18.5426 20.9071 18.495 20.8299C18.4473 20.7527 18.3767 20.6924 18.293 20.6575C18.342 20.5931 18.3719 20.5163 18.3795 20.4357C18.3871 20.3552 18.372 20.2741 18.3359 20.2017C18.2998 20.1293 18.2441 20.0685 18.1752 20.0261C18.1063 19.9837 18.0269 19.9614 17.946 19.9618ZM17.7158 20.908C17.6832 20.8807 17.6466 20.8584 17.6074 20.842C17.6324 20.8078 17.6523 20.7702 17.6667 20.7303C17.6997 20.757 17.7361 20.7792 17.775 20.7963C17.7493 20.8301 17.7293 20.8678 17.7158 20.908V20.908Z" fill="#EF0000"/>
<path d="M16.1161 27.2997C16.078 27.2448 16.0275 27.1995 15.9687 27.1674C15.9099 27.1354 15.8445 27.1175 15.7776 27.1152C15.8044 27.0288 15.8034 26.9362 15.7749 26.8504C15.7463 26.7645 15.6917 26.6898 15.6185 26.6366C15.5453 26.5834 15.4573 26.5544 15.3669 26.5537C15.2764 26.5531 15.188 26.5807 15.1141 26.6328C15.0563 26.6724 15.0092 26.7254 14.9767 26.7874C14.9443 26.8494 14.9275 26.9183 14.9279 26.9883C14.8408 26.9548 14.7454 26.9503 14.6556 26.9754C14.5658 27.0006 14.4866 27.054 14.4295 27.1277C14.3725 27.2014 14.3408 27.2916 14.3391 27.3848C14.3374 27.478 14.3658 27.5693 14.42 27.6451C14.4583 27.7 14.5088 27.7452 14.5676 27.7772C14.6263 27.8092 14.6917 27.8272 14.7586 27.8296C14.7379 27.8899 14.7308 27.954 14.7376 28.0174C14.7445 28.0808 14.7652 28.1419 14.7984 28.1964C14.8315 28.2509 14.8761 28.2975 14.9292 28.3328C14.9823 28.3681 15.0425 28.3913 15.1056 28.4007C15.1687 28.4102 15.233 28.4057 15.2942 28.3875C15.3553 28.3693 15.4117 28.3379 15.4593 28.2956C15.5069 28.2532 15.5447 28.2008 15.5698 28.1422C15.595 28.0837 15.607 28.0203 15.6049 27.9565C15.6918 27.9887 15.7867 27.9922 15.8757 27.9667C15.9648 27.9412 16.0434 27.8879 16.1 27.8146C16.1567 27.7413 16.1885 27.6519 16.1908 27.5593C16.1931 27.4667 16.1657 27.3757 16.1128 27.2997H16.1161ZM15.1953 27.5147C15.2082 27.4742 15.2145 27.4319 15.2139 27.3895C15.2541 27.4045 15.2963 27.4131 15.3392 27.4148C15.3271 27.4555 15.3208 27.4977 15.3206 27.5401C15.28 27.5266 15.2379 27.5181 15.1953 27.5147V27.5147Z" fill="white"/>
<path d="M15.3646 26.5465C15.2753 26.5461 15.1882 26.574 15.1158 26.6261C15.0581 26.6656 15.0109 26.7187 14.9784 26.7807C14.946 26.8426 14.9292 26.9116 14.9296 26.9815C14.882 26.9633 14.8315 26.9541 14.7806 26.9545C14.6919 26.9543 14.6054 26.9822 14.5335 27.034C14.4592 27.0856 14.4028 27.1591 14.3724 27.2443C14.342 27.3294 14.339 27.422 14.3638 27.509C14.3886 27.5959 14.44 27.673 14.5108 27.7292C14.5816 27.7855 14.6683 27.8182 14.7586 27.8228C14.7379 27.8831 14.7308 27.9473 14.7377 28.0107C14.7445 28.0741 14.7653 28.1352 14.7984 28.1897C14.8315 28.2442 14.8762 28.2907 14.9293 28.326C14.9824 28.3613 15.0426 28.3845 15.1056 28.394C15.1687 28.4035 15.233 28.3989 15.2942 28.3808C15.3553 28.3626 15.4117 28.3312 15.4593 28.2888C15.5069 28.2464 15.5447 28.1941 15.5699 28.1355C15.595 28.0769 15.607 28.0135 15.605 27.9498C15.6527 27.9672 15.7031 27.9764 15.7539 27.9769C15.8431 27.977 15.9302 27.9492 16.0027 27.8973C16.0771 27.8456 16.1335 27.772 16.1638 27.6867C16.1942 27.6013 16.1971 27.5086 16.172 27.4216C16.147 27.3346 16.0953 27.2576 16.0243 27.2014C15.9532 27.1452 15.8664 27.1127 15.7759 27.1085C15.7957 27.0436 15.8001 26.9749 15.7886 26.908C15.7771 26.8411 15.7502 26.7778 15.7099 26.7232C15.6696 26.6686 15.617 26.6242 15.5565 26.5935C15.496 26.5628 15.4291 26.5467 15.3612 26.5465H15.3646ZM15.3223 27.5401C15.2817 27.5267 15.2396 27.5181 15.197 27.5147C15.2099 27.4743 15.2162 27.432 15.2156 27.3895C15.2558 27.4046 15.2981 27.4131 15.3409 27.4149C15.3288 27.4555 15.3225 27.4977 15.3223 27.5401V27.5401Z" fill="#EF0000"/>
<path d="M16.0061 34.0875C15.9521 34.0498 15.8902 34.0249 15.8251 34.0146C15.76 34.0043 15.6934 34.009 15.6304 34.0282C15.6239 33.9684 15.6051 33.9105 15.5751 33.8583C15.545 33.8061 15.5045 33.7608 15.4559 33.7251C15.4074 33.6895 15.352 33.6644 15.2932 33.6514C15.2344 33.6383 15.1735 33.6377 15.1145 33.6495C15.0555 33.6613 14.9995 33.6853 14.9503 33.7199C14.901 33.7546 14.8595 33.7991 14.8284 33.8506C14.7973 33.9022 14.7773 33.9597 14.7697 34.0194C14.762 34.0791 14.7669 34.1398 14.784 34.1975C14.7203 34.1955 14.6569 34.2074 14.5983 34.2326C14.5397 34.2578 14.4873 34.2955 14.445 34.3432C14.4026 34.3908 14.3712 34.4472 14.353 34.5083C14.3348 34.5694 14.3303 34.6338 14.3398 34.6968C14.3492 34.7599 14.3724 34.8201 14.4077 34.8732C14.4431 34.9263 14.4896 34.971 14.5441 35.0041C14.5986 35.0372 14.6597 35.0579 14.7231 35.0648C14.7865 35.0717 14.8506 35.0645 14.911 35.0439C14.9174 35.1037 14.9362 35.1616 14.9662 35.2138C14.9963 35.266 15.0368 35.3113 15.0854 35.347C15.1339 35.3826 15.1893 35.4077 15.2481 35.4207C15.3069 35.4338 15.3678 35.4344 15.4268 35.4226C15.4858 35.4108 15.5418 35.3868 15.591 35.3522C15.6403 35.3175 15.6818 35.273 15.7129 35.2215C15.744 35.1699 15.764 35.1124 15.7716 35.0527C15.7793 34.993 15.7744 34.9323 15.7573 34.8746C15.8495 34.8742 15.9392 34.8445 16.0135 34.7898C16.0877 34.735 16.1426 34.6582 16.1703 34.5702C16.198 34.4822 16.197 34.3877 16.1675 34.3004C16.138 34.213 16.0815 34.1373 16.0061 34.0841V34.0875ZM15.2224 34.6105C15.2207 34.5677 15.2121 34.5254 15.197 34.4853C15.24 34.4851 15.2828 34.4789 15.324 34.4666C15.3257 34.5095 15.3343 34.5518 15.3494 34.5919C15.3063 34.5912 15.2634 34.5975 15.2224 34.6105Z" fill="white"/>
<path d="M15.1953 33.6169C15.1255 33.6168 15.0567 33.6335 14.9947 33.6656C14.9327 33.6978 14.8795 33.7445 14.8394 33.8016C14.7993 33.8588 14.7737 33.9248 14.7646 33.9941C14.7556 34.0633 14.7634 34.1337 14.7874 34.1992C14.7281 34.1955 14.6687 34.204 14.6128 34.2241C14.5569 34.2443 14.5057 34.2757 14.4624 34.3164C14.4191 34.357 14.3846 34.4062 14.361 34.4607C14.3374 34.5152 14.3252 34.574 14.3252 34.6334C14.3252 34.6928 14.3374 34.7516 14.361 34.8061C14.3846 34.8607 14.4191 34.9098 14.4624 34.9505C14.5057 34.9911 14.5569 35.0225 14.6128 35.0427C14.6687 35.0628 14.7281 35.0713 14.7874 35.0676C14.8304 35.0681 14.8732 35.0618 14.9143 35.049C14.9207 35.1088 14.9396 35.1667 14.9696 35.2189C14.9996 35.2711 15.0402 35.3164 15.0887 35.3521C15.1373 35.3877 15.1927 35.4128 15.2515 35.4258C15.3103 35.4388 15.3711 35.4395 15.4302 35.4277C15.4892 35.4159 15.5451 35.3919 15.5944 35.3572C15.6437 35.3226 15.6852 35.2781 15.7163 35.2266C15.7474 35.175 15.7674 35.1175 15.775 35.0578C15.7827 34.9981 15.7778 34.9374 15.7607 34.8797C15.82 34.8834 15.8794 34.8749 15.9353 34.8548C15.9912 34.8346 16.0424 34.8032 16.0857 34.7626C16.129 34.7219 16.1635 34.6728 16.1871 34.6182C16.2107 34.5637 16.2228 34.5049 16.2228 34.4455C16.2228 34.3861 16.2107 34.3273 16.1871 34.2728C16.1635 34.2183 16.129 34.1691 16.0857 34.1285C16.0424 34.0878 15.9912 34.0564 15.9353 34.0363C15.8794 34.0161 15.82 34.0076 15.7607 34.0113C15.7177 34.0109 15.6748 34.0172 15.6337 34.03C15.6281 33.9189 15.5799 33.8142 15.4993 33.7377C15.4186 33.6611 15.3116 33.6185 15.2004 33.6186L15.1953 33.6169ZM15.2207 34.6106C15.219 34.5677 15.2104 34.5254 15.1953 34.4853C15.2383 34.4852 15.2811 34.4789 15.3223 34.4667C15.324 34.5095 15.3326 34.5518 15.3477 34.5919C15.3046 34.5912 15.2617 34.5975 15.2207 34.6106V34.6106Z" fill="#EF0000"/>
<path d="M18.227 40.5029C18.1634 40.4862 18.0969 40.4841 18.0324 40.4967C17.968 40.5093 17.9072 40.5363 17.8546 40.5756C17.7656 40.45 17.6427 40.3522 17.5002 40.2938C17.3578 40.2355 17.2016 40.2188 17.0501 40.2459C16.8985 40.273 16.7578 40.3427 16.6444 40.4469C16.531 40.551 16.4495 40.6853 16.4096 40.834C16.3698 40.9827 16.373 41.1397 16.4191 41.2866C16.4651 41.4336 16.5521 41.5643 16.6697 41.6636C16.7874 41.763 16.9309 41.8267 17.0835 41.8475C17.236 41.8683 17.3913 41.8451 17.5313 41.7809C17.6977 41.8468 17.8825 41.8495 18.0508 41.7885C18.2191 41.7275 18.3593 41.6071 18.4449 41.4498C18.5304 41.2926 18.5555 41.1095 18.5154 40.9351C18.4752 40.7606 18.3727 40.6069 18.227 40.5029V40.5029ZM17.6701 41.2629C17.658 41.2608 17.6466 41.2562 17.6364 41.2494C17.6262 41.2426 17.6176 41.2338 17.611 41.2234C17.6045 41.2131 17.6001 41.2016 17.5983 41.1895C17.5964 41.1774 17.5971 41.1651 17.6003 41.1533C17.6035 41.1415 17.6091 41.1304 17.6168 41.1209C17.6245 41.1114 17.634 41.1036 17.6449 41.098C17.6558 41.0924 17.6677 41.0891 17.6799 41.0883C17.6921 41.0876 17.7043 41.0894 17.7158 41.0936C17.7278 41.0957 17.7393 41.1003 17.7494 41.1071C17.7596 41.1139 17.7682 41.1228 17.7748 41.1331C17.7814 41.1434 17.7857 41.1549 17.7875 41.167C17.7894 41.1791 17.7887 41.1915 17.7855 41.2033C17.7823 41.2151 17.7767 41.2261 17.769 41.2356C17.7614 41.2451 17.7518 41.2529 17.7409 41.2585C17.7301 41.2641 17.7182 41.2674 17.706 41.2682C17.6937 41.2689 17.6815 41.2671 17.6701 41.2629V41.2629Z" fill="white"/>
<path d="M17.4551 40.3184C17.3638 40.7113 17.1526 41.0662 16.8508 41.334C16.8238 41.4441 16.841 41.5604 16.8985 41.6581C16.9561 41.7558 17.0495 41.8272 17.1588 41.857C17.1955 41.8657 17.2329 41.8702 17.2706 41.8706C17.3645 41.8707 17.456 41.8404 17.5312 41.7842C17.5571 41.8449 17.5965 41.8988 17.6464 41.9419C17.6962 41.985 17.7553 42.0162 17.819 42.0331C17.8554 42.0431 17.893 42.0482 17.9307 42.0483C18.0139 42.0493 18.0957 42.0263 18.1662 41.9823C18.2368 41.9382 18.2932 41.8748 18.3289 41.7996C18.3645 41.7244 18.3778 41.6406 18.3673 41.5581C18.3567 41.4755 18.3227 41.3978 18.2693 41.334C18.3348 41.3104 18.3937 41.2713 18.4409 41.22C18.488 41.1687 18.5221 41.1068 18.5401 41.0394C18.5549 40.9842 18.5587 40.9266 18.5513 40.8699C18.5438 40.8132 18.5253 40.7585 18.4966 40.709C18.468 40.6594 18.4299 40.616 18.3845 40.5813C18.3391 40.5465 18.2873 40.521 18.232 40.5062C18.1954 40.4976 18.1579 40.4931 18.1203 40.4927C18.0264 40.4926 17.9349 40.5229 17.8596 40.579C17.8327 40.5183 17.7921 40.4645 17.741 40.422C17.6899 40.3794 17.6297 40.3492 17.5651 40.3336C17.5287 40.3236 17.4911 40.3184 17.4534 40.3184H17.4551ZM17.67 41.2696C17.658 41.2675 17.6465 41.2629 17.6364 41.2561C17.6262 41.2493 17.6176 41.2405 17.611 41.2302C17.6044 41.2199 17.6001 41.2083 17.5983 41.1962C17.5964 41.1842 17.5971 41.1718 17.6003 41.16C17.6035 41.1482 17.6091 41.1372 17.6168 41.1277C17.6244 41.1182 17.634 41.1104 17.6449 41.1048C17.6557 41.0991 17.6677 41.0959 17.6799 41.0951C17.6921 41.0944 17.7043 41.0961 17.7157 41.1004C17.7278 41.1025 17.7393 41.1071 17.7494 41.1139C17.7596 41.1207 17.7682 41.1295 17.7748 41.1398C17.7813 41.1501 17.7857 41.1617 17.7875 41.1738C17.7894 41.1859 17.7887 41.1982 17.7855 41.21C17.7823 41.2218 17.7767 41.2328 17.769 41.2423C17.7613 41.2519 17.7518 41.2597 17.7409 41.2653C17.7301 41.2709 17.7181 41.2742 17.7059 41.2749C17.6937 41.2757 17.6815 41.2739 17.67 41.2696V41.2696Z" fill="#EF0000"/>
<path d="M22.5112 45.7858C22.4456 45.7915 22.3822 45.8121 22.3258 45.8462C22.2695 45.8802 22.2217 45.9267 22.1862 45.9822C22.06 45.8956 21.9118 45.8466 21.7589 45.841C21.606 45.8355 21.4546 45.8734 21.3225 45.9506C21.1903 46.0277 21.0828 46.1408 21.0124 46.2766C20.942 46.4125 20.9117 46.5656 20.925 46.7181C20.9383 46.8705 20.9946 47.016 21.0875 47.1377C21.1803 47.2593 21.3058 47.3521 21.4493 47.4052C21.5928 47.4583 21.7485 47.4695 21.8981 47.4375C22.0478 47.4055 22.1852 47.3317 22.2945 47.2246C22.3377 47.2688 22.3899 47.3033 22.4475 47.3258C22.5051 47.3483 22.5668 47.3583 22.6286 47.355C22.6903 47.3518 22.7507 47.3354 22.8056 47.307C22.8605 47.2786 22.9088 47.2388 22.9471 47.1903C22.9854 47.1418 23.013 47.0856 23.0279 47.0256C23.0428 46.9656 23.0448 46.9031 23.0336 46.8423C23.0225 46.7815 22.9985 46.7237 22.9633 46.6729C22.9281 46.622 22.8825 46.5793 22.8294 46.5475C22.8829 46.503 22.9247 46.4461 22.9512 46.3818C22.9778 46.3176 22.9883 46.2478 22.9818 46.1785C22.971 46.0642 22.9155 45.9588 22.8274 45.8852C22.7392 45.8116 22.6256 45.7759 22.5112 45.7858V45.7858ZM22.2471 46.6897C22.2184 46.6591 22.1853 46.6329 22.149 46.6118C22.1805 46.5833 22.2084 46.5509 22.2319 46.5154C22.2609 46.5469 22.2946 46.5737 22.3318 46.5949C22.2992 46.6224 22.2707 46.6543 22.2471 46.6897V46.6897Z" fill="white"/>
<path d="M22.5501 45.7841H22.5112C22.4456 45.7897 22.3822 45.8104 22.3258 45.8444C22.2695 45.8785 22.2217 45.925 22.1862 45.9804C22.1451 45.9373 22.0958 45.9029 22.0411 45.8794C21.9864 45.8558 21.9275 45.8435 21.868 45.8433H21.8307C21.7863 46.2547 21.6718 46.6554 21.4922 47.0282C21.5015 47.1363 21.551 47.2369 21.6309 47.3102C21.7108 47.3836 21.8154 47.4243 21.9238 47.4243H21.9661C22.0318 47.4186 22.0952 47.3981 22.1518 47.3644C22.2084 47.3307 22.2566 47.2846 22.2928 47.2296C22.3335 47.2729 22.3825 47.3073 22.4369 47.3309C22.4914 47.3545 22.5501 47.3667 22.6094 47.3667H22.6432C22.7351 47.3584 22.8219 47.321 22.8911 47.2601C22.9603 47.1991 23.0084 47.1177 23.0284 47.0277C23.0483 46.9377 23.0392 46.8436 23.0022 46.7591C22.9652 46.6746 22.9023 46.6041 22.8227 46.5576C22.8761 46.5131 22.9179 46.4563 22.9445 46.392C22.971 46.3277 22.9815 46.2579 22.975 46.1886C22.9661 46.0802 22.9167 45.9792 22.8368 45.9055C22.7568 45.8318 22.6521 45.7909 22.5434 45.7908L22.5501 45.7841ZM22.2471 46.6897C22.2184 46.6591 22.1853 46.6329 22.149 46.6118C22.1805 46.5832 22.2084 46.5508 22.2319 46.5153C22.2609 46.5468 22.2946 46.5737 22.3318 46.5949C22.2992 46.6223 22.2707 46.6542 22.2471 46.6897V46.6897Z" fill="#EF0000"/>
<path d="M28.3409 49.2795C28.2812 49.3071 28.2287 49.348 28.1873 49.3991C28.1459 49.4501 28.1168 49.51 28.1022 49.5741C28.0427 49.5457 27.9777 49.5309 27.9118 49.5309C27.8459 49.5309 27.7808 49.5457 27.7213 49.5741C27.8223 49.9731 27.8533 50.3866 27.8128 50.7962C27.8506 50.8783 27.9132 50.9465 27.9918 50.9913C28.0704 51.036 28.161 51.0551 28.251 51.0458C28.3409 51.0364 28.4257 50.9992 28.4934 50.9393C28.5612 50.8793 28.6084 50.7997 28.6286 50.7116C28.8005 50.6571 28.9462 50.541 29.0378 50.3856C29.1293 50.2303 29.1601 50.0465 29.1245 49.8698C29.0888 49.693 28.989 49.5357 28.8444 49.428C28.6998 49.3203 28.5204 49.2698 28.3409 49.2863V49.2795ZM28.4018 50.219C28.3644 50.1987 28.3237 50.185 28.2816 50.1784C28.3033 50.1415 28.3193 50.1015 28.329 50.0599C28.3671 50.0787 28.4075 50.0924 28.4492 50.1005C28.4263 50.1372 28.4092 50.1771 28.3984 50.219H28.4018Z" fill="white"/>
<path d="M28.5254 49.2373C28.4271 49.2381 28.332 49.2719 28.2552 49.3333C28.1785 49.3947 28.1246 49.4801 28.1022 49.5758C28.0429 49.5469 27.9778 49.5319 27.9118 49.5319C27.8458 49.5319 27.7807 49.5469 27.7213 49.5758C27.8223 49.9748 27.8533 50.3884 27.8128 50.798C27.8476 50.8728 27.903 50.9361 27.9726 50.9805C28.0421 51.0249 28.1229 51.0484 28.2055 51.0485C28.2729 51.0474 28.3391 51.03 28.3984 50.9977C28.4581 50.9701 28.5106 50.9292 28.552 50.8782C28.5934 50.8271 28.6225 50.7672 28.6371 50.7032C28.6985 50.7341 28.7663 50.7503 28.8351 50.7506C28.8985 50.7505 28.961 50.736 29.018 50.7082C28.9158 50.31 28.8854 49.8967 28.9282 49.4878C28.8932 49.4127 28.8375 49.3491 28.7677 49.3044C28.6979 49.2597 28.6167 49.2359 28.5338 49.2356L28.5254 49.2373ZM28.4018 50.2191C28.3644 50.1988 28.3237 50.185 28.2816 50.1784C28.3033 50.1416 28.3193 50.1016 28.329 50.0599C28.3671 50.0788 28.4075 50.0924 28.4492 50.1006C28.4275 50.1374 28.4115 50.1774 28.4018 50.2191V50.2191Z" fill="#EF0000"/>
<path d="M35.0152 50.566C35.0232 50.6315 35.0161 50.6979 34.9946 50.7602C34.973 50.8226 34.9376 50.8792 34.891 50.9258C34.8443 50.9725 34.7877 51.0079 34.7254 51.0294C34.663 51.051 34.5966 51.058 34.5311 51.0501C34.7648 51.3897 34.9367 51.7679 35.0389 52.1673C35.3848 51.9632 35.7535 51.8007 36.1375 51.6832C35.9038 51.3436 35.7319 50.9654 35.6297 50.566C35.5481 50.4847 35.4377 50.439 35.3225 50.439C35.2073 50.439 35.0968 50.4847 35.0152 50.566V50.566ZM35.3927 51.4293C35.385 51.4391 35.3754 51.4472 35.3643 51.4529C35.3533 51.4587 35.3412 51.4621 35.3287 51.4629C35.3163 51.4636 35.3038 51.4617 35.2922 51.4573C35.2806 51.4529 35.27 51.4461 35.2612 51.4373C35.2524 51.4285 35.2455 51.4179 35.2411 51.4062C35.2367 51.3946 35.2348 51.3821 35.2355 51.3697C35.2363 51.3573 35.2397 51.3451 35.2455 51.3341C35.2513 51.3231 35.2593 51.3134 35.2691 51.3057C35.2768 51.2959 35.2865 51.2878 35.2975 51.282C35.3086 51.2763 35.3207 51.2729 35.3331 51.2721C35.3456 51.2714 35.358 51.2733 35.3697 51.2777C35.3813 51.2821 35.3919 51.2889 35.4007 51.2977C35.4095 51.3065 35.4163 51.3171 35.4208 51.3288C35.4252 51.3404 35.4271 51.3529 35.4263 51.3653C35.4256 51.3777 35.4222 51.3899 35.4164 51.4009C35.4106 51.4119 35.4025 51.4216 35.3927 51.4293V51.4293Z" fill="white"/>
<path d="M35.3216 50.4391C35.2647 50.4389 35.2083 50.45 35.1557 50.4718C35.1031 50.4936 35.0554 50.5257 35.0152 50.566C34.9684 50.6127 34.9328 50.6694 34.9111 50.7319C34.8894 50.7944 34.8822 50.8609 34.89 50.9266C34.8725 50.9248 34.8549 50.9248 34.8375 50.9266C34.727 50.9335 34.6234 50.9822 34.5476 51.0629C34.4718 51.1436 34.4296 51.2501 34.4296 51.3608C34.4296 51.4715 34.4718 51.578 34.5476 51.6586C34.6234 51.7393 34.727 51.7881 34.8375 51.795C34.8628 51.7975 34.8883 51.7975 34.9137 51.795C34.9035 51.856 34.9066 51.9186 34.9226 51.9784C34.9387 52.0382 34.9673 52.0938 35.0067 52.1416C35.0461 52.1894 35.0952 52.2282 35.1509 52.2553C35.2065 52.2825 35.2673 52.2975 35.3292 52.2992C35.3911 52.3009 35.4526 52.2893 35.5096 52.2652C35.5667 52.2412 35.6179 52.2052 35.6598 52.1596C35.7018 52.1141 35.7335 52.0601 35.7528 52.0013C35.7721 51.9425 35.7786 51.8802 35.7719 51.8187H35.8243C35.8836 51.8224 35.9431 51.8139 35.999 51.7937C36.0549 51.7736 36.106 51.7422 36.1493 51.7015C36.1926 51.6608 36.2271 51.6117 36.2507 51.5572C36.2743 51.5027 36.2865 51.4439 36.2865 51.3845C36.2865 51.3251 36.2743 51.2663 36.2507 51.2117C36.2271 51.1572 36.1926 51.1081 36.1493 51.0674C36.106 51.0267 36.0549 50.9954 35.999 50.9752C35.9431 50.9551 35.8836 50.9466 35.8243 50.9503C35.7996 50.9478 35.7746 50.9478 35.7499 50.9503C35.7608 50.8879 35.7578 50.8239 35.7413 50.7628C35.7248 50.7016 35.6951 50.6449 35.6542 50.5964C35.6134 50.548 35.5625 50.5092 35.505 50.4826C35.4475 50.456 35.3849 50.4423 35.3216 50.4425V50.4391ZM35.3216 51.3074C35.3464 51.3092 35.3713 51.3092 35.3961 51.3074C35.3901 51.3496 35.3901 51.3923 35.3961 51.4344C35.3786 51.4327 35.3611 51.4327 35.3436 51.4344C35.3188 51.432 35.2939 51.432 35.2691 51.4344C35.2759 51.3924 35.2759 51.3495 35.2691 51.3074H35.3216Z" fill="#EF0000"/>
<path d="M41.7251 49.4945C41.6967 49.554 41.682 49.619 41.682 49.6849C41.682 49.7508 41.6967 49.8159 41.7251 49.8754C41.6651 49.8901 41.6088 49.9175 41.5602 49.9557C41.5116 49.9939 41.4718 50.0421 41.4434 50.0971C41.4149 50.152 41.3986 50.2123 41.3954 50.2741C41.3923 50.3359 41.4024 50.3976 41.425 50.4551C41.4477 50.5127 41.4824 50.5647 41.5269 50.6077C41.5713 50.6507 41.6245 50.6837 41.6827 50.7044C41.741 50.7252 41.803 50.7332 41.8646 50.728C41.9262 50.7228 41.986 50.7045 42.04 50.6743C42.0507 50.736 42.0746 50.7947 42.1101 50.8463C42.1456 50.898 42.1918 50.9413 42.2456 50.9735C42.2993 51.0056 42.3594 51.0257 42.4217 51.0325C42.484 51.0392 42.547 51.0324 42.6064 51.0126C42.6658 50.9927 42.7203 50.9603 42.766 50.9175C42.8117 50.8746 42.8477 50.8224 42.8713 50.7644C42.895 50.7064 42.9059 50.644 42.9032 50.5814C42.9006 50.5188 42.8844 50.4576 42.8559 50.4018C42.9201 50.3871 42.9802 50.3578 43.0313 50.3161C43.0823 50.2744 43.1231 50.2215 43.1504 50.1614C43.19 50.0778 43.2019 49.9838 43.1842 49.8929C43.1665 49.8021 43.1203 49.7194 43.0521 49.6567C42.984 49.5941 42.8977 49.555 42.8057 49.5449C42.7137 49.5349 42.621 49.5546 42.541 49.6011C42.5247 49.5102 42.4798 49.4267 42.4129 49.363C42.3459 49.2992 42.2604 49.2584 42.1687 49.2465C42.0771 49.2346 41.984 49.2523 41.903 49.2969C41.822 49.3415 41.7573 49.4107 41.7184 49.4945H41.7251ZM42.3768 50.1716C42.3355 50.1815 42.2956 50.1968 42.2583 50.2173C42.2497 50.1757 42.236 50.1354 42.2177 50.0971C42.2593 50.088 42.2992 50.0726 42.3362 50.0514C42.3424 50.0946 42.3562 50.1365 42.3768 50.175V50.1716Z" fill="white"/>
<path d="M42.1195 49.244C42.0368 49.2442 41.9558 49.2678 41.886 49.3121C41.8162 49.3565 41.7604 49.4197 41.7251 49.4946C41.6967 49.554 41.682 49.6191 41.682 49.685C41.682 49.7509 41.6967 49.8159 41.7251 49.8754C41.637 49.8956 41.5574 49.9429 41.4974 50.0106C41.4375 50.0784 41.4003 50.1631 41.3909 50.2531C41.3816 50.343 41.4006 50.4336 41.4454 50.5122C41.4901 50.5908 41.5584 50.6534 41.6405 50.6913C41.6975 50.7185 41.7601 50.7324 41.8233 50.7319C41.8993 50.7317 41.9739 50.7119 42.04 50.6744C42.0507 50.7361 42.0746 50.7948 42.1101 50.8464C42.1455 50.8981 42.1918 50.9414 42.2455 50.9735C42.2993 51.0057 42.3594 51.0258 42.4217 51.0325C42.484 51.0393 42.547 51.0325 42.6064 51.0127C42.6658 50.9928 42.7203 50.9604 42.766 50.9175C42.8117 50.8747 42.8476 50.8225 42.8713 50.7645C42.895 50.7065 42.9059 50.6441 42.9032 50.5815C42.9005 50.5189 42.8844 50.4576 42.8558 50.4018C42.9201 50.3872 42.9802 50.3578 43.0312 50.3161C43.0823 50.2744 43.1231 50.2215 43.1504 50.1615C43.1746 50.1098 43.1884 50.0539 43.191 49.9969C43.1936 49.9399 43.1848 49.8829 43.1653 49.8293C43.1458 49.7756 43.1159 49.7264 43.0773 49.6843C43.0388 49.6423 42.9922 49.6083 42.9405 49.5843C42.8831 49.5578 42.8208 49.544 42.7577 49.5436C42.6817 49.5436 42.607 49.5635 42.541 49.6012C42.5284 49.5326 42.4996 49.4681 42.4569 49.413C42.4142 49.3579 42.3588 49.3139 42.2956 49.2847C42.2385 49.2574 42.176 49.2435 42.1127 49.244H42.1195ZM42.2583 50.2207C42.2496 50.1792 42.236 50.1388 42.2177 50.1005C42.2593 50.0914 42.2992 50.076 42.3362 50.0548C42.3428 50.0969 42.3565 50.1376 42.3768 50.175C42.3354 50.1849 42.2956 50.2003 42.2583 50.2207V50.2207Z" fill="#EF0000"/>
<path d="M47.6649 46.1921C47.6594 46.2578 47.6689 46.324 47.6926 46.3855C47.7163 46.4471 47.7537 46.5025 47.802 46.5475C47.7464 46.583 47.6998 46.6307 47.6658 46.6871C47.6317 46.7435 47.6111 46.8069 47.6056 46.8725C47.5957 46.9872 47.6317 47.1011 47.7056 47.1893C47.7795 47.2775 47.8854 47.3328 48 47.3431C48.0695 47.3497 48.1396 47.3393 48.2042 47.3128C48.2688 47.2862 48.3259 47.2443 48.3707 47.1908C48.4952 47.1803 48.6148 47.1371 48.7172 47.0656C48.8197 46.994 48.9014 46.8967 48.9542 46.7834C49.0069 46.6701 49.0288 46.5449 49.0176 46.4205C49.0064 46.296 48.9625 46.1767 48.8904 46.0747C48.8183 45.9726 48.7205 45.8914 48.6069 45.8394C48.4933 45.7873 48.368 45.7661 48.2436 45.778C48.1192 45.7899 48.0002 45.8345 47.8985 45.9072C47.7969 45.9799 47.7163 46.0782 47.6649 46.1921V46.1921ZM48.5112 46.6085C48.4758 46.6321 48.4439 46.6606 48.4164 46.6931C48.3947 46.6563 48.3679 46.6227 48.3369 46.5932C48.3727 46.5701 48.4046 46.5416 48.4316 46.5086C48.4529 46.5453 48.4791 46.5789 48.5095 46.6085H48.5112Z" fill="white"/>
<path d="M48.0982 45.7943C48.0109 45.7944 47.9256 45.8207 47.8535 45.8699C47.7813 45.9191 47.7257 45.9889 47.6937 46.0701C47.6618 46.1514 47.655 46.2404 47.6743 46.3255C47.6936 46.4107 47.7381 46.488 47.802 46.5476C47.7464 46.583 47.6998 46.6307 47.6658 46.6871C47.6317 46.7435 47.6111 46.8069 47.6056 46.8726C47.5957 46.9872 47.6317 47.1011 47.7056 47.1893C47.7795 47.2775 47.8854 47.3328 48 47.3431H48.0339C48.0982 47.3442 48.1619 47.3309 48.2205 47.3043C48.2791 47.2776 48.3309 47.2383 48.3724 47.1891C48.4074 47.2495 48.4565 47.3005 48.5154 47.3379C48.5743 47.3753 48.6414 47.398 48.7109 47.4041H48.7482C48.8515 47.0199 49.018 46.6555 49.2408 46.3258C49.2506 46.2112 49.2147 46.0973 49.1407 46.0091C49.0668 45.9209 48.961 45.8656 48.8464 45.8552H48.8074C48.7431 45.8542 48.6793 45.8675 48.6208 45.8941C48.5622 45.9207 48.5103 45.9601 48.4689 46.0093C48.4335 45.9492 48.3844 45.8984 48.3255 45.861C48.2667 45.8236 48.1998 45.8008 48.1303 45.7943H48.0982ZM48.4147 46.6931C48.393 46.6563 48.3662 46.6227 48.3352 46.5933C48.371 46.5702 48.4029 46.5416 48.4299 46.5086C48.4517 46.5455 48.4785 46.5791 48.5095 46.6085C48.4741 46.6321 48.4422 46.6606 48.4147 46.6931Z" fill="#EF0000"/>
<path d="M52.1167 41.0564C52.1772 41.0822 52.2311 41.1215 52.2742 41.1712C52.3174 41.2209 52.3487 41.2797 52.3658 41.3433C52.3829 41.4069 52.3854 41.4735 52.373 41.5381C52.3606 41.6028 52.3338 41.6638 52.2944 41.7165C52.7047 41.6872 53.117 41.729 53.5131 41.8401C53.5081 41.4413 53.5519 41.0434 53.6435 40.6552C53.6302 40.5989 53.6058 40.5458 53.5718 40.499C53.5378 40.4522 53.4948 40.4127 53.4453 40.3828C53.3958 40.3528 53.3408 40.3331 53.2836 40.3246C53.2263 40.3162 53.168 40.3192 53.112 40.3336C53.0882 40.3991 53.049 40.4579 52.9977 40.505C52.9464 40.5521 52.8845 40.5862 52.8172 40.6043C52.75 40.6224 52.6793 40.624 52.6113 40.609C52.5433 40.594 52.4799 40.5628 52.4264 40.5181C52.3703 40.5324 52.3177 40.5578 52.2716 40.5928C52.2254 40.6278 52.1868 40.6717 52.1579 40.7218C52.1291 40.772 52.1105 40.8275 52.1034 40.8849C52.0964 40.9424 52.1009 41.0007 52.1167 41.0564V41.0564ZM53.0527 41.1596C53.057 41.1711 53.0588 41.1833 53.058 41.1955C53.0573 41.2077 53.054 41.2196 53.0484 41.2305C53.0427 41.2414 53.0349 41.2509 53.0254 41.2586C53.0159 41.2663 53.0049 41.2719 52.9931 41.2751C52.9813 41.2783 52.969 41.279 52.9569 41.2771C52.9448 41.2753 52.9332 41.2709 52.9229 41.2644C52.9126 41.2578 52.9038 41.2492 52.897 41.239C52.8902 41.2288 52.8856 41.2174 52.8835 41.2053C52.9096 41.1716 52.9302 41.1339 52.9444 41.0936C52.9771 41.1207 53.0136 41.1429 53.0527 41.1596Z" fill="white"/>
<path d="M53.2237 40.3336C53.1854 40.3338 53.1473 40.3389 53.1103 40.3489C53.043 40.367 52.9812 40.4011 52.9299 40.4482C52.8786 40.4954 52.8395 40.5542 52.8158 40.6197C52.7373 40.5543 52.6385 40.5184 52.5365 40.5181C52.4987 40.5182 52.4611 40.5233 52.4247 40.5334C52.4272 40.932 52.3835 41.3296 52.2944 41.7182C52.3187 41.811 52.3732 41.893 52.4491 41.9515C52.5251 42.01 52.6183 42.0417 52.7142 42.0416C52.7519 42.0415 52.7895 42.0364 52.8259 42.0263C52.8933 42.0082 52.9554 41.9741 53.007 41.927C53.0585 41.8798 53.098 41.821 53.1221 41.7555C53.1998 41.821 53.2981 41.8569 53.3997 41.857C53.5329 41.7703 53.6394 41.6483 53.7072 41.5046C53.7751 41.3609 53.8018 41.2012 53.7842 41.0432C53.7667 40.8853 53.7056 40.7353 53.6078 40.61C53.5101 40.4847 53.3794 40.389 53.2305 40.3336H53.2237ZM52.9918 41.2798C52.9591 41.2527 52.9226 41.2305 52.8835 41.2138C52.9096 41.1801 52.9302 41.1424 52.9444 41.1021C52.968 41.0958 52.9931 41.0992 53.0142 41.1114C53.0353 41.1236 53.0507 41.1437 53.057 41.1673C53.0632 41.1908 53.0599 41.2159 53.0477 41.2371C53.0355 41.2582 53.0154 41.2736 52.9918 41.2798V41.2798Z" fill="#EF0000"/>
<path d="M54.544 34.7087C54.6098 34.7123 54.6739 34.7308 54.7315 34.7628C54.7891 34.7948 54.8387 34.8394 54.8765 34.8934C54.9144 34.9473 54.9394 35.0092 54.9499 35.0742C54.9603 35.1393 54.9558 35.2059 54.9367 35.269C54.9693 35.3157 55.0109 35.3556 55.0589 35.3862C55.107 35.4169 55.1606 35.4378 55.2167 35.4477C55.2729 35.4576 55.3304 35.4563 55.3861 35.444C55.4417 35.4316 55.4944 35.4084 55.541 35.3756C55.5981 35.3355 55.6448 35.2823 55.6772 35.2204C55.7096 35.1586 55.7267 35.0899 55.7272 35.0201C55.8143 35.0528 55.9096 35.0566 55.9991 35.0311C56.0885 35.0056 56.1674 34.9521 56.2242 34.8784C56.281 34.8048 56.3128 34.7148 56.3147 34.6218C56.3166 34.5288 56.2887 34.4377 56.235 34.3617C56.1965 34.3071 56.1459 34.262 56.0872 34.2301C56.0285 34.1981 55.9633 34.18 55.8965 34.1772C55.9154 34.1174 55.9212 34.0543 55.9134 33.9921C55.9056 33.9299 55.8844 33.8701 55.8512 33.8169C55.8181 33.7637 55.7737 33.7184 55.7214 33.6839C55.669 33.6495 55.6097 33.6269 55.5477 33.6176C55.4857 33.6083 55.4225 33.6125 55.3623 33.6301C55.3021 33.6476 55.2464 33.678 55.1991 33.7191C55.1518 33.7602 55.114 33.8111 55.0883 33.8683C55.0625 33.9255 55.0495 33.9875 55.0501 34.0502C54.9844 34.027 54.9141 34.0196 54.8449 34.0287C54.7758 34.0378 54.7098 34.0632 54.6523 34.1027C54.5579 34.1689 54.4935 34.2698 54.4732 34.3834C54.453 34.4969 54.4784 34.6138 54.544 34.7087V34.7087ZM55.4581 34.4853C55.446 34.5259 55.4397 34.5681 55.4395 34.6105C55.3987 34.5944 55.356 34.5835 55.3125 34.5784C55.3246 34.5377 55.3309 34.4955 55.3311 34.4531C55.3713 34.4708 55.4143 34.4817 55.4581 34.4853V34.4853Z" fill="white"/>
<path d="M55.4818 33.6169C55.367 33.6174 55.257 33.6632 55.1758 33.7444C55.0947 33.8255 55.0489 33.9355 55.0484 34.0503C55.0006 34.0334 54.9502 34.0248 54.8995 34.0249C54.7494 34.0324 54.6044 34.0816 54.4807 34.1669C54.357 34.2522 54.2595 34.3703 54.1991 34.5079C54.1388 34.6455 54.1179 34.7972 54.1389 34.946C54.1599 35.0948 54.2219 35.2348 54.318 35.3503C54.414 35.4659 54.5404 35.5524 54.6829 35.6001C54.8253 35.6479 54.9783 35.655 55.1246 35.6208C55.2709 35.5865 55.4048 35.5121 55.5112 35.4061C55.6176 35.3 55.6924 35.1664 55.7272 35.0202C55.8563 34.9387 55.9582 34.8206 56.02 34.6811C56.0819 34.5415 56.1008 34.3867 56.0745 34.2363C56.0482 34.086 55.9779 33.9468 55.8723 33.8365C55.7668 33.7263 55.6308 33.6498 55.4818 33.6169V33.6169ZM55.4394 34.6106C55.3987 34.5944 55.356 34.5836 55.3125 34.5784C55.3246 34.5377 55.3309 34.4956 55.3311 34.4531C55.3707 34.4682 55.4124 34.4768 55.4547 34.4785C55.4426 34.5192 55.4363 34.5614 55.4361 34.6038L55.4394 34.6106Z" fill="#EF0000"/>
<path d="M54.654 27.9142C54.7081 27.9519 54.77 27.9768 54.8351 27.9871C54.9002 27.9973 54.9668 27.9927 55.0298 27.9734C55.0318 28.0404 55.0496 28.1059 55.0816 28.1648C55.1137 28.2236 55.1591 28.274 55.2143 28.312C55.2901 28.3663 55.3814 28.3946 55.4746 28.3929C55.5678 28.3912 55.6579 28.3595 55.7317 28.3025C55.8054 28.2455 55.8588 28.1662 55.8839 28.0764C55.9091 27.9867 55.9045 27.8912 55.8711 27.8042C55.9409 27.8037 56.0096 27.7865 56.0714 27.7541C56.1332 27.7217 56.1864 27.6751 56.2266 27.618C55.9652 27.3135 55.7412 26.9788 55.5596 26.621C55.2636 26.9078 54.9199 27.1409 54.544 27.3099C54.4786 27.4047 54.4535 27.5215 54.4741 27.6348C54.4948 27.7481 54.5594 27.8485 54.654 27.9142ZM55.4361 27.3912C55.4394 27.4332 55.4479 27.4747 55.4615 27.5147C55.419 27.515 55.3769 27.5212 55.3362 27.5333C55.3344 27.4911 55.3259 27.4493 55.3108 27.4098C55.3532 27.4095 55.3954 27.4033 55.4361 27.3912V27.3912Z" fill="white"/>
<path d="M55.3125 26.5397C55.2555 26.7193 55.1565 26.8827 55.0238 27.0163C54.891 27.15 54.7283 27.25 54.5491 27.3082C54.5049 27.3732 54.4792 27.4489 54.4747 27.5273C54.4703 27.6057 54.4872 27.6839 54.5237 27.7534C54.5602 27.8229 54.6149 27.8813 54.682 27.9221C54.7491 27.963 54.826 27.9848 54.9046 27.9853C54.9475 27.9849 54.9902 27.9787 55.0315 27.9667C55.0335 28.0336 55.0513 28.0992 55.0833 28.158C55.1154 28.2168 55.1608 28.2672 55.216 28.3052C55.2885 28.3573 55.3756 28.3852 55.4648 28.3848C55.5347 28.3846 55.6035 28.3675 55.6653 28.3351C55.7272 28.3027 55.7804 28.2559 55.8203 28.1986C55.8606 28.1418 55.8864 28.0761 55.8956 28.007C55.9047 27.938 55.8969 27.8678 55.8728 27.8025C55.9426 27.802 56.0113 27.7848 56.0731 27.7525C56.1349 27.7201 56.1881 27.6734 56.2283 27.6163C56.261 27.5696 56.2842 27.517 56.2966 27.4613C56.309 27.4057 56.3102 27.3482 56.3003 27.292C56.2904 27.2359 56.2695 27.1823 56.2389 27.1342C56.2082 27.0862 56.1684 27.0446 56.1216 27.012C56.049 26.9601 55.962 26.9323 55.8728 26.9324C55.8298 26.9327 55.7871 26.939 55.7458 26.9511C55.7434 26.8842 55.7255 26.8188 55.6935 26.76C55.6615 26.7013 55.6162 26.6508 55.5613 26.6125C55.4884 26.5613 55.4016 26.5336 55.3125 26.533V26.5397ZM55.3379 27.5334C55.3361 27.4911 55.3276 27.4493 55.3125 27.4098C55.3549 27.4095 55.3971 27.4033 55.4378 27.3912C55.4411 27.4332 55.4496 27.4748 55.4632 27.5147C55.4207 27.515 55.3786 27.5213 55.3379 27.5334V27.5334Z" fill="#EF0000"/>
<path d="M52.4349 21.4904C52.4877 21.4507 52.5488 21.4236 52.6137 21.411C52.6785 21.3985 52.7454 21.4008 52.8091 21.418C52.8729 21.4351 52.932 21.4665 52.9818 21.5099C53.0316 21.5532 53.071 21.6073 53.0968 21.6681C53.2081 21.6976 53.3266 21.6817 53.4262 21.6239C53.5258 21.5662 53.5985 21.4713 53.6283 21.3601C53.6467 21.2928 53.6484 21.222 53.6334 21.1539C53.6184 21.0858 53.587 21.0223 53.5419 20.969C53.6284 20.937 53.7024 20.8783 53.7533 20.8015C53.8042 20.7247 53.8295 20.6337 53.8253 20.5416C53.8212 20.4495 53.7879 20.3611 53.7303 20.2892C53.6726 20.2172 53.5937 20.1655 53.5047 20.1413C53.4412 20.1243 53.3746 20.122 53.3101 20.1346C53.2455 20.1472 53.1847 20.1744 53.1323 20.2141C53.1062 20.1534 53.0668 20.0994 53.017 20.056C52.9672 20.0127 52.9082 19.9811 52.8445 19.9636C52.7332 19.9341 52.6148 19.95 52.5151 20.0077C52.4155 20.0655 52.3428 20.1604 52.313 20.2716C52.2946 20.3389 52.2929 20.4097 52.3079 20.4778C52.3229 20.5459 52.3543 20.6094 52.3994 20.6627C52.3129 20.6945 52.2388 20.753 52.1877 20.8298C52.1367 20.9065 52.1113 20.9974 52.1152 21.0895C52.1192 21.1816 52.1523 21.27 52.2097 21.342C52.2672 21.4141 52.346 21.466 52.4349 21.4904V21.4904ZM52.9935 20.7321C53.0106 20.771 53.0328 20.8074 53.0595 20.8404C53.0193 20.854 52.9816 20.874 52.9478 20.8996C52.9307 20.8607 52.9085 20.8243 52.8818 20.7913C52.9206 20.777 52.9571 20.7571 52.9901 20.7321H52.9935Z" fill="white"/>
<path d="M52.7277 19.95C52.6445 19.9486 52.5627 19.9712 52.492 20.0151C52.4213 20.0589 52.3647 20.1222 52.329 20.1973C52.2933 20.2725 52.28 20.3563 52.2907 20.4388C52.3014 20.5213 52.3356 20.599 52.3892 20.6626C52.3027 20.6945 52.2286 20.753 52.1775 20.8297C52.1265 20.9065 52.1011 20.9974 52.105 21.0895C52.109 21.1815 52.1421 21.27 52.1995 21.342C52.257 21.4141 52.3359 21.466 52.4247 21.4904C52.4617 21.5003 52.4998 21.5054 52.5381 21.5056C52.5816 21.4681 52.6338 21.4423 52.69 21.4305C52.7462 21.4187 52.8044 21.4214 52.8592 21.4384C52.9141 21.4553 52.9637 21.4859 53.0035 21.5272C53.0432 21.5686 53.0718 21.6194 53.0866 21.6749C53.123 21.6844 53.1606 21.6889 53.1983 21.6884C53.2815 21.6898 53.3633 21.6672 53.434 21.6234C53.5047 21.5795 53.5613 21.5162 53.597 21.4411C53.6327 21.3659 53.646 21.2821 53.6353 21.1996C53.6247 21.1171 53.5905 21.0394 53.5368 20.9758C53.6233 20.9438 53.6973 20.8851 53.7482 20.8083C53.7991 20.7314 53.8244 20.6404 53.8202 20.5483C53.8161 20.4563 53.7828 20.3679 53.7252 20.2959C53.6675 20.224 53.5886 20.1722 53.4996 20.1481C53.4632 20.138 53.4256 20.1329 53.3879 20.1328C53.2937 20.1327 53.202 20.1636 53.1272 20.2208C53.1011 20.1602 53.0617 20.1062 53.0119 20.0628C52.9621 20.0194 52.9031 19.9878 52.8394 19.9703C52.8023 19.9617 52.7642 19.9571 52.726 19.9568L52.7277 19.95ZM52.9444 20.8996C52.9273 20.8607 52.9051 20.8243 52.8784 20.7913C52.9184 20.7773 52.9561 20.7573 52.9901 20.732C53.0072 20.7709 53.0294 20.8074 53.0561 20.8404C53.0159 20.854 52.9782 20.874 52.9444 20.8996V20.8996Z" fill="#EF0000"/>
<path d="M48.1489 16.2142C48.1851 16.1598 48.233 16.1143 48.2892 16.081C48.3453 16.0477 48.4082 16.0274 48.4732 16.0218C48.5383 16.0161 48.6037 16.0251 48.6648 16.0481C48.7259 16.0712 48.781 16.1077 48.826 16.1549C48.9179 16.1466 49.0047 16.1092 49.0739 16.0483C49.1431 15.9873 49.1912 15.9059 49.2112 15.8159C49.2311 15.7259 49.222 15.6318 49.185 15.5473C49.148 15.4628 49.0852 15.3923 49.0055 15.3458C49.0186 15.1694 48.9654 14.9945 48.8563 14.8553C48.7471 14.7161 48.5899 14.6228 48.4155 14.5935C48.241 14.5643 48.062 14.6012 47.9134 14.6972C47.7648 14.7932 47.6574 14.9412 47.6124 15.1122C47.6178 15.1819 47.6403 15.2492 47.6778 15.3082C47.7152 15.3672 47.7666 15.4162 47.8273 15.4508C47.7559 15.5099 47.7053 15.5904 47.683 15.6805C47.6607 15.7705 47.6679 15.8653 47.7036 15.951C47.7392 16.0366 47.8013 16.1086 47.8809 16.1563C47.9605 16.204 48.0532 16.2248 48.1456 16.2159L48.1489 16.2142ZM48.413 15.3103C48.4417 15.3414 48.4748 15.3682 48.5112 15.3898C48.4787 15.4169 48.4508 15.4489 48.4282 15.4846C48.3984 15.454 48.3649 15.4273 48.3284 15.4051C48.3609 15.3776 48.3894 15.3457 48.413 15.3103Z" fill="white"/>
<path d="M48.7295 14.579H48.6923C48.6604 14.6336 48.616 14.6797 48.5626 14.7136C48.5092 14.7475 48.4485 14.7681 48.3856 14.7738C48.3226 14.7794 48.2592 14.7699 48.2006 14.746C48.1421 14.7221 48.0901 14.6846 48.0491 14.6365H48.0101C47.8954 14.6473 47.7895 14.7029 47.7157 14.7914C47.6418 14.8799 47.6059 14.994 47.6157 15.1088C47.6212 15.1785 47.6437 15.2458 47.6812 15.3048C47.7186 15.3638 47.77 15.4127 47.8307 15.4473C47.762 15.5044 47.7125 15.5813 47.6892 15.6676C47.6658 15.7538 47.6697 15.8452 47.7003 15.9291C47.7309 16.0131 47.7866 16.0855 47.86 16.1365C47.9333 16.1876 48.0207 16.2147 48.11 16.2141H48.1489C48.1809 16.1599 48.2253 16.114 48.2785 16.0803C48.3317 16.0466 48.3922 16.0261 48.4549 16.0205C48.5177 16.0149 48.5808 16.0243 48.6392 16.048C48.6975 16.0716 48.7494 16.1089 48.7905 16.1566H48.8294C48.9213 16.1482 49.0081 16.1108 49.0773 16.0499C49.1465 15.989 49.1946 15.9076 49.2146 15.8175C49.2345 15.7275 49.2254 15.6334 49.1884 15.5489C49.1514 15.4645 49.0885 15.3939 49.0089 15.3475C49.0776 15.2904 49.1271 15.2135 49.1504 15.1272C49.1738 15.041 49.1699 14.9496 49.1393 14.8657C49.1087 14.7817 49.0529 14.7093 48.9796 14.6583C48.9062 14.6072 48.8189 14.5801 48.7295 14.5807V14.579ZM48.4282 15.4846C48.3984 15.454 48.3649 15.4272 48.3284 15.405C48.3609 15.3776 48.3894 15.3457 48.413 15.3102C48.4417 15.3413 48.4748 15.3681 48.5112 15.3898C48.4787 15.4168 48.4508 15.4488 48.4282 15.4846V15.4846Z" fill="#EF0000"/>
<path d="M42.3176 12.7221C42.3328 12.6582 42.3623 12.5985 42.4039 12.5475C42.4454 12.4966 42.4979 12.4557 42.5575 12.4279C42.617 12.4 42.6821 12.386 42.7478 12.3868C42.8136 12.3877 42.8783 12.4033 42.9371 12.4326C43.0212 12.3941 43.0908 12.3297 43.1357 12.2487C43.1805 12.1678 43.1983 12.0746 43.1864 11.9829C43.1744 11.8911 43.1335 11.8056 43.0694 11.7388C43.0054 11.672 42.9216 11.6274 42.8305 11.6117C42.8627 11.5575 42.8828 11.497 42.8893 11.4343C42.8958 11.3716 42.8886 11.3082 42.8682 11.2485C42.8479 11.1889 42.8147 11.1344 42.7712 11.0888C42.7277 11.0432 42.6747 11.0076 42.6161 10.9845C42.5574 10.9614 42.4945 10.9513 42.4315 10.9549C42.3686 10.9586 42.3072 10.9758 42.2516 11.0055C42.196 11.0353 42.1475 11.0767 42.1095 11.127C42.0715 11.1773 42.0449 11.2352 42.0315 11.2968C41.951 11.2552 41.8594 11.2398 41.7696 11.2529C41.6799 11.266 41.5966 11.307 41.5313 11.37C41.4661 11.4329 41.4222 11.5148 41.406 11.604C41.3898 11.6933 41.4019 11.7853 41.4407 11.8673C41.4697 11.9306 41.5137 11.9859 41.5688 12.0283C41.624 12.0708 41.6887 12.0992 41.7573 12.111C41.7228 12.1718 41.7033 12.2398 41.7004 12.3096C41.6975 12.3793 41.7112 12.4488 41.7404 12.5122C41.7892 12.6164 41.8774 12.6971 41.9856 12.7364C42.0938 12.7758 42.2132 12.7706 42.3176 12.7221V12.7221ZM42.2566 11.7826C42.2949 11.8009 42.3353 11.8146 42.3768 11.8233C42.3567 11.8601 42.3413 11.8993 42.3311 11.9401C42.2933 11.9211 42.2527 11.9079 42.2109 11.9011C42.2318 11.8641 42.2472 11.8241 42.2566 11.7826Z" fill="white"/>
<path d="M42.4479 10.9601C42.3848 10.9604 42.3225 10.9743 42.2651 11.0007C42.2055 11.0288 42.153 11.07 42.1117 11.1213C42.0703 11.1727 42.0412 11.2327 42.0264 11.2969C41.9671 11.268 41.902 11.253 41.836 11.253C41.77 11.253 41.7049 11.268 41.6456 11.2969C41.5938 11.3209 41.5473 11.355 41.5087 11.397C41.4701 11.439 41.4402 11.4883 41.4207 11.5419C41.4012 11.5956 41.3925 11.6525 41.3951 11.7095C41.3976 11.7665 41.4114 11.8225 41.4357 11.8741C41.4647 11.9374 41.5086 11.9927 41.5638 12.0352C41.6189 12.0777 41.6836 12.1061 41.7522 12.1179C41.7063 12.198 41.6871 12.2906 41.6973 12.3823C41.7075 12.4741 41.7466 12.5602 41.809 12.6282C41.8714 12.6963 41.9538 12.7427 42.0443 12.7608C42.1348 12.7789 42.2288 12.7678 42.3125 12.729C42.3724 12.7015 42.4252 12.6606 42.4669 12.6096C42.5085 12.5585 42.538 12.4986 42.5529 12.4344C42.6139 12.4647 42.6811 12.4803 42.7492 12.4801C42.8125 12.4808 42.875 12.4669 42.932 12.4395C43.0162 12.401 43.0858 12.3365 43.1306 12.2556C43.1755 12.1747 43.1932 12.0815 43.1813 11.9897C43.1694 11.898 43.1284 11.8124 43.0644 11.7456C43.0003 11.6788 42.9166 11.6343 42.8254 11.6185C42.8634 11.5524 42.8833 11.4774 42.8832 11.4011C42.8831 11.3248 42.8629 11.2499 42.8246 11.1838C42.7864 11.1178 42.7314 11.063 42.6653 11.0249C42.5992 10.9868 42.5242 10.9668 42.4479 10.9669V10.9601ZM42.3261 11.9402C42.2882 11.9211 42.2477 11.908 42.2059 11.9012C42.2268 11.8641 42.2421 11.8242 42.2516 11.7827C42.2899 11.801 42.3302 11.8147 42.3718 11.8234C42.3516 11.8602 42.3362 11.8994 42.3261 11.9402V11.9402Z" fill="#EF0000"/>
<path d="M35.6449 11.434C35.6917 11.3877 35.7272 11.3312 35.7486 11.269C35.7701 11.2067 35.7769 11.1404 35.7685 11.0751C35.8307 11.0829 35.8938 11.0772 35.9535 11.0584C36.0133 11.0396 36.0683 11.0081 36.1147 10.966C36.1612 10.924 36.198 10.8724 36.2227 10.8148C36.2474 10.7572 36.2593 10.695 36.2577 10.6324C36.2561 10.5697 36.241 10.5082 36.2134 10.4519C36.1858 10.3957 36.1464 10.3461 36.0979 10.3064C36.0493 10.2668 35.9928 10.2382 35.9321 10.2224C35.8715 10.2067 35.8082 10.2042 35.7465 10.2152C35.7627 10.1242 35.7494 10.0304 35.7086 9.94754C35.6677 9.86464 35.6014 9.79698 35.5193 9.75444C35.4373 9.7119 35.3438 9.69671 35.2525 9.71109C35.1612 9.72547 35.0769 9.76866 35.0119 9.83436C34.965 9.88058 34.9294 9.93703 34.908 9.99929C34.8865 10.0615 34.8798 10.1279 34.8883 10.1932C34.8261 10.1854 34.763 10.1911 34.7032 10.2099C34.6435 10.2287 34.5885 10.2602 34.542 10.3023C34.4956 10.3443 34.4588 10.3959 34.4341 10.4535C34.4094 10.5111 34.3975 10.5733 34.3991 10.636C34.4007 10.6986 34.4158 10.7601 34.4434 10.8164C34.471 10.8727 34.5104 10.9223 34.5589 10.9619C34.6075 11.0015 34.664 11.0302 34.7246 11.0459C34.7853 11.0616 34.8486 11.0641 34.9103 11.0531C34.8941 11.1441 34.9074 11.2379 34.9482 11.3208C34.9891 11.4037 35.0554 11.4714 35.1374 11.5139C35.2195 11.5564 35.313 11.5716 35.4043 11.5572C35.4956 11.5429 35.5799 11.4997 35.6449 11.434V11.434ZM35.2658 10.5724C35.3079 10.5783 35.3506 10.5783 35.3927 10.5724C35.3868 10.6145 35.3868 10.6572 35.3927 10.6993C35.3512 10.6934 35.309 10.6934 35.2674 10.6993C35.2728 10.6571 35.2723 10.6144 35.2658 10.5724Z" fill="white"/>
<path d="M35.3182 9.70569C35.2568 9.70596 35.1962 9.71922 35.1403 9.7446C35.0844 9.76999 35.0345 9.80692 34.9939 9.85296C34.9532 9.89901 34.9228 9.95313 34.9046 10.0118C34.8865 10.0704 34.8809 10.1322 34.8883 10.1932H34.8358C34.7765 10.1895 34.7171 10.198 34.6612 10.2181C34.6053 10.2383 34.5541 10.2696 34.5108 10.3103C34.4675 10.351 34.433 10.4001 34.4094 10.4546C34.3858 10.5092 34.3737 10.568 34.3737 10.6274C34.3737 10.6868 34.3858 10.7456 34.4094 10.8001C34.433 10.8546 34.4675 10.9037 34.5108 10.9444C34.5541 10.9851 34.6053 11.0165 34.6612 11.0366C34.7171 11.0568 34.7765 11.0653 34.8358 11.0615H34.9103C34.8941 11.1525 34.9073 11.2463 34.9482 11.3292C34.9891 11.4121 35.0554 11.4798 35.1374 11.5223C35.2195 11.5649 35.313 11.5801 35.4043 11.5657C35.4956 11.5513 35.5799 11.5081 35.6449 11.4424C35.6917 11.3961 35.7272 11.3397 35.7486 11.2774C35.7701 11.2152 35.7769 11.1488 35.7685 11.0836H35.821C35.9068 11.0834 35.9907 11.0579 36.062 11.0102C36.1333 10.9625 36.189 10.8947 36.2219 10.8155C36.2549 10.7362 36.2636 10.649 36.2471 10.5647C36.2306 10.4805 36.1895 10.4031 36.129 10.3421C36.0889 10.3012 36.0409 10.2688 35.988 10.2467C35.9351 10.2246 35.8783 10.2133 35.821 10.2135C35.7962 10.2119 35.7713 10.2119 35.7465 10.2135C35.7571 10.1512 35.7539 10.0873 35.7373 10.0263C35.7206 9.96525 35.6909 9.9086 35.6501 9.86026C35.6094 9.81192 35.5586 9.77305 35.5012 9.74635C35.4439 9.71966 35.3815 9.70578 35.3182 9.70569V9.70569ZM35.3927 10.569C35.3868 10.6111 35.3868 10.6538 35.3927 10.6959H35.3419C35.3172 10.6933 35.2922 10.6933 35.2674 10.6959C35.2734 10.6538 35.2734 10.6111 35.2674 10.569H35.3199C35.3447 10.5716 35.3696 10.5716 35.3944 10.569H35.3927Z" fill="#EF0000"/>
</g>
<defs>
<clipPath id="clip0_80_363">
<rect width="52" height="52" fill="white" transform="translate(9 5)"/>
</clipPath>
</defs>
</svg>
