<svg width="22" height="20" viewBox="0 0 22 20" fill="none" xmlns="http://www.w3.org/2000/svg">
<path fill-rule="evenodd" clip-rule="evenodd" d="M0 1.64998H2.47859L5.47859 15.15H19V13.85H6.52141L6.03252 11.65H19.1111C19.4049 11.65 19.6621 11.4529 19.7387 11.1693L21.6276 4.16932C21.6803 3.97402 21.639 3.76532 21.516 3.60474C21.393 3.44415 21.2023 3.34998 21 3.34998H4.18808L3.52141 0.349976H0V1.64998ZM4.47697 4.64998L5.74363 10.35H18.6133L20.1514 4.64998H4.47697Z" fill="#2F3438"/>
<path d="M10 18.5C10 17.6716 9.32843 17 8.5 17C7.67157 17 7 17.6716 7 18.5C7 19.3284 7.67157 20 8.5 20C9.32843 20 10 19.3284 10 18.5Z" fill="#2F3438"/>
<path d="M16.5 17C17.3284 17 18 17.6716 18 18.5C18 19.3284 17.3284 20 16.5 20C15.6716 20 15 19.3284 15 18.5C15 17.6716 15.6716 17 16.5 17Z" fill="#2F3438"/>
</svg>
