<svg width="20" height="18" viewBox="0 0 20 18" fill="none" xmlns="http://www.w3.org/2000/svg">
<path d="M10 13C11.6569 13 13 11.6569 13 10C13 8.34315 11.6569 7 10 7C8.34315 7 7 8.34315 7 10C7 11.6569 8.34315 13 10 13Z" fill="#2F3438"/>
<path d="M7 0L5 2H1C0.447715 2 0 2.44772 0 3V17C0 17.5523 0.447716 18 1 18H19C19.5523 18 20 17.5523 20 17V3C20 2.44772 19.5523 2 19 2H15L13 0H7ZM10 15C7.23858 15 5 12.7614 5 10C5 7.23858 7.23858 5 10 5C12.7614 5 15 7.23858 15 10C15 12.7614 12.7614 15 10 15Z" fill="#2F3438"/>
</svg>
