<svg width="74" height="30" viewBox="0 0 74 30" fill="none" xmlns="http://www.w3.org/2000/svg">
<path fill-rule="evenodd" clip-rule="evenodd" d="M14.201 25.1742H9.27908V20.7033C9.27908 19.9013 8.62872 19.2509 7.8267 19.2509C7.0244 19.2509 6.37431 19.9013 6.37431 20.7033V25.1742H1.45239C0.650367 25.1742 0 25.8242 0 26.6265C0 27.4286 0.650367 28.0792 1.45239 28.0792H14.201C15.003 28.0792 15.6534 27.4286 15.6534 26.6265C15.6534 25.8242 15.003 25.1742 14.201 25.1742Z" fill="#2F3438"/>
<path fill-rule="evenodd" clip-rule="evenodd" d="M4.49388 9.14986C4.49388 4.55683 6.58205 3.87068 7.82663 3.87068C9.0715 3.87068 11.1597 4.55683 11.1597 9.14986V9.33041V9.51096C11.1597 14.104 9.0715 14.7899 7.82663 14.7899C6.58205 14.7899 4.49388 14.104 4.49388 9.51096V9.33041V9.14986ZM7.82663 17.6946C11.6741 17.6946 14.0642 14.5587 14.0642 9.51096V9.33041V9.14986C14.0642 4.10187 11.6741 0.966187 7.82663 0.966187C3.9792 0.966187 1.58911 4.10187 1.58911 9.14986V9.33041V9.51096C1.58911 14.5587 3.9792 17.6946 7.82663 17.6946Z" fill="#2F3438"/>
<path fill-rule="evenodd" clip-rule="evenodd" d="M33.3723 10.3458H17.8056C17.0036 10.3458 16.3535 10.9959 16.3535 11.7982C16.3535 12.6002 17.0036 13.2506 17.8056 13.2506H33.3723C34.1746 13.2506 34.8247 12.6002 34.8247 11.7982C34.8247 10.9959 34.1746 10.3458 33.3723 10.3458Z" fill="#2F3438"/>
<path fill-rule="evenodd" clip-rule="evenodd" d="M31.8192 25.8442C24.7442 27.6825 22.3723 26.6369 21.6812 26.1021C21.2281 25.752 21.0261 25.2938 21.0261 24.6164V23.7514H31.2828C32.0851 23.7514 32.7352 23.1007 32.7352 22.2987V17.2188C32.7352 16.4168 32.0851 15.7667 31.2828 15.7667H19.5737C18.7714 15.7667 18.1213 16.4168 18.1213 17.2188C18.1213 18.0211 18.7714 18.6712 19.5737 18.6712H29.8304V20.8463H19.5737C18.7714 20.8463 18.1213 21.4967 18.1213 22.2987V24.6164C18.1213 26.1896 18.7379 27.4978 19.904 28.4C21.099 29.3245 22.8407 29.7866 25.113 29.7866C27.164 29.7863 29.6474 29.4096 32.5494 28.6557C33.3258 28.454 33.7918 27.6616 33.5901 26.8849C33.3883 26.1085 32.5956 25.6433 31.8192 25.8442Z" fill="#2F3438"/>
<path fill-rule="evenodd" clip-rule="evenodd" d="M20.3086 7.82948H31.1188C31.9211 7.82948 32.5712 7.17939 32.5712 6.37709C32.5712 5.57508 31.9211 4.92471 31.1188 4.92471H21.761V1.45242C21.761 0.650397 21.1109 3.05176e-05 20.3086 3.05176e-05C19.5063 3.05176e-05 18.8562 0.650397 18.8562 1.45242V6.37709C18.8562 7.17939 19.5063 7.82948 20.3086 7.82948Z" fill="#2F3438"/>
<rect x="70" width="3" height="15" rx="1.5" fill="#2F3438"/>
<path fill-rule="evenodd" clip-rule="evenodd" d="M64.4974 13.2756C64.7129 13.863 65.2689 14.2276 65.8609 14.2276C66.0252 14.2276 66.1923 14.1993 66.356 14.1404C67.1099 13.8663 67.4993 13.0337 67.226 12.2796C67.1789 12.1507 66.2289 9.60047 63.8531 7.78451L67.5423 3.68112C67.9254 3.25479 68.022 2.64268 67.7886 2.11891C67.5549 1.59543 67.0356 1.25772 66.462 1.25772H57.4141C56.6118 1.25772 55.9614 1.90809 55.9614 2.71011C55.9614 3.5124 56.6118 4.16249 57.4141 4.16249H63.2035L56.3338 11.804C55.7977 12.4004 55.8461 13.3188 56.4428 13.8547C56.7202 14.1046 57.0676 14.2274 57.4135 14.2274C57.8112 14.2274 58.2073 14.065 58.4941 13.7457L61.9023 9.95442C63.7067 11.2304 64.4792 13.2272 64.4974 13.2756Z" fill="#2F3438"/>
<mask id="mask0_2528_3106" style="mask-type:alpha" maskUnits="userSpaceOnUse" x="58" y="17" width="16" height="13">
<path fill-rule="evenodd" clip-rule="evenodd" d="M73.2804 17.1496V29.4218H58.8279V17.1496H73.2804V17.1496Z" fill="white"/>
</mask>
<g mask="url(#mask0_2528_3106)">
<path fill-rule="evenodd" clip-rule="evenodd" d="M69.5613 26.517H62.5479C62.0982 26.517 61.7327 26.1515 61.7327 25.7023V23.7512H70.376V25.7023C70.376 26.1515 70.0104 26.517 69.5613 26.517ZM71.8283 17.1496C71.026 17.1496 70.376 17.7999 70.376 18.602V20.8462H61.7327V18.602C61.7327 17.7999 61.0826 17.1496 60.2803 17.1496C59.4782 17.1496 58.8279 17.7999 58.8279 18.602V25.7023C58.8279 27.7531 60.4966 29.4218 62.5479 29.4218H69.5613C71.612 29.4218 73.2807 27.7531 73.2807 25.7023V18.602C73.2807 17.7999 72.6304 17.1496 71.8283 17.1496Z" fill="#2F3438"/>
</g>
<path fill-rule="evenodd" clip-rule="evenodd" d="M42.4638 3.87091C44.6769 3.87091 44.7889 8.10587 44.7889 8.95495C44.7889 9.80403 44.6769 14.039 42.4638 14.039C40.2504 14.039 40.1384 9.80403 40.1384 8.95495C40.1384 8.10587 40.2504 3.87091 42.4638 3.87091ZM42.4638 16.9438C44.2225 16.9438 45.69 16.0107 46.5966 14.3167C47.3144 12.9755 47.6937 11.1213 47.6937 8.95495C47.6937 6.78862 47.3144 4.93467 46.5966 3.5932C45.69 1.89917 44.2225 0.966141 42.4638 0.966141C40.7051 0.966141 39.2373 1.89917 38.331 3.5932C37.6132 4.93467 37.2339 6.78862 37.2339 8.95495C37.2339 11.1213 37.6132 12.9755 38.331 14.3167C39.2373 16.0107 40.7051 16.9438 42.4638 16.9438Z" fill="#2F3438"/>
<path fill-rule="evenodd" clip-rule="evenodd" d="M51.3985 0.487518C50.5965 0.487518 49.9461 1.13789 49.9461 1.9399V19.7178C48.0212 20.3167 44.2016 20.8449 39.5736 20.8449H37.3624C36.5604 20.8449 35.9103 21.4952 35.9103 22.2975C35.9103 23.0995 36.5604 23.7499 37.3624 23.7499H39.5736C42.2141 23.7499 46.7829 23.5171 49.9461 22.7313V27.5676C49.9461 28.3699 50.5965 29.0197 51.3985 29.0197C52.2008 29.0197 52.8506 28.3699 52.8506 27.5676V1.9399C52.8506 1.13789 52.2008 0.487518 51.3985 0.487518Z" fill="#2F3438"/>
</svg>
