<svg width="18" height="20" viewBox="0 0 18 20" fill="none" xmlns="http://www.w3.org/2000/svg">
<path d="M6.65 16C6.65 17.2979 7.70213 18.35 9 18.35C10.2979 18.35 11.35 17.2979 11.35 16H12.65C12.65 18.0158 11.0158 19.65 9 19.65C6.98416 19.65 5.35 18.0158 5.35 16H6.65Z" fill="#2F3438"/>
<path d="M15.7388 12.3153C15.713 12.2122 15.7 12.1063 15.7 12V8C15.7 4.29969 12.7003 1.3 9 1.3C5.29969 1.3 2.3 4.29969 2.3 8V12C2.3 12.1063 2.28696 12.2122 2.26119 12.3153L1.66501 14.7H16.335L15.7388 12.3153ZM18 16H0L1 12V8C1 3.58172 4.58172 0 9 0C13.4183 0 17 3.58172 17 8V12L18 16Z" fill="#2F3438"/>
</svg>
