<svg width="18" height="18" viewBox="0 0 18 18" fill="none" xmlns="http://www.w3.org/2000/svg">
<path d="M7.5 13.7C4.07583 13.7 1.3 10.9242 1.3 7.5C1.3 4.07583 4.07583 1.3 7.5 1.3C10.9242 1.3 13.7 4.07583 13.7 7.5C13.7 10.9242 10.9242 13.7 7.5 13.7ZM7.5 15C11.6421 15 15 11.6421 15 7.5C15 3.35786 11.6421 0 7.5 0C3.35786 0 0 3.35786 0 7.5C0 11.6421 3.35786 15 7.5 15Z" fill="#2F3438"/>
<path d="M16.5404 17.9596L11.5404 12.9596L12.4596 12.0404L17.4596 17.0404L16.5404 17.9596Z" fill="#2F3438"/>
</svg>
