<svg width="310" height="386" viewBox="0 0 310 386" fill="none" xmlns="http://www.w3.org/2000/svg">
<g clip-path="url(#clip0_36_913)">
<rect width="310" height="386" fill="#09310F"/>
<rect width="310" height="386" fill="#FFF27B"/>
<path d="M-10.0194 182.373C-11.3651 182.645 -12.3956 183.246 -13.0874 184.168C-15.1307 186.897 -13.7237 191.729 -9.05907 198.15C-4.70386 204.135 2.0333 210.831 9.87969 216.974C17.7261 223.117 25.8031 228.003 32.5957 230.738C36.3554 232.234 39.4876 233 41.9162 233C44.1814 233 45.8335 232.345 46.8114 231.028C47.2675 230.409 47.5592 229.679 47.6579 228.91L65 147.595L-10.0194 182.373ZM45.6526 228.503L45.5387 229.041C45.4627 229.299 45.3432 229.541 45.1855 229.757C43.8282 231.582 39.3971 231.22 33.3371 228.787C26.7167 226.13 18.8266 221.349 11.1144 215.322C-5.57665 202.265 -14.182 189.102 -11.4673 185.452C-11.4169 185.388 -11.3633 185.327 -11.3068 185.269L-9.41811 184.395C-9.02024 184.332 -8.6181 184.301 -8.21546 184.303C-6.08164 184.303 -3.12174 185.015 0.384031 186.421C7.00151 189.078 14.8946 193.86 22.6038 199.886C37.7566 211.732 46.2451 223.668 45.6584 228.503H45.6526ZM46.683 223.668C45.8657 221.711 44.5638 219.479 42.7861 217.046C38.4279 211.062 31.6937 204.365 23.8444 198.222C15.9951 192.079 7.92099 187.193 1.13129 184.458C-0.953814 183.592 -3.11498 182.931 -5.32271 182.486L62.1218 151.215L46.683 223.668Z" fill="#1E2CFB"/>
<path d="M62.1276 151.224L46.6888 223.667C45.8715 221.711 44.5696 219.478 42.7919 217.046C38.4338 211.061 31.6995 204.365 23.8502 198.222C16.0009 192.079 7.92681 187.193 1.13711 184.458C-0.947993 183.591 -3.10916 182.931 -5.31689 182.486L62.1276 151.224Z" fill="#F2CFFF"/>
<path d="M45.6585 228.503L45.5447 229.041C45.4687 229.299 45.3491 229.541 45.1915 229.757C43.8341 231.582 39.403 231.22 33.3431 228.787C26.7227 226.13 18.8325 221.349 11.1204 215.322C-5.5707 202.265 -14.176 189.102 -11.4613 185.452C-11.4109 185.388 -11.3573 185.327 -11.3008 185.269L-9.41219 184.395C-9.01432 184.332 -8.61218 184.301 -8.20954 184.303C-6.07572 184.303 -3.11579 185.015 0.389988 186.421C7.00746 189.078 14.9006 193.86 22.6098 199.886C37.7567 211.732 46.2453 223.667 45.6585 228.503Z" fill="#1E2CFB"/>
<path d="M59.5385 16H257V59.6975L252.205 68H53V22.5546L59.5385 16Z" fill="#F9D1FF"/>
<path d="M59.5385 16H257V59.6975M59.5385 16L53 22.5546V68M59.5385 16V59.6975M257 59.6975L252.205 68H53M257 59.6975H59.5385M53 68L59.5385 59.6975" stroke="black" stroke-width="2"/>
<path d="M309.804 280.773C308.689 283.306 304.356 283.884 296.934 282.498C290.189 281.242 281.716 278.485 273.073 274.738C264.431 270.991 256.642 266.692 251.13 262.638C245.064 258.169 242.552 254.625 243.67 252.095C244.392 250.455 246.457 249.638 249.845 249.638C251.895 249.669 253.938 249.875 255.952 250.252L255.973 250.227L256.02 250.267C256.193 250.298 256.364 250.323 256.54 250.359C263.285 251.619 271.757 254.376 280.385 258.123C289.012 261.87 296.819 266.166 302.331 270.22C308.41 274.701 310.921 278.239 309.804 280.773ZM279.542 260.095C272.671 257.119 265.917 254.779 260.108 253.338C265.291 256.907 272.234 260.648 279.926 263.98C286.13 266.673 292.54 268.873 299.095 270.558C293.871 267.023 287.033 263.338 279.542 260.095ZM303.26 273.681C296.2 272.355 287.157 269.468 279.047 265.948C269.215 261.686 260.535 256.735 255.091 252.294C251.511 251.717 246.377 251.348 245.668 252.951C244.884 254.73 249.551 258.787 252.434 260.912C257.816 264.873 265.462 269.084 273.956 272.769C282.45 276.455 290.759 279.157 297.349 280.389C299.482 280.798 301.648 281.024 303.821 281.064C305.812 281.064 307.453 280.757 307.846 279.913C308.419 278.546 305.8 275.828 303.248 273.681L303.26 273.681Z" fill="#1E2CFB"/>
<path d="M336.232 274.489L329.65 289.418C327.216 294.938 319.338 297.585 307.454 296.892C295.939 296.217 281.89 292.506 267.901 286.443C253.911 280.38 241.61 272.668 233.302 264.74C224.722 256.568 221.335 249.03 223.769 243.516L230.351 228.584C232.516 223.647 239.077 221 248.953 221C250.107 221 251.306 221.037 252.547 221.11C264.062 221.785 278.111 225.496 292.101 231.562C306.09 237.628 318.391 245.334 326.699 253.259C335.279 261.434 338.663 268.975 336.232 274.489ZM225.752 244.374C223.738 248.938 227.039 255.798 234.802 263.198C242.943 270.95 255.006 278.507 268.767 284.471C282.528 290.436 296.313 294.089 307.584 294.745C308.769 294.819 309.91 294.849 311.008 294.849C319.882 294.849 325.873 292.62 327.667 288.556C329.678 283.993 326.381 277.133 318.614 269.733C310.476 261.977 298.413 254.418 284.653 248.453C270.892 242.488 257.106 238.842 245.835 238.18C235.084 237.551 227.765 239.808 225.752 244.374ZM325.199 254.801C317.058 247.049 304.995 239.492 291.235 233.527C277.474 227.563 263.688 223.907 252.417 223.251C241.666 222.638 234.347 224.879 232.337 229.446L228.195 238.836C231.508 236.925 236.312 235.929 242.371 235.929C243.524 235.929 244.721 235.962 245.962 236.036C257.48 236.708 271.529 240.421 285.519 246.484C299.508 252.547 311.809 260.254 320.114 268.181C325.725 273.53 329.115 278.608 330.108 283.012L334.259 273.628C336.263 269.064 332.963 262.195 325.199 254.804L325.199 254.801Z" fill="#1E2CFB"/>
<path d="M327.675 288.51C325.879 292.57 319.882 294.797 311 294.797C309.901 294.797 308.758 294.766 307.572 294.693C296.291 294.037 282.495 290.403 268.718 284.428C254.941 278.453 242.869 270.919 234.721 263.173C226.95 255.779 223.646 248.925 225.662 244.365C227.677 239.806 235.002 237.548 245.764 238.176C257.046 238.838 270.842 242.466 284.619 248.44C298.396 254.415 310.467 261.953 318.613 269.702C326.387 277.084 329.687 283.938 327.675 288.51ZM302.269 270.269C296.758 266.224 288.956 261.938 280.328 258.2C271.699 254.461 263.219 251.71 256.489 250.454C256.312 250.417 256.142 250.392 255.968 250.362L255.922 250.322L255.9 250.346C253.887 249.97 251.844 249.765 249.795 249.734C246.411 249.734 244.343 250.552 243.622 252.185C242.504 254.71 245.015 258.246 251.08 262.704C256.591 266.748 264.393 271.035 273.018 274.776C281.644 278.518 290.13 281.266 296.873 282.519C304.303 283.901 308.638 283.325 309.74 280.797C310.842 278.269 308.334 274.721 302.269 270.257L302.269 270.269Z" fill="#F2CFFF"/>
<path d="M303.172 273.768C296.112 272.438 287.07 269.545 278.96 266.018C269.128 261.746 260.449 256.785 255.005 252.334C251.425 251.756 246.291 251.387 245.582 252.993C244.799 254.775 249.465 258.841 252.348 260.971C257.73 264.941 265.375 269.16 273.869 272.854C282.363 276.547 290.671 279.255 297.26 280.49C299.394 280.9 301.559 281.126 303.732 281.167C305.723 281.167 307.364 280.859 307.758 280.013C308.343 278.643 305.723 275.919 303.172 273.768Z" fill="#1E2CFB"/>
<path d="M325.271 254.733C317.119 246.974 305.04 239.414 291.261 233.446C277.482 227.479 263.677 223.824 252.391 223.165C241.626 222.551 234.298 224.794 232.285 229.362L228.137 238.757C231.455 236.846 236.264 235.848 242.332 235.848C243.487 235.848 244.686 235.882 245.928 235.956C257.461 236.631 271.529 240.343 285.537 246.412C299.546 252.481 311.863 260.188 320.179 268.119C325.797 273.467 329.192 278.551 330.186 282.957L334.342 273.565C336.349 269 333.045 262.127 325.271 254.733Z" fill="#1E2CFB"/>
</g>
<rect x="1" y="1" width="308" height="384" stroke="black" stroke-width="2"/>
<defs>
<clipPath id="clip0_36_913">
<rect width="310" height="386" fill="white"/>
</clipPath>
</defs>
</svg>
