<svg width="310" height="386" viewBox="0 0 310 386" fill="none" xmlns="http://www.w3.org/2000/svg">
<g clip-path="url(#clip0_62_1988)">
<rect width="310" height="386" fill="#09310F"/>
<rect width="310" height="386" fill="#79BBE5"/>
<rect x="26.3459" y="50.2346" width="257.308" height="210.694" stroke="black" stroke-width="2"/>
<path d="M59.5385 16H257V59.6975L252.205 68H53V22.5546L59.5385 16Z" fill="#7997FF"/>
<path d="M59.5385 16H257V59.6975M59.5385 16L53 22.5546V68M59.5385 16V59.6975M257 59.6975L252.205 68H53M257 59.6975H59.5385M53 68L59.5385 59.6975" stroke="black" stroke-width="2"/>
<path d="M79.2492 287.961V285.43H76.2882V282.898H73.299V280.367V277.836H70.3098V275.305V272.773V270.214V267.682V265.151V262.62V260.088H67.3206V262.62H64.3314V265.151H61.3704H58.3812H55.392H52.4028H49.4136H46.4244V262.62H43.4634V260.088H40.4743V257.557H37.4851V260.088H34.4959V262.62V265.151H31.5067V267.682H28.5457V270.214H25.5565V272.773H22.5673H19.5781V275.305H16.5889H13.5997H10.6387H7.6495H4.6603H1.67111H-1.31809H-4.27908V272.773H-7.26828H-10.2575V270.214H-13.2467V267.682H-16.2359V265.151H-19.1969H-22.1861V267.682H-25.1753V270.214H-28.1644H-31.1536H-34.1146H-37.1038H-40.093H-43.0822V267.682H-46.0714V265.151H-49.0606V262.62V260.088H-52.0216V257.557V255.026V252.495V249.935H-55.0108V252.495V255.026V257.557H-58V260.088V262.62V265.151V267.682V270.214V272.773H-55.0108V275.305V277.836V280.367H-52.0216V282.898V285.43H-49.0606V287.961H-46.0714V290.492H-43.0822H-40.093V293.024H-37.1038H-34.1146H-31.1536H-28.1644H-25.1753H-22.1861H-19.1969H-16.2359H-13.2467H-10.2575H-7.26828H-4.27908H-1.31809H1.67111H4.6603H7.6495H10.6387H13.5997H16.5889H19.5781H22.5673H25.5565H28.5457H31.5067H34.4959H37.4851H40.4743H43.4634H46.4244H49.4136H52.4028H55.392H58.3812H61.3704H64.3314H67.3206H70.3098H73.299H76.2882H79.2492V290.492H82.2384V287.961H79.2492Z" fill="#C1E5F5"/>
<path d="M88.2168 265.151V262.62V260.089H85.2276V257.557H82.2384V255.026H79.2492V252.495H76.2882H73.299H70.3098V249.935V247.404V244.873H67.3206V242.341V239.81V237.279H64.3314V234.747H61.3704V232.216H58.3812V229.685H55.392V227.125H52.4028H49.4136H46.4244H43.4634H40.4742H37.485H34.4958H31.5066V229.685H28.5457V227.125V224.594H25.5565V222.063H22.5673H19.5781V219.531H16.5889V217H13.5997H10.6387H7.64949H4.6603H1.67111H-1.31809V219.531H-4.27909H-7.26828V222.063H-10.2575V224.594H-13.2467V227.125H-16.2359V229.685H-19.1969V232.216V234.747V237.279H-22.1861H-25.1753H-28.1644H-31.1536H-34.1146H-37.1038H-40.093V239.81H-43.0822H-46.0714V242.341H-49.0606V244.873H-52.0216V247.404V249.935V252.495V255.026V257.557V260.089H-49.0606V262.62V265.151H-46.0714V267.683H-43.0822V270.214H-40.093H-37.1038H-34.1146H-31.1536H-28.1644H-25.1753V267.683H-22.1861V265.151H-19.1969H-16.2359V267.683H-13.2467V270.214H-10.2575V272.773H-7.26828H-4.27909V275.305H-1.31809H1.67111H4.6603H7.64949H10.6387H13.5997H16.5889H19.5781V272.773H22.5673H25.5565V270.214H28.5457V267.683H31.5066V265.151H34.4958V262.62V260.089H37.485V257.557H40.4742V260.089H43.4634V262.62H46.4244V265.151H49.4136H52.4028H55.392H58.3812H61.3704H64.3314V262.62H67.3206V260.089H70.3098V262.62V265.151V267.683V270.214V272.773V275.305V277.836H73.299V280.367V282.899H76.2882V285.43H79.2492V287.961H82.2384V290.493H85.2276V287.961V285.43H88.2168V282.899H91.2059V280.367V277.836V275.305V272.773V270.214V267.683V265.151H88.2168Z" fill="white"/>
<g clip-path="url(#clip1_62_1988)">
<path d="M339.323 106.12V104.439H337.353V102.758H335.364V101.077V99.3963H333.375V97.7155V96.0346V94.3351V92.6543V90.9735V89.2927V87.6118H331.386V89.2927H329.397V90.9735H327.427H325.438H323.449H321.46H319.471H317.482V89.2927H315.512V87.6118H313.523V85.931H311.534V87.6118H309.545V89.2927V90.9735H307.556V92.6543H305.586V94.3351H303.597V96.0346H301.608H299.619V97.7155H297.63H295.641H293.671H291.682H289.693H287.704H285.715H283.745V96.0346H281.756H279.767V94.3351H277.778V92.6543H275.789V90.9735H273.819H271.83V92.6543H269.841V94.3351H267.852H265.863H263.893H261.904H259.915H257.926V92.6543H255.937V90.9735H253.948V89.2927V87.6118H251.978V85.931V84.2502V82.5694V80.8699H249.989V82.5694V84.2502V85.931H248V87.6118V89.2927V90.9735V92.6543V94.3351V96.0346H249.989V97.7155V99.3963V101.077H251.978V102.758V104.439H253.948V106.12H255.937V107.8H257.926H259.915V109.481H261.904H263.893H265.863H267.852H269.841H271.83H273.819H275.789H277.778H279.767H281.756H283.745H285.715H287.704H289.693H291.682H293.671H295.641H297.63H299.619H301.608H303.597H305.586H307.556H309.545H311.534H313.523H315.512H317.482H319.471H321.46H323.449H325.438H327.427H329.397H331.386H333.375H335.364H337.353H339.323V107.8H341.312V106.12H339.323Z" fill="#C1E5F5"/>
<path d="M345.29 90.9733V89.2924V87.6116H343.301V85.9308H341.312V84.25H339.323V82.5691H337.353H335.364H333.375V80.8696V79.1888V77.508H331.386V75.8272V74.1463V72.4655H329.397V70.7847H327.427V69.1039H325.438V67.423H323.449V65.7235H321.46H319.471H317.482H315.512H313.523H311.534H309.545H307.556V67.423H305.586V65.7235V64.0427H303.597V62.3619H301.608H299.619V60.6811H297.63V59.0002H295.641H293.671H291.682H289.693H287.704H285.715V60.6811H283.745H281.756V62.3619H279.767V64.0427H277.778V65.7235H275.789V67.423H273.819V69.1039V70.7847V72.4655H271.83H269.841H267.852H265.863H263.893H261.904H259.915V74.1463H257.926H255.937V75.8272H253.948V77.508H251.978V79.1888V80.8696V82.5691V84.25V85.9308V87.6116H253.948V89.2924V90.9733H255.937V92.6541H257.926V94.3349H259.915H261.904H263.893H265.863H267.852H269.841V92.6541H271.83V90.9733H273.819H275.789V92.6541H277.778V94.3349H279.767V96.0344H281.756H283.745V97.7152H285.715H287.704H289.693H291.682H293.671H295.641H297.63H299.619V96.0344H301.608H303.597V94.3349H305.586V92.6541H307.556V90.9733H309.545V89.2924V87.6116H311.534V85.9308H313.523V87.6116H315.512V89.2924H317.482V90.9733H319.471H321.46H323.449H325.438H327.427H329.397V89.2924H331.386V87.6116H333.375V89.2924V90.9733V92.6541V94.3349V96.0344V97.7152V99.3961H335.364V101.077V102.758H337.353V104.439H339.323V106.119H341.312V107.8H343.301V106.119V104.439H345.29V102.758H347.279V101.077V99.3961V97.7152V96.0344V94.3349V92.6541V90.9733H345.29Z" fill="white"/>
</g>
</g>
<rect x="1" y="1" width="308" height="384" stroke="black" stroke-width="2"/>
<defs>
<clipPath id="clip0_62_1988">
<rect width="310" height="386" fill="white"/>
</clipPath>
<clipPath id="clip1_62_1988">
<rect width="99.2788" height="50.4808" fill="white" transform="translate(248 59)"/>
</clipPath>
</defs>
</svg>
