<svg width="310" height="386" viewBox="0 0 310 386" fill="none" xmlns="http://www.w3.org/2000/svg">
<rect x="309" y="385" width="308" height="384" transform="rotate(-180 309 385)" fill="#8FC1E2"/>
<rect x="309" y="385" width="308" height="384" transform="rotate(-180 309 385)" fill="#FF5F0F"/>
<path d="M17.6923 344H20V349.385H17.6923V344Z" fill="black"/>
<path d="M13.0769 349.385H17.6923V351.692H13.0769V349.385Z" fill="black"/>
<path d="M17.6923 349.385H20V351.692H17.6923V349.385Z" fill="white"/>
<path d="M20 349.385H25.3846V351.692H20V349.385Z" fill="black"/>
<path d="M17.6331 351.692H20.0592V354.178H22.4852V356.663H24.9112V359.148H27.3373V361.633H24.9112V364.118H27.3373V366.604H29.7633V369.089H27.3373V371.574H29.7633V374.059H32.1893V376.544H34.6154V379.03H20.0592V384H17.6331V379.03H3.0769V376.544H5.50294V374.059H7.92898V371.574H10.355V369.089H7.92898V366.604H10.355V364.118H12.781V361.633H10.355V359.148H12.781V356.663H15.2071V354.178H17.6331V351.692Z" fill="black"/>
<path d="M74 366H76V369H74V366Z" fill="white"/>
<path d="M57.5 349H72.5V354H70V351.5H67.5V359H75V356.5H77.5V359H80V374H77.5V369H75V366.5H70V369H67.5V374H57.5V369H55V366.5H50V369H47.5V374H42.5V371.5H40V364H42.5V361.5H45V359H50V356.5H52.5V359H65V351.5H57.5V349Z" fill="black"/>
<path d="M55 352H57V354H55V352Z" fill="black"/>
<path d="M52 354H55V357H52V354Z" fill="black"/>
<path d="M72 354H75V357H72V354Z" fill="black"/>
<path d="M50 367H55V369H50V367Z" fill="white"/>
<path d="M70 367H75V369H70V367Z" fill="white"/>
<path d="M47 369H50V374H47V369Z" fill="white"/>
<path d="M50 369H55V374H50V369Z" fill="black"/>
<path d="M55 369H57V374H55V369Z" fill="white"/>
<path d="M67 369H70V374H67V369Z" fill="white"/>
<path d="M70 369H75V374H70V369Z" fill="black"/>
<path d="M75 369H77V374H75V369Z" fill="white"/>
<path d="M47 374H50V377H47V374Z" fill="black"/>
<path d="M50 374H55V377H50V374Z" fill="white"/>
<path d="M55 374H57V377H55V374Z" fill="black"/>
<path d="M67 374H70V377H67V374Z" fill="black"/>
<path d="M70 374H75V377H70V374Z" fill="white"/>
<path d="M75 374H77V377H75V374Z" fill="black"/>
<path d="M50 377H55V379H50V377Z" fill="black"/>
<path d="M70 377H75V379H70V377Z" fill="black"/>
<path d="M92 344H122V366.5H127V384H87V366.5H92V344Z" fill="black"/>
<path d="M94.5 346.5H119.5V366.5H94.5V346.5Z" fill="white"/>
<path d="M97 349H117V364H97V349Z" fill="black"/>
<path d="M99.5 351.5H102V356.5H99.5V351.5Z" fill="white"/>
<path d="M99.5 359H102V361.5H99.5V359Z" fill="white"/>
<path d="M89.5 369H124.5V379H122V376.5H119.5V379H117V376.5H114.5V379H112V376.5H109.5V379H107V376.5H104.5V379H102V376.5H99.5V379H97V376.5H94.5V379H92V376.5H89.5V369Z" fill="white"/>
<path d="M112 371.5H122V374H112V371.5Z" fill="black"/>
<path d="M149 344H154V351.5H146.5V349H149V344Z" fill="black"/>
<path d="M144 351.5H146.5V354H144V351.5Z" fill="black"/>
<path d="M146.5 351.5H154V354H151.5V356.5H154V354H156.5V361.5H151.5V359H149V361.5H144V354H146.5V351.5Z" fill="white"/>
<path d="M154 351.5H156.5V354H154V351.5Z" fill="black"/>
<path d="M169 351.5H171.5V354H169V351.5Z" fill="black"/>
<path d="M141.5 354H144V361.5H141.5V354Z" fill="black"/>
<path d="M146.5 354H149V356.5H146.5V354Z" fill="black"/>
<path d="M151.5 354H154V356.5H151.5V354Z" fill="black"/>
<path d="M156.5 354H159V361.5H156.5V354Z" fill="black"/>
<path d="M166.5 354H169V356.5H171.5V359H169V361.5H164V356.5H166.5V354Z" fill="black"/>
<path d="M169 354H171.5V356.5H169V354Z" fill="white"/>
<path d="M171.5 354H174V356.5H171.5V354Z" fill="black"/>
<path d="M149 359H151.5V361.5H156.5V364H144V361.5H149V359Z" fill="black"/>
<path d="M139 361.5H141.5V364H139V361.5Z" fill="black"/>
<path d="M141.5 361.5H144V364H156.5V361.5H159V366.5H156.5V369H159V366.5H164V376.5H161.5V379H139V376.5H136.5V366.5H139V364H141.5V361.5Z" fill="white"/>
<path d="M159 361.5H164V366.5H159V361.5Z" fill="black"/>
<path d="M136.5 364H139V366.5H136.5V364Z" fill="black"/>
<path d="M134 366.5H136.5V376.5H134V366.5Z" fill="black"/>
<path d="M156.5 366.5H159V369H156.5V366.5Z" fill="black"/>
<path d="M164 366.5H166.5V376.5H164V366.5Z" fill="black"/>
<path d="M149 369H151.5V371.5H149V369Z" fill="black"/>
<path d="M149 374H151.5V376.5H149V374Z" fill="black"/>
<path d="M136.5 376.5H139V379H136.5V376.5Z" fill="black"/>
<path d="M161.5 376.5H164V379H161.5V376.5Z" fill="black"/>
<path d="M139 379H161.5V381.5H139V379Z" fill="black"/>
<path d="M195.5 342H198V347H195.5V342Z" fill="black"/>
<path d="M185.5 344.5H188V349.5H185.5V344.5Z" fill="black"/>
<path d="M203 344.5H205.5V349.5H203V344.5Z" fill="black"/>
<path d="M193 347H195.5V349.5H193V347Z" fill="black"/>
<path d="M188 349.5H190.5V352H188V349.5Z" fill="black"/>
<path d="M195.5 349.5H198V352H195.5V349.5Z" fill="black"/>
<path d="M205.5 349.5H208V352H205.5V349.5Z" fill="black"/>
<path d="M203 352H205.5V354.5H203V352Z" fill="black"/>
<path d="M210.5 352H215.5V354.5H210.5V352Z" fill="black"/>
<path d="M183 354.5H188V357H205.5V354.5H210.5V364.5H213V367H208V359.5H205.5V362H188V359.5H185.5V364.5H183V354.5Z" fill="black"/>
<path d="M210.5 354.5H215.5V362H213V364.5H210.5V354.5Z" fill="white"/>
<path d="M215.5 354.5H218V362H215.5V354.5Z" fill="black"/>
<path d="M185.5 359.5H188V362H205.5V359.5H208V367H205.5V369.5H203V372H200.5V374.5H193V372H190.5V369.5H188V364.5H185.5V359.5Z" fill="white"/>
<path d="M213 362H215.5V364.5H213V362Z" fill="black"/>
<path d="M185.5 364.5H188V369.5H185.5V364.5Z" fill="black"/>
<path d="M205.5 367H208V369.5H205.5V367Z" fill="black"/>
<path d="M188 369.5H190.5V372H193V374.5H200.5V372H203V369.5H205.5V372H215.5V374.5H205.5V377H188V374.5H180.5V372H188V369.5Z" fill="black"/>
<path d="M178 374.5H180.5V377H183V379.5H178V374.5Z" fill="black"/>
<path d="M180.5 374.5H188V377H205.5V374.5H215.5V377H213V379.5H183V377H180.5V374.5Z" fill="white"/>
<path d="M215.5 374.5H218V379.5H213V377H215.5V374.5Z" fill="black"/>
<path d="M183 379.5H213V382H183V379.5Z" fill="black"/>
<path d="M226.5 344H236.5V346.5H239V351.5H249V346.5H251.5V344H261.5V346.5H254V349H251.5V354H249V359H246.5V354H241.5V359H239V354H236.5V349H234V346.5H226.5V344Z" fill="black"/>
<path d="M224 346.5H226.5V354H224V346.5Z" fill="black"/>
<path d="M226.5 346.5H234V349H236.5V354H239V359H241.5V354H246.5V359H249V354H251.5V349H254V354H259V356.5H256.5V359H259V364H254V366.5H251.5V369H254V371.5H259V369H254V366.5H259V364H261.5V374H256.5V376.5H251.5V379H234V376.5H229V374H226.5V364H229V359H231.5V356.5H234V351.5H231.5V349H229V354H226.5V346.5Z" fill="white"/>
<path d="M254 346.5H261.5V354H259V349H254V346.5Z" fill="white"/>
<path d="M261.5 346.5H264V354H261.5V346.5Z" fill="black"/>
<path d="M229 349H231.5V351.5H234V356.5H231.5V354H229V349Z" fill="black"/>
<path d="M254 349H259V354H254V349Z" fill="black"/>
<path d="M226.5 354H229V356.5H226.5V354Z" fill="black"/>
<path d="M229 354H231.5V356.5H229V354Z" fill="white"/>
<path d="M259 354H261.5V356.5H259V354Z" fill="black"/>
<path d="M229 356.5H231.5V359H229V356.5Z" fill="black"/>
<path d="M256.5 356.5H259V359H256.5V356.5Z" fill="black"/>
<path d="M226.5 359H229V364H226.5V359Z" fill="black"/>
<path d="M259 359H261.5V364H259V359Z" fill="black"/>
<path d="M239 361.5H241.5V364H239V361.5Z" fill="black"/>
<path d="M244 361.5H246.5V364H244V361.5Z" fill="black"/>
<path d="M224 364H226.5V374H224V364Z" fill="black"/>
<path d="M229 364H234V366.5H229V364Z" fill="black"/>
<path d="M254 364H259V366.5H254V364Z" fill="black"/>
<path d="M261.5 364H264V374H261.5V364Z" fill="black"/>
<path d="M234 366.5H236.5V369H234V366.5Z" fill="black"/>
<path d="M239 366.5H246.5V369H244V371.5H241.5V369H239V366.5Z" fill="black"/>
<path d="M251.5 366.5H254V369H251.5V366.5Z" fill="black"/>
<path d="M229 369H234V371.5H229V369Z" fill="black"/>
<path d="M254 369H259V371.5H254V369Z" fill="black"/>
<path d="M236.5 371.5H239V374H236.5V371.5Z" fill="black"/>
<path d="M246.5 371.5H249V374H246.5V371.5Z" fill="black"/>
<path d="M226.5 374H229V376.5H226.5V374Z" fill="black"/>
<path d="M239 374H246.5V376.5H239V374Z" fill="black"/>
<path d="M256.5 374H261.5V376.5H256.5V374Z" fill="black"/>
<path d="M229 376.5H234V379H229V376.5Z" fill="black"/>
<path d="M251.5 376.5H256.5V379H251.5V376.5Z" fill="black"/>
<path d="M234 379H251.5V381.5H234V379Z" fill="black"/>
<path d="M275.5 349H288V351.5H275.5V349Z" fill="black"/>
<path d="M273 351.5H275.5V354H273V351.5Z" fill="black"/>
<path d="M275.5 351.5H288V354H295.5V356.5H298V361.5H295.5V364H290.5V366.5H295.5V364H303V366.5H305.5V371.5H300.5V374H285.5V371.5H280.5V369H285.5V366.5H278V364H273V361.5H270.5V356.5H273V354H275.5V351.5Z" fill="white"/>
<path d="M288 351.5H295.5V354H288V351.5Z" fill="black"/>
<path d="M270.5 354H273V356.5H270.5V354Z" fill="black"/>
<path d="M295.5 354H298V356.5H295.5V354Z" fill="black"/>
<path d="M268 356.5H270.5V361.5H268V356.5Z" fill="black"/>
<path d="M298 356.5H300.5V361.5H303V364H295.5V361.5H298V356.5Z" fill="black"/>
<path d="M278 359H280.5V361.5H278V359Z" fill="black"/>
<path d="M270.5 361.5H273V364H270.5V361.5Z" fill="black"/>
<path d="M280.5 361.5H288V364H280.5V361.5Z" fill="black"/>
<path d="M273 364H278V366.5H273V364Z" fill="black"/>
<path d="M290.5 364H295.5V366.5H290.5V364Z" fill="black"/>
<path d="M303 364H305.5V366.5H303V364Z" fill="black"/>
<path d="M278 366.5H285.5V369H280.5V371.5H278V366.5Z" fill="black"/>
<path d="M305.5 366.5H308V371.5H305.5V366.5Z" fill="black"/>
<path d="M280.5 371.5H285.5V374H280.5V371.5Z" fill="black"/>
<path d="M300.5 371.5H305.5V374H300.5V371.5Z" fill="black"/>
<path d="M285.5 374H300.5V376.5H285.5V374Z" fill="black"/>
<path d="M59.5385 16H257V59.6975L252.205 68H53V22.5546L59.5385 16Z" fill="white"/>
<path d="M59.5385 16H257V59.6975M59.5385 16L53 22.5546V68M59.5385 16V59.6975M257 59.6975L252.205 68H53M257 59.6975H59.5385M53 68L59.5385 59.6975" stroke="black" stroke-width="2"/>
<rect x="309" y="385" width="308" height="384" transform="rotate(-180 309 385)" stroke="black" stroke-width="2"/>
</svg>
